<svg width="94" height="94" viewBox="0 0 94 94" fill="none" xmlns="http://www.w3.org/2000/svg">
<path d="M93.9661 47.09C93.9661 55.99 91.4661 64.31 87.1461 71.39C78.9561 84.78 64.1961 93.71 47.3461 93.71C33.2961 93.71 20.6961 87.49 12.1561 77.66C5.03608 69.48 0.726074 58.78 0.726074 47.09C0.726074 21.34 21.5961 0.469971 47.3461 0.469971C73.0961 0.469971 93.9661 21.34 93.9661 47.09Z" fill="#EDDDD6"/>
<path d="M51.981 34.187C51.981 34.187 59.497 30.628 60.321 36.523C61.276 43.352 53.085 43.733 53.085 43.733L51.981 34.187Z" fill="#F27E64"/>
<path d="M56.0078 40.261C55.9288 40.261 55.8478 40.242 55.7738 40.202C55.5298 40.072 55.4378 39.769 55.5678 39.526L57.9488 35.056C58.0778 34.812 58.3818 34.719 58.6248 34.849C58.8688 34.979 58.9608 35.282 58.8308 35.525L56.4498 39.995C56.3598 40.165 56.1868 40.261 56.0078 40.261Z" fill="black"/>
<path d="M56.7428 38.883C56.4718 38.883 56.2488 38.666 56.2428 38.394C56.2368 38.118 56.4558 37.89 56.7318 37.883L58.9138 37.835C59.1878 37.84 59.4188 38.049 59.4248 38.324C59.4308 38.6 59.2118 38.828 58.9358 38.835L56.7538 38.883C56.7508 38.883 56.7468 38.883 56.7428 38.883Z" fill="black"/>
<path d="M87.1462 71.39C84.1962 76.21 80.3962 80.45 75.9562 83.89C75.6662 84.13 75.3762 84.35 75.0762 84.56C67.3262 90.32 57.7362 93.71 47.3462 93.71C41.1162 93.71 35.1662 92.49 29.7362 90.27C29.4262 90.14 29.1162 90.01 28.8062 89.87C22.3662 87.08 16.6863 82.88 12.1562 77.66C14.0263 71.85 17.5162 66.33 23.7362 62.83C39.6162 53.9 63.3962 53.9 73.9762 58.92C80.4762 62 84.7662 67.52 87.1462 71.39Z" fill="#7772D3"/>
<path d="M55.0651 27.408C55.0651 27.408 60.0321 19.396 59.0301 15.976C58.0281 12.556 53.5541 15.908 53.5541 15.908C53.5541 15.908 52.5361 8.54097 47.0491 9.97097C39.7451 11.875 32.4901 24.739 32.4901 24.739C32.4901 24.739 28.7701 23.805 27.5121 27.066C26.0471 30.862 27.3321 35.121 29.6781 38.909C32.0241 42.698 38.3771 39.573 38.3771 39.573L55.0651 27.408Z" fill="black"/>
<path d="M39.646 50.6L39.911 59.375C39.911 59.375 43.16 61.072 47.138 60.986C52.508 60.869 54.237 58.506 54.237 58.506L53.762 47.123L39.646 50.6Z" fill="#F27E64"/>
<path d="M39.6411 50.395C39.6411 50.395 43.0361 56.99 49.0941 55.843C53.9771 54.919 53.7771 48.004 53.7771 48.004L39.6411 50.395Z" fill="black"/>
<path d="M55.0652 27.408C55.0652 27.408 57.7522 42.668 55.0322 48.633C51.9812 55.325 44.1712 54.429 41.3712 52.444C37.5942 49.766 35.9652 45.437 35.9652 45.437C35.9652 45.437 30.9622 46.637 29.1212 42.59C27.1882 38.34 30.1922 34.733 32.7062 34.429C35.2202 34.125 35.5322 34.573 35.5322 34.573L34.6132 29.989C34.6132 29.989 49.2832 12.354 55.0652 27.408Z" fill="#F27E64"/>
<path d="M35.5318 34.573C35.5318 34.573 38.8008 34.689 42.4908 31.754C46.8198 28.311 46.1358 22.628 46.1358 22.628C46.1358 22.628 54.0158 27.146 55.9738 33.101C57.9318 39.056 57.9038 18.848 49.1878 19.58C40.4718 20.311 28.8418 26.003 35.5318 34.573Z" fill="black"/>
<path d="M34.9442 41.308C34.8352 41.308 34.7262 41.273 34.6342 41.2L30.6132 38.013C30.3972 37.841 30.3602 37.527 30.5322 37.31C30.7042 37.094 31.0182 37.057 31.2352 37.229L35.2552 40.415C35.4712 40.587 35.5082 40.901 35.3372 41.118C35.2382 41.243 35.0922 41.308 34.9442 41.308Z" fill="black"/>
<path d="M31.3761 42.061C31.2301 42.061 31.0861 41.998 30.9881 41.877C30.8141 41.663 30.8461 41.348 31.0601 41.173L33.2891 39.357C33.5031 39.182 33.8191 39.215 33.9931 39.429C34.1671 39.643 34.1351 39.958 33.9211 40.133L31.6921 41.949C31.5981 42.025 31.4861 42.061 31.3761 42.061Z" fill="black"/>
<path d="M43.2809 36.836C43.0269 36.836 42.8089 36.643 42.7839 36.384L42.5439 33.919C42.5169 33.644 42.7179 33.4 42.9929 33.373C43.2659 33.352 43.5129 33.548 43.5389 33.822L43.7789 36.287C43.8059 36.562 43.6049 36.806 43.3299 36.833C43.3139 36.835 43.2979 36.836 43.2809 36.836Z" fill="black"/>
<path d="M52.883 36.476C52.629 36.476 52.411 36.283 52.386 36.025L52.145 33.56C52.118 33.285 52.319 33.04 52.594 33.014C52.873 32.993 53.113 33.188 53.14 33.463L53.381 35.928C53.408 36.203 53.207 36.448 52.932 36.474C52.916 36.475 52.899 36.476 52.883 36.476Z" fill="black"/>
<path d="M49.3641 42.583C49.3381 42.583 49.3121 42.581 49.2861 42.577C49.0131 42.534 48.8271 42.278 48.8691 42.005C49.4421 38.368 48.1471 35.398 48.1341 35.368C48.0221 35.116 48.1351 34.82 48.3871 34.708C48.6391 34.596 48.9341 34.709 49.0471 34.96C49.1061 35.091 50.4771 38.219 49.8571 42.16C49.8181 42.408 49.6061 42.583 49.3641 42.583Z" fill="black"/>
<path d="M53.7248 31.317C53.6148 31.317 53.5048 31.281 53.4118 31.207C52.7308 30.66 51.5208 30.595 51.1078 30.619C50.8368 30.629 50.5968 30.422 50.5818 30.146C50.5668 29.87 50.7788 29.635 51.0548 29.62C51.1288 29.616 52.9218 29.53 54.0388 30.428C54.2538 30.601 54.2878 30.916 54.1148 31.131C54.0168 31.253 53.8718 31.317 53.7248 31.317Z" fill="black"/>
<path d="M42.467 31.692C42.317 31.692 42.17 31.626 42.071 31.499C41.902 31.281 41.942 30.966 42.159 30.797C43.292 29.919 45.081 30.034 45.157 30.041C45.432 30.061 45.639 30.299 45.62 30.574C45.601 30.849 45.379 31.058 45.087 31.038C45.071 31.034 43.6 30.944 42.773 31.587C42.682 31.658 42.574 31.692 42.467 31.692Z" fill="black"/>
<path d="M34.3692 34.643C34.3692 34.643 36.1302 39.11 36.7092 38.903C37.2892 38.695 36.0242 31.591 34.3062 31.369C32.5892 31.146 34.3692 34.643 34.3692 34.643Z" fill="black"/>
<path d="M47.1742 61.466C42.5292 61.466 38.2132 59.44 38.1372 59.403C37.8882 59.283 37.7832 58.985 37.9032 58.736C38.0222 58.487 38.3192 58.381 38.5702 58.501C38.6942 58.561 51.0382 64.348 55.6882 55.799C55.8192 55.558 56.1242 55.467 56.3662 55.599C56.6092 55.731 56.6992 56.035 56.5662 56.278C54.3712 60.311 50.6792 61.466 47.1742 61.466Z" fill="#FFBF69"/>
<path d="M47.5472 46.431C46.0752 46.431 45.2802 45.527 45.0412 44.938C44.9372 44.683 45.0612 44.391 45.3162 44.287C45.5682 44.185 45.8602 44.305 45.9652 44.557C46.0242 44.691 46.5742 45.82 48.4562 45.294C48.7212 45.22 48.9982 45.375 49.0722 45.641C49.1472 45.907 48.9922 46.183 48.7252 46.257C48.2932 46.378 47.9002 46.431 47.5472 46.431Z" fill="black"/>
<path d="M30.8661 84.34L29.7361 90.27C29.4261 90.14 29.1162 90.01 28.8062 89.87L29.8961 84.15C29.9461 83.88 30.2061 83.7 30.4861 83.75C30.7561 83.81 30.9261 84.06 30.8661 84.34Z" fill="#FFBF69"/>
</svg>
