<svg width="94" height="94" viewBox="0 0 94 94" fill="none" xmlns="http://www.w3.org/2000/svg">
<path d="M93.7859 46.62C93.7859 50.76 93.2459 54.78 92.2259 58.6C86.9459 78.55 68.7759 93.24 47.1659 93.24C32.6259 93.24 19.6459 86.59 11.0959 76.17C4.5059 68.12 0.545898 57.83 0.545898 46.62C0.545898 20.87 21.4159 0 47.1659 0C72.9159 0 93.7859 20.87 93.7859 46.62Z" fill="#EDDDD6"/>
<path d="M92.2262 58.6C86.9462 78.55 68.7762 93.24 47.1662 93.24C32.6262 93.24 19.6462 86.59 11.0962 76.17C24.7362 59.48 39.4462 57.7 39.4462 57.7C39.4462 57.7 39.0962 55.18 39.4462 54.5C39.6962 54.02 40.6162 53.58 41.1262 53.37C41.3262 53.29 41.4562 53.24 41.4562 53.24C41.4562 53.24 42.1962 53.11 43.3562 52.93C45.6862 52.56 49.7062 51.97 52.8262 51.74C53.7762 51.66 54.6462 51.62 55.3562 51.63C56.1262 51.64 56.7162 51.71 57.0362 51.86C57.4262 52.04 57.8762 53.24 57.8762 53.24C57.8762 53.24 63.6462 52.35 71.6162 53.24C74.9662 53.62 83.2962 55.16 92.2262 58.6Z" fill="#7C6053"/>
<path d="M39.2812 32.437C39.2812 32.437 31.1292 29.821 31.0852 35.949C31.0342 43.049 39.4462 42.329 39.4462 42.329L39.2812 32.437Z" fill="#F27E64"/>
<path d="M35.9242 39.171C35.7682 39.171 35.6142 39.098 35.5172 38.962L32.4822 34.721C32.3212 34.496 32.3732 34.184 32.5982 34.023C32.8242 33.863 33.1352 33.914 33.2962 34.139L36.3312 38.38C36.4922 38.605 36.4402 38.917 36.2152 39.078C36.1272 39.14 36.0252 39.171 35.9242 39.171Z" fill="black"/>
<path d="M32.7549 38.11C32.5029 38.11 32.2869 37.921 32.2579 37.665C32.2279 37.391 32.4259 37.144 32.6999 37.113L34.9329 36.867C35.2089 36.836 35.4539 37.035 35.4849 37.309C35.5149 37.583 35.3169 37.83 35.0429 37.861L32.8099 38.107C32.7909 38.109 32.7729 38.11 32.7549 38.11Z" fill="black"/>
<path d="M54.9759 47.841L55.8099 56.067C55.8099 56.067 52.7909 58.075 48.8249 58.513C43.4699 59.105 41.3629 56.092 41.3629 56.092L40.5029 46.437L54.9759 47.841Z" fill="#F27E64"/>
<path d="M54.9742 47.829C54.9742 47.829 53.0262 54.733 46.8522 54.391C41.8752 54.115 39.8232 47.287 39.8232 47.287L54.9742 47.829Z" fill="black"/>
<path d="M36.1612 25.935C36.1612 25.935 34.1282 41.323 39.0662 47.594C44.3622 54.318 51.6162 51.487 54.2062 49.082C57.6992 45.838 58.0962 41.752 58.0962 41.752C58.0962 41.752 63.3652 42.299 64.6962 37.92C66.0942 33.32 62.5402 30.045 59.9332 30.076C57.3262 30.106 57.0682 30.605 57.0682 30.605L57.3862 25.802C57.3842 25.802 40.0262 9.788 36.1612 25.935Z" fill="#F27E64"/>
<path d="M58.5091 37.389C58.3841 37.389 58.2581 37.342 58.1611 37.248C57.9631 37.056 57.9571 36.74 58.1491 36.541L61.8211 32.745C62.0131 32.547 62.3301 32.542 62.5281 32.733C62.7261 32.925 62.7321 33.241 62.5401 33.44L58.8681 37.236C58.7701 37.339 58.6401 37.389 58.5091 37.389Z" fill="black"/>
<path d="M62.2542 37.676C62.1652 37.676 62.0742 37.652 61.9922 37.602L59.4712 36.05C59.2362 35.905 59.1632 35.597 59.3072 35.362C59.4512 35.127 59.7592 35.052 59.9952 35.198L62.5162 36.75C62.7512 36.895 62.8242 37.203 62.6792 37.438C62.5862 37.591 62.4222 37.676 62.2542 37.676Z" fill="black"/>
<path d="M50.3378 33.953C50.0698 33.953 49.8478 33.74 49.8388 33.47L49.7508 30.921C49.7408 30.645 49.9578 30.414 50.2328 30.404C50.5078 30.375 50.7398 30.611 50.7498 30.886L50.8378 33.435C50.8478 33.711 50.6308 33.942 50.3558 33.952C50.3498 33.953 50.3438 33.953 50.3378 33.953Z" fill="black"/>
<path d="M40.5859 34.326C40.3179 34.326 40.0959 34.114 40.0869 33.843L39.9989 31.294C39.9889 31.018 40.2049 30.787 40.4809 30.777C40.7619 30.763 40.9879 30.983 40.9979 31.259L41.0859 33.808C41.0959 34.084 40.8799 34.315 40.6039 34.325C40.5969 34.326 40.5909 34.326 40.5859 34.326Z" fill="black"/>
<path d="M45.6922 40.633C45.4762 40.633 45.2772 40.492 45.2132 40.275C44.0482 36.34 45.0242 32.966 45.0662 32.825C45.1452 32.561 45.4222 32.408 45.6872 32.489C45.9522 32.567 46.1032 32.845 46.0252 33.11C46.0162 33.142 45.0942 36.352 46.1722 39.991C46.2502 40.256 46.0992 40.534 45.8352 40.613C45.7862 40.627 45.7392 40.633 45.6922 40.633Z" fill="black"/>
<path d="M38.8519 29.124C38.7279 29.124 38.6039 29.078 38.5069 28.986C38.3069 28.795 38.2999 28.479 38.4899 28.279C39.5049 27.216 41.3399 27.061 41.4169 27.055C41.6939 27.036 41.9319 27.239 41.9539 27.514C41.9759 27.789 41.7699 28.03 41.4949 28.052C41.4799 28.053 39.9609 28.185 39.2129 28.969C39.1149 29.072 38.9839 29.124 38.8519 29.124Z" fill="black"/>
<path d="M51.3831 28.916C51.2971 28.916 51.2111 28.894 51.1321 28.848C50.1961 28.302 48.7001 28.596 48.6851 28.599C48.4141 28.652 48.1511 28.48 48.0951 28.209C48.0401 27.938 48.2141 27.675 48.4841 27.619C48.5611 27.604 50.3671 27.243 51.6361 27.984C51.8751 28.123 51.9551 28.429 51.8161 28.667C51.7231 28.827 51.5551 28.916 51.3831 28.916Z" fill="black"/>
<path d="M58.2618 30.519C58.2618 30.519 57.0698 35.317 56.4498 35.183C55.8298 35.05 56.1598 27.627 57.8828 27.168C59.6058 26.709 58.2618 30.519 58.2618 30.519Z" fill="black"/>
<path d="M46.4408 44.982C46.1738 44.982 45.9538 44.771 45.9418 44.502C45.9308 44.227 46.1458 43.994 46.4208 43.982C46.5248 43.978 48.9688 43.848 49.9218 41.754C50.0368 41.503 50.3338 41.392 50.5838 41.506C50.8348 41.62 50.9458 41.917 50.8318 42.168C49.6198 44.831 46.5878 44.976 46.4598 44.981C46.4538 44.982 46.4468 44.982 46.4408 44.982Z" fill="black"/>
<path d="M57.4608 29.9C57.4608 29.9 52.2098 29.69 48.5838 27.131C45.5218 24.97 44.2328 21.748 44.2328 21.748C44.2328 21.748 41.9708 21.558 38.8508 23.671C35.7308 25.784 35.7448 31.887 35.7448 31.887C35.7448 31.887 29.3688 21.823 32.0308 18.047C34.6928 14.271 39.4448 17.103 39.4448 17.103C39.4448 17.103 38.3318 10.39 47.7878 12.593C57.2438 14.796 59.7318 22.767 59.7318 22.767C59.7318 22.767 62.9078 22.347 63.4328 25.284C63.9568 28.221 62.8848 31.277 62.8848 31.277C62.8848 31.277 61.4398 30.021 59.3418 30.904C57.2438 31.787 57.2438 31.787 57.2438 31.787L57.4608 29.9Z" fill="black"/>
<path d="M41.4558 53.244C41.4558 53.244 43.2738 54.968 47.4798 55.073C51.6858 55.178 55.3748 51.779 55.3748 51.779L58.0848 56.751L51.3838 60.842L40.1538 59.898V54.863L41.4558 53.244Z" fill="#7C6053"/>
<path d="M46.0948 61.354C41.5498 61.354 39.0698 58.031 39.0408 57.99C38.8788 57.767 38.9278 57.455 39.1508 57.293C39.3728 57.13 39.6858 57.179 39.8488 57.401C39.9778 57.576 43.0708 61.686 48.8508 59.922C49.1168 59.842 49.3948 59.991 49.4748 60.255C49.5548 60.519 49.4058 60.798 49.1418 60.879C48.0428 61.215 47.0258 61.354 46.0948 61.354Z" fill="white"/>
</svg>
