<svg width="133" height="132" viewBox="0 0 133 132" fill="none" xmlns="http://www.w3.org/2000/svg">
<path d="M99.8426 99.0212C118.049 80.8144 118.049 51.2952 99.8426 33.0884C81.6358 14.8815 52.1166 14.8815 33.9098 33.0884C15.7029 51.2952 15.7029 80.8144 33.9098 99.0212C52.1166 117.228 81.6358 117.228 99.8426 99.0212Z" fill="#EDDDD6"/>
<path d="M44.28 106.833C38.74 103.783 33.89 99.613 30.02 94.643C34.483 88.17 46.06 78.795 52.36 76.703C60.363 74.046 48.57 92.453 44.28 106.833Z" fill="#7772D3"/>
<path d="M77.6218 47.081C79.9858 46.782 82.4228 47.279 84.3648 48.661C86.0658 49.871 87.6948 51.887 88.2788 55.238C89.6828 63.282 86.7998 65.506 91.3988 68.534C95.9978 71.562 98.5958 69.706 101.501 77.195C104.405 84.684 99.9408 94.719 90.6448 92.69C81.3488 90.661 58.8058 84.515 58.8058 84.515L57.7588 51.201L69.0408 48.164L77.6218 47.081Z" fill="#E56445"/>
<path d="M92.32 105.113C87.56 108.223 82.2 110.483 76.45 111.683C73.35 112.333 70.15 112.673 66.86 112.673C65.45 112.673 64.05 112.613 62.67 112.483C60.43 112.283 58.24 111.923 56.1 111.413C51.91 110.423 47.95 108.873 44.28 106.833C40.3 104.643 36.68 101.873 33.52 98.643C34.89 94.833 36.33 91.473 37.79 89.023C44.74 77.363 54.89 76.263 54.89 76.263C65.76 73.073 75.04 72.503 84.9 77.303C89.33 79.453 91.47 91.923 92.32 105.113Z" fill="#7772D3"/>
<path d="M87.4402 102.973L87.1503 108.033C83.7903 109.663 80.2003 110.903 76.4503 111.683C73.3503 112.333 70.1502 112.673 66.8602 112.673C65.4502 112.673 64.0502 112.613 62.6702 112.483C60.4302 112.283 58.2402 111.923 56.1002 111.413C51.9102 110.423 47.9503 108.873 44.2803 106.833C44.0803 106.723 43.8802 106.613 43.6902 106.493C41.5002 105.263 39.4302 103.843 37.4902 102.253C43.7302 89.263 52.3602 76.703 52.3602 76.703L65.5103 73.963L82.2502 76.823L87.4402 102.973Z" fill="#46467F"/>
<path d="M52.3599 76.703C52.3599 76.703 47.1299 93.713 43.6899 106.493C41.3799 105.193 39.2099 103.683 37.1699 102.003L48.28 79.883L52.3599 76.703Z" fill="#7772D3"/>
<path d="M48.2808 53.826C48.2808 53.826 43.8018 46.564 44.1518 43.439C45.0128 35.733 55.8258 30.392 66.6248 34.022C77.4238 37.652 79.6298 51.065 77.9428 56.905C73.6008 71.944 60.4748 66.723 60.4748 66.723C60.4748 66.723 40.0688 62.927 48.2808 53.826Z" fill="#E56445"/>
<path d="M51.8892 69.876L51.9112 70.156L52.5182 75.412L52.9772 79.534C52.9772 79.534 52.6922 80.52 57.4822 79.869C63.9002 78.972 65.7842 76.055 65.7842 76.055L65.3762 66.345L63.4472 66.855L51.8892 69.876Z" fill="#FCA397"/>
<path d="M51.9102 70.156L52.5172 75.412C55.6242 74.811 61.2332 73.052 63.1902 67.96C63.3392 67.547 63.4312 67.178 63.4482 66.876L51.9252 70.075L51.9102 70.156Z" fill="black"/>
<path d="M48.0879 45.066C48.0879 45.066 43.0569 59.216 45.7609 66.776C48.4649 74.336 55.4058 72.627 59.5058 70.84C63.6049 69.053 65.3749 66.337 65.3749 66.337C65.3749 66.337 69.3959 67.392 71.7649 63.555C74.1339 59.718 72.2219 55.638 69.9119 54.835C67.6019 54.032 65.0489 55.839 65.0489 55.839L66.8578 51.702C66.8578 51.702 56.6369 32.048 48.0879 45.066Z" fill="#FCA397"/>
<path d="M49.9171 62.527C49.7181 62.527 49.5301 62.407 49.4521 62.211C48.3061 59.319 50.1591 56.15 50.2381 56.017C50.3801 55.78 50.6861 55.704 50.9231 55.843C51.1601 55.984 51.2381 56.29 51.0981 56.528C51.0811 56.556 49.4191 59.412 50.3821 61.843C50.4841 62.1 50.3581 62.39 50.1021 62.492C50.0411 62.516 49.9791 62.527 49.9171 62.527Z" fill="black"/>
<path d="M66.0959 62.293C65.9859 62.293 65.8739 62.257 65.7809 62.182C65.5659 62.008 65.5328 61.694 65.7068 61.479L69.1289 57.242C69.3019 57.027 69.6158 56.994 69.8318 57.167C70.0468 57.341 70.0799 57.655 69.9059 57.87L66.4839 62.107C66.3859 62.229 66.2409 62.293 66.0959 62.293Z" fill="black"/>
<path d="M69.9598 60.93C69.9228 60.928 67.3157 60.737 67.3157 60.737C67.0407 60.717 66.8338 60.477 66.8528 60.202C66.8738 59.926 67.1397 59.722 67.3877 59.74L69.9947 59.931C70.2697 59.951 70.4768 60.191 70.4578 60.466C70.4388 60.729 70.2188 60.93 69.9598 60.93Z" fill="black"/>
<path d="M54.4099 66.419C53.0719 66.419 51.9489 65.453 51.8879 65.398C51.7579 65.285 51.6959 65.112 51.7239 64.942C51.7509 64.772 51.8649 64.628 52.0239 64.561L57.2509 62.364C57.4199 62.291 57.6199 62.321 57.7629 62.439C57.9059 62.558 57.9719 62.746 57.9339 62.927C57.9159 63.012 57.4789 65.013 55.7629 66.043C55.3079 66.315 54.8479 66.419 54.4099 66.419ZM53.2809 65.117C53.8199 65.385 54.5729 65.59 55.2459 65.186C55.8799 64.806 56.2959 64.236 56.5589 63.74L53.2809 65.117Z" fill="black"/>
<path d="M57.742 51.844C57.575 51.844 57.411 51.76 57.316 51.606C56.626 50.485 55.03 50.937 54.962 50.956C54.7 51.032 54.419 50.882 54.342 50.618C54.264 50.354 54.413 50.076 54.678 49.998C54.775 49.969 57.074 49.307 58.167 51.082C58.312 51.317 58.238 51.625 58.004 51.77C57.923 51.82 57.832 51.844 57.742 51.844Z" fill="black"/>
<path d="M47.0521 51.081C46.9271 51.081 46.8011 51.034 46.7041 50.94C46.5061 50.748 46.5001 50.431 46.6921 50.233C46.7371 50.187 47.8121 49.116 49.0231 49.165C49.6251 49.192 50.1701 49.49 50.5991 50.024C50.7721 50.239 50.7381 50.554 50.5231 50.727C50.3071 50.899 49.9941 50.866 49.8201 50.651C49.5681 50.338 49.2931 50.178 48.9771 50.164C48.1971 50.118 47.4181 50.92 47.4111 50.929C47.3131 51.03 47.1831 51.081 47.0521 51.081Z" fill="black"/>
<path d="M48.1043 56.905C47.7933 56.885 47.5853 56.646 47.6043 56.371L47.7673 54.01L46.8522 53.041C46.6632 52.84 46.6713 52.524 46.8723 52.334C47.0733 52.145 47.3922 52.154 47.5792 52.355L48.6442 53.483C48.7402 53.585 48.7903 53.721 48.7803 53.86L48.6022 56.439C48.5832 56.704 48.3633 56.905 48.1043 56.905Z" fill="black"/>
<path d="M56.7201 56.915C56.4191 56.901 56.2072 56.666 56.2212 56.39L56.3371 54.056L54.9921 52.922C54.7811 52.744 54.7541 52.428 54.9321 52.217C55.1111 52.006 55.4261 51.981 55.6361 52.157L57.1701 53.451C57.2891 53.552 57.3551 53.702 57.3471 53.858L57.2182 56.44C57.2062 56.706 56.9841 56.915 56.7201 56.915Z" fill="black"/>
<path d="M71.9661 42.52C71.9661 42.52 70.0972 26.074 81.3922 27.595C93.3572 29.206 82.5701 48.502 74.9251 47.646C71.5221 47.265 71.9661 42.52 71.9661 42.52Z" fill="#E56445"/>
<path d="M52.5932 80.781C52.2222 80.781 51.9962 80.771 51.9482 80.769C51.6722 80.755 51.4602 80.52 51.4732 80.245C51.4862 79.97 51.7122 79.748 51.9962 79.77C52.0652 79.773 58.9892 80.068 64.6172 76.728C64.8532 76.588 65.1612 76.665 65.3022 76.903C65.4442 77.141 65.3662 77.448 65.1272 77.589C60.1962 80.516 54.4942 80.781 52.5932 80.781Z" fill="#F7734F"/>
<path d="M99.7999 99.053C91.3599 107.463 79.7199 112.673 66.8599 112.673C65.4499 112.673 64.0499 112.613 62.6699 112.483C63.5299 107.683 64.46 104.393 64.46 104.393L76.28 74.493C76.28 74.493 88.0399 74.753 95.9199 86.813C97.6199 89.423 98.9799 93.793 99.7999 99.053Z" fill="#7772D3"/>
<path d="M76.4501 111.683C73.3501 112.333 70.1501 112.673 66.8601 112.673C65.4501 112.673 64.0501 112.613 62.6701 112.483C60.4301 112.283 58.2401 111.923 56.1001 111.413C60.2901 93.703 65.7831 73.976 65.7831 73.976L76.2802 74.493L76.4501 111.683Z" fill="#7772D3"/>
<path d="M77.6211 47.581C77.3671 47.581 77.1501 47.388 77.1241 47.13C76.4171 39.987 71.6421 37.45 71.5941 37.425C71.3481 37.299 71.2511 36.997 71.3781 36.752C71.5051 36.506 71.8071 36.41 72.0511 36.537C72.2681 36.648 77.3591 39.353 78.1201 47.032C78.1461 47.307 77.9461 47.552 77.6711 47.579C77.6541 47.58 77.6381 47.581 77.6211 47.581Z" fill="white"/>
<path d="M55.1061 39.236C55.1061 39.236 53.3981 41.433 53.1661 44.977C52.9341 48.52 52.9341 48.52 52.9341 48.52L67.6031 52.795L67.9001 45.696L55.1061 39.236Z" fill="#E56445"/>
<path d="M53.8891 41.583C53.8891 41.583 52.6001 42.707 52.0181 44.213C51.4361 45.719 50.8261 48.708 50.8261 48.708L46.5791 48.232L47.0631 40.818L52.7921 37.31L56.2531 37.698L55.7181 42.473L53.8891 41.583Z" fill="#E56445"/>
</svg>
