<svg width="94" height="95" viewBox="0 0 94 95" fill="none" xmlns="http://www.w3.org/2000/svg">
<path d="M93.6958 47.46C93.6958 58.66 89.7458 68.93 83.1658 76.97C81.9658 78.44 80.6758 79.83 79.3058 81.14C76.5758 83.76 73.5358 86.04 70.2258 87.93C63.4058 91.84 55.5058 94.08 47.0758 94.08C44.2758 94.08 41.5358 93.83 38.8758 93.36C36.7658 92.99 34.7058 92.47 32.7058 91.81C26.5458 89.83 20.9458 86.59 16.2058 82.39C6.5358 73.86 0.445801 61.37 0.445801 47.46C0.445801 21.71 21.3258 0.829956 47.0758 0.829956C72.8158 0.829956 93.6958 21.71 93.6958 47.46Z" fill="#EDDDD6"/>
<path d="M39.9738 22.492C39.9738 22.492 30.9968 16.408 20.3778 22.304C9.75885 28.201 13.0888 39.141 13.0888 39.141C13.0888 39.141 4.76285 49.58 8.65385 59.95C12.5448 70.32 29.8428 73.27 37.5248 61.574C45.2068 49.878 33.0098 39.451 33.0098 39.451C33.0098 39.451 42.9048 39.397 39.9738 22.492Z" fill="#E56445"/>
<path d="M83.1661 76.97C81.9661 78.44 80.6761 79.83 79.3061 81.14C76.5761 83.76 73.5361 86.04 70.2261 87.93C70.3161 74.29 75.6661 65.12 75.6661 65.12C76.0361 65.8 78.8161 70.82 83.1661 76.97Z" fill="#FCA397"/>
<path d="M64.6639 31.704C64.6639 31.704 68.4989 19.843 67.9749 16.843C67.4509 13.843 54.8689 9.97096 44.8709 14.632C34.8729 19.293 34.2009 32.438 36.4549 37.875C42.2599 51.876 54.3239 45.432 54.3239 45.432C54.3239 45.432 73.5489 39.573 64.6639 31.704Z" fill="#E56445"/>
<path d="M79.3061 81.14C76.5761 83.76 73.5361 86.04 70.2261 87.93C63.4061 91.84 55.5061 94.08 47.0761 94.08C44.2761 94.08 41.5361 93.83 38.8761 93.36C36.7661 92.99 34.7061 92.47 32.7061 91.81C33.2161 81.92 33.8861 71.72 34.7161 64.86C35.2461 60.47 35.8461 57.45 36.5161 56.74C37.1161 56.1 38.3161 55.5 39.9761 55C42.5461 54.23 46.1461 53.71 50.1361 53.68C54.2461 53.63 58.7461 54.11 62.9261 55.35C66.7161 56.49 70.2461 58.25 72.9461 60.85C73.9861 61.85 74.8961 63.3 75.6661 65.12C77.4161 69.15 78.5561 74.83 79.3061 81.14Z" fill="#507849"/>
<path d="M62.9169 47.216L62.9269 47.51L62.9199 53.059L62.9319 57.409C62.9319 57.409 63.3279 58.404 58.4909 58.279C52.0079 58.085 49.8049 55.262 49.8049 55.262L49.1089 45.093L51.0849 45.402L62.9169 47.216Z" fill="#FCA397"/>
<path d="M62.9369 47.808L62.9219 52.931C59.8669 52.688 54.2799 51.603 51.8469 46.915C51.6589 46.533 51.5309 46.189 51.4819 45.899L62.9159 47.731L62.9369 47.808Z" fill="black"/>
<path d="M63.901 23.254C63.901 23.254 70.272 36.325 68.488 43.892C66.703 51.459 59.84 50.565 55.703 49.289C51.566 48.013 49.569 45.591 49.569 45.591C49.569 45.591 45.814 47.041 43.119 43.605C40.424 40.169 41.823 36.037 43.959 35.014C46.095 33.991 48.746 35.454 48.746 35.454L46.558 31.669C46.558 31.669 54.267 11.652 63.901 23.254Z" fill="#FCA397"/>
<path d="M63.9768 40.272C63.9338 40.272 63.8897 40.266 63.8457 40.254C63.5787 40.182 63.4218 39.907 63.4938 39.641C64.1548 37.206 62.2518 34.643 62.2328 34.618C62.0668 34.397 62.1097 34.084 62.3307 33.918C62.5497 33.751 62.8638 33.793 63.0308 34.015C63.1218 34.135 65.2508 36.991 64.4598 39.904C64.3978 40.125 64.1958 40.272 63.9768 40.272Z" fill="black"/>
<path d="M48.3831 41.796C48.2561 41.796 48.1291 41.748 48.0311 41.651L44.2801 37.944C44.0841 37.75 44.0821 37.433 44.2761 37.237C44.4701 37.042 44.7861 37.038 44.9831 37.233L48.7341 40.94C48.9301 41.134 48.9321 41.451 48.7381 41.647C48.6411 41.746 48.5121 41.796 48.3831 41.796Z" fill="black"/>
<path d="M44.5182 40.902C44.2822 40.902 44.0722 40.734 44.0272 40.494C43.9762 40.223 44.1552 39.962 44.4262 39.911L46.9152 39.444C47.1892 39.395 47.4482 39.573 47.4982 39.844C47.5492 40.115 47.3712 40.376 47.0992 40.427L44.6102 40.894C44.5792 40.899 44.5482 40.902 44.5182 40.902Z" fill="black"/>
<path d="M59.8369 44.515C59.4989 44.515 59.1439 44.448 58.7809 44.283C57.0129 43.474 56.3719 41.591 56.3459 41.512C56.2869 41.335 56.3319 41.141 56.4609 41.007C56.5899 40.873 56.7819 40.822 56.9609 40.875L62.2279 42.423C62.3929 42.472 62.5219 42.602 62.5679 42.768C62.6139 42.934 62.5719 43.113 62.4559 43.24C62.3979 43.302 61.2719 44.515 59.8369 44.515ZM57.8089 42.165C58.1139 42.603 58.5669 43.085 59.1959 43.372C59.8719 43.683 60.5549 43.421 61.0389 43.114L57.8089 42.165Z" fill="black"/>
<path d="M55.291 30.839C55.22 30.839 55.147 30.823 55.079 30.791C54.829 30.674 54.722 30.376 54.84 30.126C55.705 28.288 58.001 28.68 58.097 28.695C58.368 28.744 58.548 29.003 58.5 29.274C58.452 29.544 58.19 29.725 57.921 29.679C57.855 29.666 56.28 29.41 55.743 30.551C55.658 30.732 55.479 30.839 55.291 30.839Z" fill="black"/>
<path d="M62.4301 29.055C62.3381 29.055 62.2461 29.03 62.1621 28.977C61.9291 28.83 61.8601 28.521 62.0081 28.288C62.3661 27.724 62.8621 27.376 63.4431 27.284C64.6191 27.091 65.7661 28.022 65.8141 28.062C66.0271 28.237 66.0571 28.551 65.8821 28.764C65.7071 28.977 65.3921 29.009 65.1791 28.834C64.9461 28.644 64.2171 28.177 63.5981 28.27C63.3021 28.318 63.0591 28.498 62.8541 28.822C62.7571 28.973 62.5951 29.055 62.4301 29.055Z" fill="black"/>
<path d="M65.1142 34.666C64.8772 34.666 64.6672 34.4971 64.6232 34.2561L64.1722 31.794C64.1472 31.657 64.1802 31.5161 64.2642 31.4031L65.1672 30.201C65.3342 29.981 65.6472 29.935 65.8672 30.102C66.0882 30.268 66.1322 30.581 65.9672 30.802L65.1952 31.828L65.6062 34.0751C65.6562 34.3461 65.4762 34.6071 65.2042 34.6571C65.1742 34.6631 65.1442 34.666 65.1142 34.666Z" fill="black"/>
<path d="M56.7419 35.515C56.5009 35.515 56.2888 35.341 56.2488 35.095L55.8458 32.624C55.8208 32.471 55.8689 32.314 55.9769 32.2L57.3129 30.79C57.5019 30.589 57.8188 30.582 58.0188 30.77C58.2198 30.96 58.2278 31.277 58.0378 31.477L56.8729 32.707L57.2358 34.934C57.2798 35.206 57.0948 35.463 56.8228 35.507C56.7958 35.513 56.7689 35.515 56.7419 35.515Z" fill="black"/>
<path d="M48.7459 35.454C48.7459 35.454 54.4529 32.272 56.4089 28.013C58.3649 23.754 58.3699 21.652 58.3699 21.652C58.3699 21.652 59.3169 24.368 61.4589 24.94C63.5999 25.512 64.9209 25.539 64.9209 25.539L66.4099 29.394L65.2049 20.12C65.2049 20.12 59.3549 17.252 58.5859 17.279C57.8169 17.306 48.1799 19.383 47.6399 19.987C47.0999 20.591 44.3059 28.23 44.3059 28.23L44.2129 31.64L48.7459 35.454Z" fill="#E56445"/>
<path d="M38.8761 93.36C36.7661 92.99 34.7061 92.47 32.7061 91.81C26.5461 89.83 20.9461 86.59 16.2061 82.39C18.6061 77.37 21.6561 72.86 24.6461 69.07C30.6761 61.44 36.5161 56.74 36.5161 56.74L37.0641 59.275C38.2631 64.825 38.8681 70.489 38.8681 76.167C38.8671 81.868 38.8761 87.348 38.8761 93.36Z" fill="#FCA397"/>
<path d="M58.3142 58.754C52.5152 58.754 48.8082 55.217 48.7592 55.17C48.5622 54.978 48.5582 54.661 48.7512 54.464C48.9442 54.266 49.2602 54.264 49.4582 54.454C49.6952 54.683 55.3572 60.056 63.7742 56.643C64.0282 56.539 64.3212 56.664 64.4252 56.919C64.5292 57.175 64.4052 57.466 64.1502 57.57C62.0412 58.426 60.0802 58.754 58.3142 58.754Z" fill="white"/>
</svg>
