<svg width="95" height="95" viewBox="0 0 95 95" fill="none" xmlns="http://www.w3.org/2000/svg">
<path d="M94.2358 47.46C94.2358 53.47 93.0958 59.22 91.0258 64.5C89.4158 68.62 87.2258 72.44 84.5458 75.89C84.0758 76.51 83.5858 77.11 83.0658 77.7C82.7058 78.13 82.3358 78.55 81.9558 78.97C79.3258 81.84 76.3458 84.39 73.0658 86.52C72.0658 87.17 71.0458 87.79 69.9958 88.36C63.3458 92.01 55.7258 94.08 47.6058 94.08C38.0658 94.08 29.2058 91.21 21.8158 86.3C21.6258 86.17 21.4358 86.04 21.2458 85.9C19.5458 84.75 17.9258 83.48 16.4058 82.09C16.2358 81.94 16.0658 81.79 15.9058 81.63C15.2058 80.99 14.5358 80.33 13.8858 79.65C13.5558 79.3 13.2258 78.95 12.9058 78.59C12.8658 78.54 12.8158 78.49 12.7758 78.44C5.44582 70.21 0.98584 59.36 0.98584 47.46C0.98584 21.71 21.8658 0.829956 47.6058 0.829956C73.3558 0.829956 94.2358 21.71 94.2358 47.46Z" fill="#EDDDD6"/>
<path d="M81.9557 78.97C79.3258 81.84 76.3457 84.39 73.0657 86.52C72.0657 87.17 71.0457 87.79 69.9957 88.36C63.3457 92.01 55.7258 94.08 47.6058 94.08C38.0658 94.08 29.2057 91.21 21.8157 86.3C21.6257 86.17 21.4357 86.04 21.2457 85.9C19.5457 84.75 17.9258 83.48 16.4058 82.09C16.2358 81.94 16.0658 81.79 15.9058 81.63C15.2058 80.99 14.5357 80.33 13.8857 79.65C15.6457 74.34 19.6357 67.54 22.7457 62.67C26.3457 57.03 32.3858 53.41 39.0558 52.91C47.5558 52.29 57.9858 53.56 65.4858 55.04C68.5758 55.65 71.3457 57.85 73.1957 61.15C75.7757 65.75 79.4958 72.75 81.9557 78.97Z" fill="#F7734F"/>
<path d="M59.1571 13.75C59.1571 13.75 58.7441 11.116 61.2591 12.193C63.7741 13.271 62.6961 15.905 61.2591 15.546C59.8221 15.187 59.1571 13.75 59.1571 13.75Z" fill="#7772D3"/>
<path d="M64.0131 30.38C64.0131 30.38 63.619 37.484 60.42 37.811C57.222 38.137 52.5171 34.096 52.5171 34.096L54.722 26.1L64.0131 30.38Z" fill="black"/>
<path d="M39.604 28.359C39.604 28.359 29.166 25.006 27.609 20.575C26.052 16.144 45.776 22.85 45.776 22.85L39.604 28.359Z" fill="#5C5CC6"/>
<path d="M54.7219 43.571L53.9119 54.865C53.9119 54.865 51.8739 58.051 45.3499 58.523C40.4899 58.875 38.7939 57.761 38.7939 57.761L39.5209 52.123L40.2369 46.625L52.0319 44.14L54.7219 43.571Z" fill="#F49282"/>
<path d="M52.032 44.141C52.001 44.445 51.882 44.803 51.699 45.213C49.156 50.757 42.328 51.897 39.521 52.123L40.237 46.625L52.032 44.141Z" fill="black"/>
<path d="M37.9782 21.202C37.9782 21.202 32.0051 35.122 34.2421 42.906C36.4791 50.69 43.5751 49.415 47.8161 47.88C52.0571 46.344 54.0131 43.724 54.0131 43.724C54.0131 43.724 57.9932 45.044 60.6242 41.334C63.2552 37.624 61.5921 33.394 59.3181 32.438C57.0441 31.482 54.3591 33.136 54.3591 33.136L56.4451 29.088C56.4451 29.088 47.4202 8.64699 37.9782 21.202Z" fill="#F49282"/>
<path d="M54.7219 39.2131C54.5659 39.2131 54.41 39.14 54.314 39.001C54.155 38.775 54.209 38.464 54.434 38.305L59.487 34.7391C59.71 34.5791 60.0249 34.632 60.1829 34.859C60.3419 35.085 60.288 35.396 60.063 35.555L55.01 39.121C54.923 39.184 54.8209 39.2131 54.7219 39.2131Z" fill="black"/>
<path d="M59.2978 39.191C59.2558 39.191 59.2118 39.185 59.1688 39.174L55.8708 38.293C55.6038 38.222 55.4448 37.947 55.5168 37.681C55.5878 37.415 55.8588 37.257 56.1288 37.326L59.4268 38.207C59.6938 38.278 59.8528 38.553 59.7808 38.819C59.7218 39.044 59.5198 39.191 59.2978 39.191Z" fill="black"/>
<path d="M47.264 27.893C47.114 27.893 46.9641 27.825 46.8661 27.695C46.4311 27.121 45.9451 26.795 45.4221 26.723C44.6411 26.622 43.9911 27.111 43.9841 27.115C43.7671 27.282 43.4531 27.245 43.2841 27.026C43.1151 26.809 43.1521 26.498 43.3691 26.328C43.4081 26.297 44.348 25.57 45.54 25.731C46.344 25.834 47.0581 26.291 47.6631 27.091C47.8301 27.311 47.787 27.624 47.566 27.791C47.476 27.859 47.369 27.893 47.264 27.893Z" fill="black"/>
<path d="M36.4602 26.9C36.3142 26.9 36.1712 26.837 36.0712 26.715C35.8972 26.5 35.9302 26.186 36.1442 26.011C36.8182 25.466 37.4452 25.246 37.9982 25.353C38.6002 25.471 38.8682 25.929 38.8962 25.981C39.0292 26.223 38.9402 26.528 38.6992 26.661C38.4602 26.79 38.1612 26.71 38.0262 26.475C38.0142 26.457 37.9412 26.357 37.7922 26.333C37.6502 26.306 37.3282 26.339 36.7742 26.789C36.6832 26.864 36.5712 26.9 36.4602 26.9Z" fill="black"/>
<path d="M38.4151 38.4501C38.1941 38.4501 37.9921 38.303 37.9331 38.08C37.1391 35.125 38.2531 32.1 38.3011 31.973C38.3981 31.714 38.6871 31.584 38.9431 31.681C39.2021 31.778 39.3331 32.066 39.2361 32.324C39.2261 32.352 38.1891 35.1821 38.8971 37.8211C38.9691 38.0881 38.8111 38.3621 38.5451 38.4331C38.5011 38.4441 38.4581 38.4501 38.4151 38.4501Z" fill="black"/>
<path d="M36.4618 32.24C36.4168 32.24 36.3708 32.234 36.3258 32.222C36.0598 32.147 35.9048 31.87 35.9798 31.605L36.7008 29.055C36.7758 28.788 37.0548 28.633 37.3178 28.709C37.5838 28.784 37.7389 29.06 37.6639 29.326L36.9428 31.876C36.8808 32.097 36.6808 32.24 36.4618 32.24Z" fill="black"/>
<path d="M44.64 32.465C44.595 32.465 44.5491 32.459 44.5041 32.446C44.2381 32.371 44.0831 32.094 44.1581 31.829L44.878 29.279C44.953 29.013 45.231 28.859 45.495 28.933C45.761 29.008 45.916 29.2849 45.841 29.5499L45.121 32.1C45.059 32.321 44.859 32.465 44.64 32.465Z" fill="black"/>
<path d="M37.1821 23.224C37.1821 23.224 38.0071 22.112 40.7871 22.117C43.5671 22.123 45.1731 24.095 45.1731 24.095C45.1731 24.095 45.4061 29.135 49.1641 31.655C52.9221 34.175 54.3591 33.137 54.3591 33.137L57.1101 32.184L59.1571 28.195L51.3011 19.576L41.8601 15.546L37.1831 20.747L37.1821 23.224Z" fill="black"/>
<path d="M41.2281 41.69C41.0491 41.69 40.9351 41.679 40.9141 41.676C40.6401 41.648 40.4411 41.403 40.4701 41.129C40.4971 40.855 40.7461 40.651 41.0171 40.682C41.1041 40.687 43.2681 40.874 44.2021 38.926C44.3231 38.677 44.6211 38.574 44.8701 38.692C45.1191 38.812 45.2241 39.111 45.1041 39.36C44.0871 41.477 42.0191 41.69 41.2281 41.69Z" fill="black"/>
<path d="M36.8223 20.153C36.8223 20.153 40.7603 8.96 54.7213 11.355C68.6823 13.75 64.0123 31.5 64.0123 31.5L57.6483 29.434L36.8223 20.153Z" fill="#7772D3"/>
<path d="M32.7607 19.363C32.7607 19.363 37.6488 19.541 50.2418 25.372C54.5828 27.382 58.3688 29.73 58.3688 29.73C58.3688 29.73 43.8728 23.642 38.2388 23.711C36.0758 23.737 34.6747 24.547 34.6747 24.547L32.7607 19.363Z" fill="#5C5CC6"/>
<path d="M43.0582 58.898C40.5762 58.898 38.8342 58.496 38.6772 58.458C38.4092 58.394 38.2432 58.124 38.3072 57.855C38.3712 57.586 38.6391 57.422 38.9101 57.485C38.9931 57.505 47.2392 59.396 53.6152 54.674C53.8382 54.51 54.1512 54.557 54.3142 54.777C54.4792 55 54.4322 55.312 54.2102 55.476C50.4482 58.264 46.1722 58.898 43.0582 58.898Z" fill="#46467F"/>
</svg>
