<svg width="94" height="94" viewBox="0 0 94 94" fill="none" xmlns="http://www.w3.org/2000/svg">
<path d="M93.9661 47.05C93.9661 55.56 91.6861 63.54 87.6961 70.41C87.5461 70.67 87.3861 70.93 87.2261 71.19C86.8561 71.81 86.4661 72.43 86.0561 73.03C85.8861 73.28 85.7161 73.53 85.5261 73.78C79.4461 82.49 70.4461 88.99 59.9661 91.94C59.7461 92 59.5161 92.06 59.2961 92.12C55.4861 93.13 51.4761 93.67 47.3461 93.67C31.2361 93.67 17.0261 85.5 8.67607 73.07C7.88607 71.92 7.15607 70.72 6.48607 69.5C2.81607 62.84 0.726074 55.19 0.726074 47.05C0.726074 21.3 21.5961 0.429993 47.3461 0.429993C73.0961 0.429993 93.9661 21.3 93.9661 47.05Z" fill="#EDDDD6"/>
<path d="M27.3612 40.696C27.3612 40.696 22.3662 14.197 41.7572 9.346C61.1482 4.495 62.3152 32.016 62.3152 32.016C62.3152 32.016 83.4171 36.031 83.5551 56.551C83.7271 82.197 58.9402 77.886 58.9402 77.886L35.4632 68.324C35.4632 68.324 11.9482 55.518 27.3612 40.696Z" fill="black"/>
<path d="M85.5258 73.78C79.4458 82.49 70.4458 88.99 59.9658 91.94C59.7458 92 59.5158 92.06 59.2958 92.12C55.4858 93.13 51.4758 93.67 47.3458 93.67C31.2358 93.67 17.0258 85.5 8.67578 73.07C14.9358 64.51 22.7858 58.03 28.1258 55.73C36.0258 52.33 48.5558 50.05 60.1258 53.36C60.1558 53.37 60.1958 53.37 60.2358 53.38C63.7158 54.38 67.0958 55.88 70.2458 58.01C77.0558 62.61 82.0158 67.95 85.5258 73.78Z" fill="#F7734F"/>
<path d="M38.189 45.313L38.191 45.596L38.429 50.936L38.599 55.123C38.599 55.123 38.241 56.097 43.116 55.781C49.648 55.333 51.754 52.526 51.754 52.526L52.032 42.711L50.052 43.088L38.189 45.313Z" fill="#FCA397"/>
<path d="M38.1899 45.596L38.4279 50.936C41.6019 50.55 47.3799 49.176 49.7129 44.183C49.8929 43.777 50.0109 43.412 50.0499 43.108L38.2089 45.514L38.1899 45.596Z" fill="black"/>
<path d="M36.1201 20.038C36.1201 20.038 30.0451 33.942 32.2341 41.754C34.4231 49.565 41.5401 48.336 45.7981 46.826C50.0561 45.316 52.0331 42.705 52.0331 42.705C52.0331 42.705 56.0111 44.054 58.6711 40.355C61.3321 36.656 59.6941 32.408 57.4221 31.435C55.1511 30.462 52.4501 32.102 52.4501 32.102L54.5671 28.061C54.5671 28.061 45.6601 7.524 36.1201 20.038Z" fill="#FCA397"/>
<path d="M38.0049 17.979C38.0049 17.979 37.5649 25.377 45.0069 28.739C52.4489 32.101 57.4209 31.434 57.4209 31.434L56.9379 21.786L47.6219 11.667L39.2939 14.321L38.0049 17.979Z" fill="black"/>
<path d="M51.9458 29.967L51.9738 34.179L55.7208 30.484L51.9458 29.967Z" fill="black"/>
<path d="M87.2259 71.19C86.8559 71.81 86.4659 72.43 86.0559 73.03C85.8859 73.28 85.7159 73.53 85.5259 73.78C79.4459 82.49 70.4459 88.99 59.9659 91.94C59.7459 92 59.5159 92.06 59.2959 92.12L59.9359 53.33C59.9359 53.33 60.0059 53.34 60.1259 53.36C60.1559 53.37 60.1959 53.37 60.2359 53.38C62.5359 53.77 77.6059 56.75 85.6959 68.61C86.2459 69.4 86.7459 70.27 87.2259 71.19Z" fill="#F7734F"/>
<path d="M41.7099 56.357C38.7659 56.357 36.5719 55.832 36.3889 55.786C36.1209 55.72 35.9579 55.449 36.0239 55.181C36.0899 54.913 36.3629 54.75 36.6289 54.815C36.7179 54.837 45.5309 56.94 51.5819 52.529C51.8049 52.368 52.1169 52.416 52.2809 52.639C52.4439 52.862 52.3939 53.175 52.1709 53.338C48.8509 55.758 44.8529 56.357 41.7099 56.357Z" fill="#7772D3"/>
<path d="M34.3918 25.116C34.1788 25.116 33.9818 24.979 33.9148 24.765C33.8318 24.501 33.9788 24.221 34.2428 24.139L37.0138 23.273C37.2788 23.19 37.5578 23.336 37.6398 23.601C37.7228 23.865 37.5758 24.145 37.3118 24.227L34.5408 25.093C34.4918 25.108 34.4418 25.116 34.3918 25.116Z" fill="black"/>
<path d="M52.734 38.59C52.599 38.59 52.464 38.536 52.366 38.428C52.18 38.225 52.192 37.908 52.396 37.722L56.6831 33.778C56.8861 33.591 57.2031 33.605 57.3901 33.808C57.5761 34.011 57.5641 34.328 57.3601 34.515L53.0731 38.459C52.9761 38.546 52.855 38.59 52.734 38.59Z" fill="black"/>
<path d="M57.0759 38.071C57.0089 38.071 56.9409 38.057 56.8749 38.029L54.3169 36.906C54.0639 36.795 53.9489 36.5 54.0599 36.247C54.1709 35.995 54.4659 35.879 54.7189 35.99L57.2769 37.113C57.5299 37.224 57.6449 37.519 57.5339 37.772C57.4519 37.96 57.2679 38.071 57.0759 38.071Z" fill="black"/>
<path d="M35.2491 32.129C35.2151 32.129 35.1811 32.126 35.1471 32.119C34.8771 32.063 34.7031 31.798 34.7591 31.528L35.2701 29.067L34.2651 27.909C34.0841 27.701 34.1061 27.385 34.3151 27.204C34.5241 27.022 34.8391 27.046 35.0201 27.254L36.1871 28.599C36.2891 28.717 36.3311 28.875 36.2991 29.028L35.7381 31.732C35.6891 31.967 35.4811 32.129 35.2491 32.129Z" fill="black"/>
<path d="M43.6319 32.556C43.5979 32.556 43.5639 32.552 43.5299 32.546C43.2589 32.49 43.0859 32.225 43.1419 31.955L43.6529 29.494L42.6479 28.336C42.4669 28.128 42.4889 27.812 42.6979 27.631C42.9059 27.449 43.2219 27.472 43.4029 27.681L44.5699 29.026C44.6729 29.144 44.7139 29.302 44.6819 29.455L44.1209 32.159C44.0719 32.394 43.8639 32.556 43.6319 32.556Z" fill="black"/>
<path d="M36.9071 38.234C36.6761 38.234 36.4681 38.072 36.4181 37.837C35.4871 33.391 37.6401 31.152 37.7321 31.059C37.9261 30.862 38.2421 30.86 38.4391 31.055C38.6351 31.248 38.6371 31.564 38.4441 31.761C38.3611 31.847 36.5831 33.749 37.3961 37.632C37.4531 37.903 37.2791 38.167 37.0091 38.224C36.9761 38.231 36.9411 38.234 36.9071 38.234Z" fill="black"/>
<path d="M41.4251 42.512C41.1291 42.512 40.4191 42.374 38.9361 40.734C38.7651 40.544 38.7031 40.287 38.7701 40.046C38.8401 39.795 39.0391 39.598 39.3001 39.519C42.8681 38.452 43.3531 38.816 43.5601 38.973C43.7371 39.106 44.0061 39.43 43.8081 40.094C43.5371 41.005 42.4011 42.449 41.5131 42.509C41.4901 42.51 41.4601 42.512 41.4251 42.512ZM39.9611 40.367C40.7631 41.2 41.3351 41.5 41.4481 41.51C41.5351 41.5 41.8691 41.306 42.2801 40.794C42.6351 40.35 42.8131 39.962 42.8631 39.763C42.5701 39.788 41.6961 39.868 39.9611 40.367Z" fill="black"/>
<path d="M24.7619 70.97C24.7109 71.029 19.9349 76.15 20.8409 85.356C20.5539 85.171 20.2769 84.977 20.0009 84.772C19.9219 84.721 19.8529 84.659 19.7739 84.598C19.1869 75.457 23.9819 70.346 24.0439 70.277C24.2369 70.08 24.5469 70.075 24.7539 70.259C24.9499 70.453 24.9549 70.773 24.7619 70.97Z" fill="#7772D3"/>
</svg>
