<svg width="94" height="95" viewBox="0 0 94 95" fill="none" xmlns="http://www.w3.org/2000/svg">
<path d="M93.876 47.46C93.876 54.54 92.296 61.24 89.476 67.25C82.036 83.1 65.926 94.08 47.256 94.08C31.206 94.08 17.056 85.98 8.66595 73.64C3.59595 66.18 0.625977 57.17 0.625977 47.46C0.625977 21.71 21.506 0.829956 47.256 0.829956C72.996 0.829956 93.876 21.71 93.876 47.46Z" fill="#EDDDD6"/>
<path d="M15.0362 74.188C15.0362 74.188 7.41419 71.894 9.73219 60.75C11.7322 51.135 24.3222 49.672 24.3222 49.672C24.3222 49.672 20.3602 43.727 23.3982 36.534C26.3152 29.628 30.3772 28.317 30.3772 28.317C30.3772 28.317 30.0312 22.719 34.4432 18.326C38.8552 13.933 44.8672 18.535 44.8672 18.535C44.8672 18.535 56.2722 16.052 63.3092 22.108C70.3462 28.164 67.6212 38.587 67.6212 38.587C67.6212 38.587 78.8242 42.632 81.5492 54.474C84.2742 66.316 77.2122 72.675 77.2122 72.675L15.0362 74.188Z" fill="black"/>
<path d="M89.476 67.25C82.036 83.1 65.926 94.08 47.256 94.08C31.206 94.08 17.056 85.98 8.66602 73.64C16.756 62.87 26.846 55.06 39.306 53.96C58.516 52.27 70.586 55.98 83.286 62.79C85.226 63.83 87.326 65.35 89.476 67.25Z" fill="#7772D3"/>
<path d="M53.4201 47.751L53.9121 55.535C53.9121 55.535 51.1211 58.201 47.3671 58.473C42.2981 58.839 40.2641 56.162 40.2641 56.162L39.8281 45.911L53.4201 47.751Z" fill="#F27E64"/>
<path d="M53.4191 47.739C53.4191 47.739 51.3151 55.291 44.9991 53.709C40.4391 52.567 39.8931 46.741 39.8931 46.741L53.4191 47.739Z" fill="black"/>
<path d="M36.469 26.431C36.469 26.431 34.55 40.512 39.448 46.93C44.345 53.349 50.124 51.067 52.651 48.892C56.059 45.959 56.579 42.122 56.579 42.122C56.579 42.122 61.526 42.826 62.937 38.746C64.419 34.461 61.186 31.247 58.728 31.182C56.27 31.117 56.009 31.579 56.009 31.579L56.48 27.063C56.478 27.064 40.689 11.349 36.469 26.431Z" fill="#F27E64"/>
<path d="M39.1861 32.831C39.1861 32.831 31.595 30.074 31.335 35.849C31.033 42.539 38.9881 42.161 38.9881 42.161L39.1861 32.831Z" fill="#F27E64"/>
<path d="M57.2268 31.955C57.2268 31.955 54.7009 33.176 49.0219 29.487C43.3429 25.798 44.6668 20.995 44.6668 20.995C44.6668 20.995 37.4599 26.081 36.1079 32.017C34.7569 37.953 32.9438 18.412 41.4378 18.326C49.9318 18.24 62.9148 23.06 57.2268 31.955Z" fill="black"/>
<path d="M35.7991 39.086C35.6371 39.086 35.4781 39.007 35.3821 38.861L32.6731 34.756C32.5211 34.526 32.5841 34.215 32.8151 34.064C33.0441 33.911 33.3551 33.975 33.5071 34.206L36.2161 38.311C36.3681 38.541 36.3051 38.852 36.0741 39.003C35.9891 39.06 35.8941 39.086 35.7991 39.086Z" fill="black"/>
<path d="M57.1419 38.055C57.0099 38.055 56.8789 38.003 56.7809 37.901C56.5909 37.702 56.5969 37.385 56.7969 37.194L60.3949 33.747C60.5949 33.556 60.9099 33.563 61.1019 33.763C61.2919 33.962 61.2859 34.279 61.0859 34.47L57.4879 37.917C57.3909 38.009 57.2659 38.055 57.1419 38.055Z" fill="black"/>
<path d="M60.6618 38.458C60.5658 38.458 60.4698 38.431 60.3838 38.374L58.0628 36.8211C57.8338 36.6671 57.7718 36.3561 57.9248 36.1271C58.0788 35.8971 58.3878 35.8371 58.6188 35.9891L60.9398 37.542C61.1698 37.696 61.2308 38.007 61.0778 38.236C60.9818 38.38 60.8228 38.458 60.6618 38.458Z" fill="black"/>
<path d="M32.8489 37.973C32.5889 37.973 32.3709 37.772 32.3509 37.509C32.3309 37.234 32.5389 36.994 32.8139 36.974L34.9279 36.822C35.2009 36.796 35.4429 37.01 35.4629 37.285C35.4829 37.56 35.2749 37.8 34.9999 37.82L32.8859 37.972C32.8729 37.973 32.8609 37.973 32.8489 37.973Z" fill="black"/>
<path d="M44.5452 40.8851C44.3152 40.8851 44.1082 40.727 44.0572 40.494C43.2122 36.708 44.3511 33.588 44.4001 33.457C44.4971 33.199 44.7821 33.071 45.0431 33.163C45.3021 33.26 45.4342 33.548 45.3382 33.806C45.3272 33.836 44.2561 36.791 45.0341 40.276C45.0941 40.546 44.9241 40.813 44.6551 40.874C44.6171 40.881 44.5802 40.8851 44.5452 40.8851Z" fill="black"/>
<path d="M46.4278 44.741C44.8858 44.738 43.5748 43.583 43.5198 43.534C43.3748 43.405 43.3178 43.203 43.3748 43.017C43.4308 42.83 43.5888 42.694 43.7808 42.665L48.5528 41.967C48.7328 41.945 48.9158 42.016 49.0268 42.164C49.1358 42.311 49.1568 42.507 49.0788 42.674C49.0378 42.759 48.0918 44.741 46.4278 44.741ZM45.2568 43.461C45.6068 43.618 46.0118 43.74 46.4268 43.741C46.8818 43.741 47.2768 43.448 47.5748 43.122L45.2568 43.461Z" fill="black"/>
<path d="M39.5872 29.655C39.4512 29.655 39.3162 29.6 39.2182 29.492C39.0322 29.289 39.0462 28.972 39.2502 28.786C40.2812 27.844 42.0292 27.817 42.1032 27.816C42.3812 27.816 42.6052 28.037 42.6082 28.311C42.6112 28.586 42.3892 28.812 42.1132 28.816C42.0992 28.816 40.6722 28.841 39.9252 29.524C39.8282 29.612 39.7072 29.655 39.5872 29.655Z" fill="black"/>
<path d="M50.4978 30.128C50.3718 30.128 50.2468 30.081 50.1488 29.986C49.4238 29.281 47.9978 29.212 47.9838 29.212C47.7088 29.199 47.4939 28.967 47.5059 28.691C47.5169 28.416 47.7418 28.208 48.0248 28.212C48.0988 28.215 49.8448 28.296 50.8468 29.27C51.0448 29.462 51.0488 29.779 50.8568 29.977C50.7588 30.077 50.6278 30.128 50.4978 30.128Z" fill="black"/>
<path d="M46.7282 59.325C46.7052 59.325 46.6822 59.325 46.6592 59.325C40.3152 59.295 39.0122 55.607 38.9592 55.45C38.8722 55.188 39.0142 54.905 39.2752 54.817C39.5372 54.731 39.8172 54.87 39.9072 55.13C39.9552 55.267 41.0872 58.297 46.6632 58.324C46.6852 58.324 46.7072 58.324 46.7282 58.324C51.7022 58.324 53.5872 55.631 53.6662 55.515C53.8212 55.287 54.1342 55.228 54.3592 55.38C54.5882 55.533 54.6492 55.842 54.4972 56.071C54.4072 56.206 52.2652 59.325 46.7282 59.325Z" fill="#46467F"/>
<path d="M36.108 32.017C36.108 32.017 29.427 23.543 34.444 18.325C39.462 13.106 53.912 10.5 60.739 20.358C65.579 27.347 57.227 31.955 57.227 31.955L47.945 22.432L44.667 20.995L39.186 22.432L36.108 32.017Z" fill="black"/>
<path d="M50.086 34.94C49.793 34.93 49.577 34.699 49.586 34.423L49.658 32.281L48.326 31.29C48.104 31.125 48.058 30.811 48.223 30.59C48.39 30.368 48.702 30.324 48.923 30.487L50.465 31.634C50.596 31.732 50.671 31.888 50.666 32.052L50.585 34.456C50.576 34.728 50.355 34.94 50.086 34.94Z" fill="black"/>
<path d="M41.2891 34.94C40.9961 34.93 40.7801 34.699 40.7891 34.423L40.8611 32.281L39.5291 31.29C39.3071 31.125 39.2611 30.811 39.4261 30.59C39.5921 30.368 39.9061 30.324 40.1261 30.487L41.6681 31.634C41.7991 31.732 41.8741 31.888 41.8691 32.052L41.7881 34.456C41.7791 34.728 41.5581 34.94 41.2891 34.94Z" fill="black"/>
</svg>
