<svg width="95" height="94" viewBox="0 0 95 94" fill="none" xmlns="http://www.w3.org/2000/svg">
<path d="M94.146 47.05C94.146 58.5 90.016 68.99 83.176 77.1C82.316 78.12 81.406 79.11 80.466 80.05C78.946 81.57 77.316 82.99 75.586 84.28C74.746 84.92 73.876 85.53 72.986 86.11C72.886 86.18 72.786 86.24 72.676 86.3C71.416 87.12 70.106 87.88 68.756 88.56C68.446 88.72 68.136 88.88 67.816 89.03C66.366 89.73 64.876 90.36 63.356 90.91C61.336 91.64 59.256 92.24 57.116 92.68C54.016 93.33 50.816 93.67 47.526 93.67C46.116 93.67 44.716 93.61 43.336 93.48C41.896 93.35 40.476 93.16 39.076 92.89C38.296 92.75 37.526 92.59 36.766 92.41C34.546 91.89 32.396 91.21 30.316 90.37C28.466 89.64 26.676 88.79 24.946 87.83C24.746 87.72 24.546 87.61 24.356 87.49C23.176 86.83 22.036 86.12 20.936 85.34C19.986 84.69 19.056 83.99 18.156 83.25C18.046 83.17 17.946 83.09 17.836 83C16.566 81.94 15.346 80.82 14.186 79.64C13.856 79.31 13.536 78.97 13.226 78.63C12.336 77.67 11.486 76.67 10.686 75.64C9.896 74.62 9.14601 73.57 8.44601 72.49C3.67601 65.17 0.895996 56.44 0.895996 47.05C0.895996 21.3 21.776 0.429993 47.526 0.429993C73.276 0.429993 94.146 21.3 94.146 47.05Z" fill="#EDDDD6"/>
<path d="M83.1758 77.1C82.3158 78.12 81.4058 79.11 80.4658 80.05C78.9458 81.57 77.3158 82.99 75.5858 84.28C74.7458 84.92 73.8758 85.53 72.9858 86.11C72.8858 86.18 72.7858 86.24 72.6758 86.3L72.9558 65.8C72.9558 65.8 77.7858 70.3 83.1758 77.1Z" fill="#FFBF69"/>
<path d="M68.7559 88.56C68.4459 88.72 68.1359 88.88 67.8159 89.03C64.4559 90.66 60.8659 91.9 57.1159 92.68C54.0159 93.33 50.8159 93.67 47.5259 93.67C46.1159 93.67 44.7159 93.61 43.3359 93.48C41.8959 93.35 40.4759 93.16 39.0759 92.89C38.2959 92.75 37.5259 92.59 36.7659 92.41C34.5459 91.89 32.3959 91.21 30.3159 90.37L40.0359 57.41C40.0359 57.41 47.6159 56.27 56.2059 57.17C61.8159 57.76 66.3059 75.97 68.7559 88.56Z" fill="#7772D3"/>
<path d="M56.2061 57.17L41.4261 58.1C41.4261 58.1 39.9461 73.46 39.076 92.89C38.296 92.75 37.5261 92.59 36.7661 92.41C32.5761 91.42 28.6161 89.87 24.9461 87.83C24.7461 87.72 24.546 87.61 24.356 87.49C23.176 86.83 22.0361 86.12 20.9361 85.34C19.9861 84.69 19.0561 83.99 18.1561 83.25C18.0461 83.17 17.9461 83.09 17.8361 83C16.5661 81.94 15.3461 80.82 14.1861 79.64C13.8561 79.31 13.5361 78.97 13.2261 78.63C13.5061 72.28 14.3761 67.55 16.1461 65.9C24.0061 58.59 43.5061 56.15 43.5061 56.15L52.6261 56.02C52.6261 56.02 54.0661 56.44 56.2061 57.17Z" fill="#FFBF69"/>
<path d="M75.5858 84.28C74.7458 84.92 73.8758 85.53 72.9858 86.11C71.6258 87 70.2159 87.82 68.7559 88.56C68.4459 88.72 68.1359 88.88 67.8159 89.03C66.3659 89.73 64.8758 90.36 63.3558 90.91C63.3458 90.79 63.3358 90.67 63.3258 90.55C60.7058 63.33 56.4958 57.53 56.2358 57.18C61.8658 59.11 72.3258 63.22 74.2458 67.65C74.9758 69.34 75.3858 75.8 75.5858 84.28Z" fill="#FFBF69"/>
<path d="M46.9209 22.23C46.9209 22.23 37.3159 0.786005 26.3509 11.681C17.1779 20.795 31.4059 34.841 39.6319 30.835C47.8579 26.829 46.9209 22.23 46.9209 22.23Z" fill="black"/>
<path d="M61.556 39.728C61.556 39.728 65.507 35.237 64.255 28.381C63.406 23.733 61.312 22.254 61.312 22.254C61.312 22.254 64.381 15.85 54.986 16.367C45.591 16.884 40.124 21.577 40.124 21.577C40.124 21.577 35.797 19.527 33.94 24.564C32.083 29.601 34.113 36.966 34.113 36.966L61.556 39.728Z" fill="black"/>
<path d="M41.0269 47.763L41.4749 59.235C41.4749 59.235 43.6728 62.452 50.4048 62.735C55.4198 62.946 56.9029 60.317 56.9029 60.317L55.2998 50.326L43.0779 48.134L41.0269 47.763Z" fill="#F27E64"/>
<path d="M41.0171 47.063C41.0581 47.375 41.1921 47.74 41.3941 48.157C44.1851 53.787 53.3111 55.819 56.2091 55.964L55.3001 50.325L41.0171 47.063Z" fill="black"/>
<path d="M56.8359 24.077C56.8359 24.077 63.4189 38.225 61.3569 46.309C59.2949 54.393 51.9489 53.301 47.5349 51.852C43.1209 50.403 41.0249 47.766 41.0249 47.766C41.0249 47.766 36.9679 49.249 34.1429 45.511C31.3179 41.773 32.8989 37.366 35.2109 36.31C37.5219 35.254 40.3389 36.875 40.3389 36.875L38.0649 32.772C38.0649 32.772 46.7239 11.443 56.8359 24.077Z" fill="#F27E64"/>
<path d="M40.3391 36.874C40.3391 36.874 46.5051 38.029 50.6801 31.127C54.8551 24.225 54.4241 21.421 54.4241 21.421L58.7781 28.425C58.7781 28.425 59.6611 23.514 57.6591 20.42C55.6571 17.325 53.6321 18.001 53.6321 18.001L40.1231 21.577L36.7051 32.493L40.3391 36.874Z" fill="black"/>
<path d="M56.5958 42.301C56.5498 42.301 56.5028 42.295 56.4558 42.281C56.1898 42.204 56.0378 41.927 56.1148 41.661C56.8768 39.044 54.8748 36.244 54.8538 36.216C54.6918 35.992 54.7408 35.68 54.9638 35.518C55.1868 35.355 55.4978 35.404 55.6618 35.627C55.7568 35.757 57.9748 38.847 57.0748 41.941C57.0128 42.159 56.8128 42.301 56.5958 42.301Z" fill="black"/>
<path d="M39.837 43.634C39.707 43.634 39.5771 43.584 39.4801 43.483L35.5271 39.433C35.3341 39.236 35.338 38.919 35.535 38.726C35.734 38.534 36.051 38.537 36.242 38.735L40.1951 42.785C40.3881 42.982 40.3851 43.299 40.1871 43.492C40.0891 43.587 39.963 43.634 39.837 43.634Z" fill="black"/>
<path d="M35.7061 42.601C35.4671 42.601 35.2551 42.428 35.2141 42.184C35.1681 41.912 35.3521 41.654 35.6241 41.608L38.3041 41.156C38.5711 41.117 38.8341 41.293 38.8801 41.566C38.9261 41.838 38.7421 42.096 38.4701 42.142L35.7901 42.594C35.7621 42.599 35.7341 42.601 35.7061 42.601Z" fill="black"/>
<path d="M59.1858 30.553C59.1598 30.553 59.1328 30.551 59.1058 30.547L56.5608 30.141C56.2888 30.098 56.1028 29.841 56.1458 29.569C56.1908 29.296 56.4418 29.111 56.7188 29.154L59.2638 29.56C59.5358 29.603 59.7218 29.86 59.6788 30.132C59.6388 30.378 59.4268 30.553 59.1858 30.553Z" fill="black"/>
<path d="M48.6538 32.368C48.4738 32.368 48.3008 32.271 48.2108 32.1C48.0828 31.855 48.1778 31.553 48.4218 31.425L52.5568 29.258C52.8028 29.129 53.1038 29.224 53.2328 29.469C53.3608 29.714 53.2658 30.016 53.0218 30.144L48.8868 32.311C48.8128 32.35 48.7328 32.368 48.6538 32.368Z" fill="black"/>
<path d="M59.267 36.422C59.056 36.422 58.86 36.287 58.791 36.075L57.963 33.505C57.911 33.346 57.943 33.171 58.047 33.041L58.826 32.06C58.998 31.844 59.314 31.81 59.528 31.979C59.745 32.151 59.781 32.465 59.609 32.682L58.996 33.453L59.742 35.768C59.827 36.031 59.682 36.312 59.42 36.397C59.369 36.414 59.318 36.422 59.267 36.422Z" fill="black"/>
<path d="M51.0541 37.216C50.8431 37.216 50.6471 37.081 50.5781 36.869L49.7501 34.299C49.6971 34.136 49.7311 33.957 49.8421 33.826L50.9191 32.533C51.0971 32.32 51.4121 32.294 51.6231 32.469C51.8351 32.646 51.8631 32.961 51.6871 33.173L50.7871 34.255L51.5301 36.563C51.6151 36.826 51.4701 37.107 51.2081 37.192C51.1561 37.209 51.1051 37.216 51.0541 37.216Z" fill="black"/>
<path d="M54.5781 46.097C52.7851 46.097 50.8081 44.189 50.5481 43.931C50.3521 43.736 50.3521 43.42 50.5461 43.224C50.7411 43.028 51.0581 43.028 51.2531 43.222C51.9091 43.874 54.0291 45.59 55.1451 44.958C55.3811 44.822 55.6891 44.906 55.8271 45.146C55.9631 45.386 55.8781 45.691 55.6381 45.828C55.3031 46.018 54.9441 46.097 54.5781 46.097Z" fill="black"/>
<path d="M20.9358 85.34C19.9858 84.69 19.0558 83.99 18.1558 83.25C18.0458 83.17 17.9458 83.09 17.8358 83C16.5658 81.94 15.3458 80.82 14.1858 79.64C12.9458 78.37 11.7758 77.04 10.6858 75.64C9.89579 74.62 9.1458 73.57 8.4458 72.49C14.7258 66.48 19.9258 63.18 19.9258 63.18L20.9358 85.34Z" fill="#FFBF69"/>
<path d="M51.418 63.283C51.082 63.283 50.73 63.267 50.358 63.233C45.854 62.818 41.38 59.776 41.191 59.647C40.963 59.491 40.906 59.18 41.062 58.952C41.217 58.726 41.527 58.665 41.757 58.823C41.801 58.853 46.209 61.846 50.449 62.237C54.893 62.648 56.407 60.171 56.469 60.065C56.61 59.829 56.914 59.748 57.153 59.885C57.39 60.024 57.472 60.326 57.336 60.565C57.268 60.684 55.724 63.283 51.418 63.283Z" fill="white"/>
</svg>
