<svg width="95" height="95" viewBox="0 0 95 95" fill="none" xmlns="http://www.w3.org/2000/svg">
<path d="M94.0562 47.46C94.0562 55.34 92.1061 62.76 88.6461 69.27C80.8261 84.03 65.2962 94.08 47.4261 94.08C41.7161 94.08 36.2561 93.05 31.2061 91.17C28.6561 90.23 26.2161 89.07 23.8961 87.7C18.8061 84.73 14.3362 80.82 10.7262 76.21C4.50617 68.29 0.806152 58.31 0.806152 47.46C0.806152 21.71 21.6861 0.829956 47.4261 0.829956C73.1761 0.829956 94.0562 21.71 94.0562 47.46Z" fill="#EDDDD6"/>
<path d="M64.1961 72.89L31.2061 91.17C28.6561 90.23 26.2161 89.07 23.8961 87.7C18.8061 84.73 14.3361 80.82 10.7261 76.21C14.1861 68.87 22.396 56.12 38.916 52.09C42.256 51.28 45.2061 51.36 47.7861 52.07C60.1261 55.44 64.1961 72.89 64.1961 72.89Z" fill="#7C6053"/>
<path d="M88.646 69.27C80.826 84.03 65.296 94.08 47.426 94.08C41.716 94.08 36.256 93.05 31.206 91.17C28.656 90.23 26.216 89.07 23.896 87.7C25.116 73.87 26.376 62.26 27.316 60.08C28.986 56.21 40.176 53.49 47.786 52.07C51.866 51.31 54.916 50.92 54.916 50.92C54.916 50.92 69.936 51.52 82.126 61.71C84.316 63.54 86.526 66.16 88.646 69.27Z" fill="#7C6053"/>
<path d="M36.5452 14.746C36.5452 14.746 31.2422 20.745 34.1572 27.358C37.0722 33.971 40.1991 15.344 40.1991 15.344L36.5452 14.746Z" fill="#ADA9C4"/>
<path d="M54.379 41.699L54.581 53.598C54.581 53.598 52.493 57.055 45.542 57.739C40.364 58.248 38.522 57.107 38.522 57.107L39.143 51.069L39.756 45.18L52.278 42.202L54.379 41.699Z" fill="#F27E64"/>
<path d="M52.2791 42.202C52.2541 42.527 54.1941 43.55 54.0091 43.993C51.4471 49.982 41.9031 52.992 38.9121 53.311L39.7561 45.179L52.2791 42.202Z" fill="black"/>
<path d="M38.805 15.34C37.171 16.67 36.028 18.5 35.352 20.495C33.796 25.087 30.658 35.809 32.714 42.383C35.386 50.926 43.088 49.327 47.668 47.5159C52.248 45.7049 54.3031 42.7569 54.3031 42.7569C54.3031 42.7569 58.683 44.1089 61.443 39.9379C64.202 35.7669 62.262 31.137 59.753 30.14C57.244 29.144 54.365 31.045 54.365 31.045L56.52 26.515C56.52 26.515 47.849 7.97696 38.805 15.34Z" fill="#F27E64"/>
<path d="M55 36.833C54.848 36.833 54.697 36.764 54.599 36.632C54.434 36.41 54.48 36.097 54.702 35.932L59.047 32.694C59.268 32.53 59.58 32.574 59.747 32.797C59.911 33.019 59.866 33.332 59.644 33.497L55.299 36.735C55.209 36.801 55.105 36.833 55 36.833Z" fill="black"/>
<path d="M59.8851 36.684C59.8471 36.684 59.8081 36.68 59.7691 36.67L56.2231 35.821C55.9551 35.757 55.7891 35.487 55.8531 35.219C55.9171 34.95 56.1821 34.781 56.4561 34.849L60.0021 35.698C60.2711 35.762 60.4371 36.032 60.3721 36.301C60.3171 36.529 60.1111 36.684 59.8851 36.684Z" fill="black"/>
<path d="M35.3031 29.208C35.2631 29.208 35.2211 29.203 35.1801 29.192C34.9121 29.124 34.7501 28.852 34.8191 28.585L35.5171 25.843C35.5851 25.575 35.8531 25.41 36.1241 25.482C36.3921 25.55 36.5541 25.822 36.4851 26.089L35.7871 28.831C35.7301 29.058 35.5261 29.208 35.3031 29.208Z" fill="black"/>
<path d="M42.8398 29.607C42.7988 29.607 42.7578 29.602 42.7158 29.591C42.4478 29.523 42.2868 29.25 42.3558 28.983L43.0548 26.242C43.1228 25.975 43.3928 25.813 43.6628 25.882C43.9298 25.95 44.0918 26.223 44.0228 26.49L43.3238 29.231C43.2668 29.457 43.0638 29.607 42.8398 29.607Z" fill="black"/>
<path d="M34.8709 23.223C34.6189 23.223 34.4019 23.033 34.3749 22.777C34.3459 22.503 34.5439 22.256 34.8179 22.226L37.0759 21.982C37.3489 21.954 37.5969 22.151 37.6269 22.425C37.6559 22.699 37.4579 22.946 37.1839 22.976L34.9259 23.22C34.9069 23.222 34.8899 23.223 34.8709 23.223Z" fill="#6C6B7C"/>
<path d="M45.1111 25.036C45.0471 25.036 44.9811 25.023 44.9181 24.997L41.8481 23.713C41.5941 23.607 41.4741 23.314 41.5801 23.059C41.6861 22.804 41.9781 22.684 42.2341 22.791L45.3041 24.075C45.5581 24.181 45.6781 24.474 45.5711 24.729C45.4921 24.921 45.3071 25.036 45.1111 25.036Z" fill="#6C6B7C"/>
<path d="M54.3658 31.044C54.3658 31.044 53.1328 35.996 52.1828 35.392C51.2338 34.788 50.3448 27.648 51.0528 24.452C51.7608 21.256 52.2768 19.649 52.2768 19.649C52.2768 19.649 39.2788 18.494 35.8528 15.405C32.4268 12.316 39.6638 10.323 47.0668 11.725C54.4698 13.127 57.3878 15.909 57.3878 15.909C57.3878 15.909 62.0258 15.218 63.7598 18.047C65.4928 20.876 61.5478 31.627 61.5478 31.627C61.5478 31.627 60.3788 28.928 54.3658 31.044Z" fill="#ADA9C4"/>
<path d="M29.5762 36.159C29.5762 36.159 33.2082 32.137 35.0572 32.74C36.9062 33.343 37.5782 36.046 37.5782 36.046C37.5782 36.046 39.7712 33.009 42.1912 33.863C44.6112 34.717 49.7992 35.034 49.8542 35.874C49.9092 36.713 48.4072 37.013 48.4072 37.013C48.4072 37.013 36.1942 38.426 29.5762 36.159Z" fill="#ADA9C4"/>
<path d="M54.3662 31.044C54.3662 31.044 54.1492 39.075 54.3042 42.756C54.4602 46.437 44.2263 52.18 37.1573 49.008C30.0883 45.836 32.0262 36.573 32.0262 36.573L38.3262 37.154C38.3262 37.154 39.7792 36.331 41.4292 35.991C43.0802 35.651 45.2802 36.551 45.2802 36.551L54.3662 31.044Z" fill="#ADA9C4"/>
<path d="M39.315 38.99C39.063 38.99 38.846 38.8 38.819 38.543C38.791 38.269 38.99 38.022 39.263 37.993C39.285 37.99 41.422 37.743 42.201 36.183C42.325 35.937 42.625 35.836 42.872 35.959C43.119 36.082 43.219 36.383 43.096 36.63C42.069 38.685 39.477 38.976 39.368 38.986C39.35 38.989 39.332 38.99 39.315 38.99Z" fill="black"/>
<path d="M37.353 35.158C37.17 35.158 36.994 35.056 36.906 34.882C35.149 31.371 37.677 27.677 37.785 27.521C37.941 27.295 38.253 27.239 38.48 27.397C38.707 27.554 38.762 27.866 38.605 28.092C38.583 28.125 36.311 31.461 37.8 34.435C37.923 34.682 37.823 34.982 37.576 35.106C37.505 35.142 37.428 35.158 37.353 35.158Z" fill="black"/>
<path d="M42.2877 58.282C38.8077 58.282 36.1138 57.604 35.8748 57.543C35.6078 57.473 35.4468 57.2 35.5178 56.933C35.5858 56.667 35.8578 56.506 36.1268 56.575C36.2488 56.606 48.4988 59.679 54.6178 52.43C54.7968 52.218 55.1127 52.195 55.3217 52.37C55.5327 52.548 55.5597 52.863 55.3817 53.074C51.8167 57.299 46.4807 58.282 42.2877 58.282Z" fill="white"/>
</svg>
