<svg width="94" height="95" viewBox="0 0 94 95" fill="none" xmlns="http://www.w3.org/2000/svg">
<path d="M93.5161 47.46C93.5161 57.37 90.4261 66.56 85.1461 74.11C82.2361 78.3 78.6361 81.99 74.5261 85C74.5061 85.03 74.4761 85.04 74.4561 85.06C74.1861 85.26 73.9161 85.46 73.6361 85.64C68.5761 89.2 62.7761 91.77 56.5161 93.08C53.4161 93.74 50.1961 94.08 46.8961 94.08C39.3261 94.08 32.1861 92.28 25.8661 89.07C22.2161 87.23 18.8461 84.92 15.8261 82.22C14.2061 80.76 12.6761 79.2 11.2661 77.53C8.95611 74.8 6.95612 71.81 5.31612 68.6C2.08612 62.25 0.266113 55.07 0.266113 47.46C0.266113 21.71 21.1461 0.829956 46.8961 0.829956C72.6361 0.829956 93.5161 21.71 93.5161 47.46Z" fill="#EDDDD6"/>
<path d="M85.1461 74.11C82.2161 78.32 78.5961 82.03 74.4561 85.06C69.2061 88.92 63.1161 91.7 56.5161 93.08C56.5561 84.43 57.0361 77.56 57.0361 77.56C57.0361 77.56 71.5741 56.604 71.7761 56.77C73.3431 58.056 79.2881 63.222 85.1461 74.11Z" fill="#46467F"/>
<path d="M74.4561 85.06C69.2061 88.92 63.1161 91.7 56.5161 93.08C53.4161 93.74 50.1961 94.08 46.8961 94.08C39.3261 94.08 32.1861 92.28 25.8661 89.07C22.2161 87.23 18.8461 84.92 15.8261 82.22C14.2061 80.76 12.6761 79.2 11.2661 77.53C14.1161 67.85 20.3661 60.49 22.2361 58.37C22.7061 57.83 23.2461 57.34 23.8261 56.89C23.8361 56.87 23.8561 56.87 23.8661 56.86C26.2961 54.97 29.5461 53.75 32.7561 52.95C32.7861 52.95 32.8061 52.94 32.8161 52.94C36.7361 51.98 40.5661 51.65 42.7561 51.54C43.9261 51.48 44.6261 51.48 44.6261 51.48C44.6261 51.48 50.6461 52.07 57.1461 53.09C62.9561 54 69.1461 55.25 71.7561 56.75C71.8861 56.83 71.9961 56.96 72.1061 57.13C73.5761 59.51 74.2261 71.29 74.4561 85.06Z" fill="#46467F"/>
<path d="M32.8281 30.101C32.8281 30.101 33.2161 37.097 36.3651 37.418C39.5141 37.739 44.1471 33.76 44.1471 33.76L41.9761 25.887L32.8281 30.101Z" fill="black"/>
<path d="M41.9121 43.171L42.0601 54.149C42.0601 54.149 44.1751 57.295 50.9031 57.787C55.9151 58.153 57.6601 57.064 57.6601 57.064L56.8871 51.507L56.1261 46.088L43.9541 43.592L41.9121 43.171Z" fill="#FCA397"/>
<path d="M44.625 43.651C44.655 43.95 44.772 44.303 44.953 44.707C47.457 50.167 54.18 51.289 56.945 51.512L56.239 46.098L44.625 43.651Z" fill="black"/>
<path d="M58.4628 21.064C58.4628 21.064 64.3438 34.771 62.1418 42.435C59.9398 50.099 52.9518 48.844 48.7758 47.332C44.5998 45.82 42.6738 43.24 42.6738 43.24C42.6738 43.24 38.7548 44.54 36.1638 40.887C33.5728 37.234 35.2108 33.069 37.4488 32.127C39.6878 31.185 42.3318 32.814 42.3318 32.814L40.2778 28.828C40.2788 28.83 49.1658 8.70203 58.4628 21.064Z" fill="#FCA397"/>
<path d="M41.9761 38.807C41.8761 38.807 41.7761 38.778 41.6881 38.715L36.7131 35.203C36.4871 35.044 36.4341 34.7319 36.5931 34.5069C36.7521 34.2799 37.0641 34.2259 37.2901 34.3869L42.2651 37.8989C42.4911 38.0579 42.5441 38.37 42.3851 38.595C42.2871 38.733 42.1331 38.807 41.9761 38.807Z" fill="black"/>
<path d="M37.4692 38.785C37.2482 38.785 37.0462 38.638 36.9872 38.414C36.9162 38.147 37.0742 37.873 37.3412 37.802L40.5892 36.935C40.8542 36.87 41.1302 37.022 41.2012 37.289C41.2722 37.556 41.1142 37.83 40.8472 37.901L37.5992 38.768C37.5562 38.779 37.5122 38.785 37.4692 38.785Z" fill="black"/>
<path d="M48.9782 27.698C48.8912 27.698 48.8032 27.676 48.7232 27.628C48.4862 27.486 48.4082 27.18 48.5492 26.943C49.8162 24.817 51.8662 24.93 52.7752 25.289C53.0322 25.39 53.1582 25.681 53.0572 25.937C52.9562 26.193 52.6672 26.32 52.4112 26.219C52.3322 26.191 50.5492 25.538 49.4092 27.454C49.3142 27.611 49.1482 27.698 48.9782 27.698Z" fill="black"/>
<path d="M59.958 26.387C59.848 26.387 59.736 26.351 59.644 26.276C58.515 25.359 57.342 26.029 57.292 26.057C57.056 26.198 56.749 26.119 56.608 25.882C56.468 25.645 56.543 25.341 56.779 25.198C56.852 25.154 58.593 24.135 60.274 25.498C60.488 25.673 60.522 25.987 60.347 26.202C60.248 26.323 60.104 26.387 59.958 26.387Z" fill="black"/>
<path d="M58.0338 38.056C57.9908 38.056 57.9468 38.05 57.9038 38.038C57.6368 37.967 57.4788 37.692 57.5498 37.426C58.2418 34.849 56.4278 30.967 56.4098 30.928C56.2918 30.678 56.3988 30.38 56.6478 30.262C56.8978 30.146 57.1948 30.25 57.3138 30.5C57.3958 30.672 59.3038 34.751 58.5158 37.685C58.4558 37.908 58.2548 38.056 58.0338 38.056Z" fill="black"/>
<path d="M58.956 31.659C58.738 31.659 58.538 31.515 58.476 31.295L57.766 28.784C57.691 28.518 57.845 28.242 58.111 28.167C58.374 28.095 58.652 28.246 58.728 28.513L59.437 31.024C59.512 31.29 59.358 31.566 59.092 31.641C59.047 31.653 59.001 31.659 58.956 31.659Z" fill="black"/>
<path d="M51.5488 31.856C51.3308 31.856 51.1298 31.712 51.0678 31.492L50.3588 28.981C50.2838 28.715 50.4378 28.439 50.7038 28.364C50.9668 28.29 51.2448 28.443 51.3208 28.71L52.0298 31.221C52.1048 31.487 51.9508 31.763 51.6848 31.838C51.6398 31.851 51.5938 31.856 51.5488 31.856Z" fill="black"/>
<path d="M59.2469 23.055C59.2469 23.055 58.4349 21.96 55.6979 21.965C52.9599 21.971 51.3789 23.913 51.3789 23.913C51.3789 23.913 51.1499 28.875 47.4489 31.357C43.7489 33.839 42.3329 32.816 42.3329 32.816L39.6249 31.878L37.6089 27.95L45.3449 19.463L54.6419 15.495L59.2469 20.616V23.055Z" fill="black"/>
<path d="M55.2648 41.245C54.4848 41.245 52.4428 41.035 51.4408 38.947C51.3208 38.698 51.4258 38.399 51.6748 38.279C51.9238 38.159 52.2218 38.265 52.3418 38.513C53.2608 40.428 55.3808 40.242 55.4718 40.238C55.7498 40.205 55.9908 40.411 56.0188 40.685C56.0458 40.959 55.8478 41.204 55.5738 41.232C55.5528 41.235 55.4408 41.245 55.2648 41.245Z" fill="black"/>
<path d="M34.359 36.551C32.436 34.592 30.849 29.763 31.235 27.045L31.313 26.497C31.313 26.497 28.129 26.151 29.191 21.906C30.252 17.661 35.665 12.001 44.111 9.87903C52.557 7.75703 59.248 20.616 59.248 20.616C59.248 20.616 52.184 20.246 46.878 24.26C41.572 28.274 39.626 31.878 39.626 31.878L34.359 36.551Z" fill="#7C6053"/>
<path d="M53.0049 58.15C46.3459 58.15 41.3119 54.799 41.0549 54.626C40.8259 54.471 40.7669 54.16 40.9219 53.932C41.0779 53.704 41.3889 53.646 41.6159 53.798C41.6899 53.849 49.0929 58.767 57.5359 56.579C57.8019 56.511 58.0759 56.671 58.1449 56.938C58.2139 57.206 58.0539 57.478 57.7859 57.547C56.1319 57.976 54.5259 58.15 53.0049 58.15Z" fill="#F7734F"/>
<path d="M31.2339 27.545C31.1499 27.545 31.0639 27.524 30.9859 27.479C30.7459 27.342 30.6629 27.037 30.7999 26.797L32.3929 24.012C32.5299 23.773 32.8349 23.689 33.0749 23.827C33.3149 23.964 33.3979 24.269 33.2609 24.509L31.6679 27.294C31.5759 27.454 31.4069 27.545 31.2339 27.545Z" fill="#FFBF69"/>
<path d="M74.5261 85C74.5061 85.03 74.4761 85.04 74.4561 85.06C74.1861 85.26 73.9161 85.46 73.6361 85.64L71.0761 72.88C71.0261 72.61 71.1961 72.34 71.4661 72.29C71.7361 72.23 72.0061 72.41 72.0561 72.68L74.5261 85Z" fill="#F7734F"/>
</svg>
