<svg width="94" height="94" viewBox="0 0 94 94" fill="none" xmlns="http://www.w3.org/2000/svg">
<path d="M93.7859 47.09C93.7859 51.96 93.0459 56.66 91.6559 61.07C89.5359 67.81 85.9359 73.89 81.2259 78.92C81.1259 79.04 81.0259 79.15 80.9159 79.26C80.7759 79.41 80.6259 79.56 80.4859 79.7C72.0259 88.34 60.2259 93.71 47.1659 93.71C45.1459 93.71 43.1359 93.58 41.1859 93.34C41.1659 93.33 41.1559 93.33 41.1359 93.33C36.3359 92.7 31.7559 91.35 27.5259 89.38C27.1759 89.22 26.8259 89.05 26.4759 88.88C19.5859 85.47 13.6659 80.39 9.2359 74.18C8.8559 73.64 8.4759 73.1 8.1159 72.54C7.2159 71.18 6.3959 69.77 5.6559 68.32C2.3859 61.95 0.545898 54.74 0.545898 47.09C0.545898 21.34 21.4159 0.469971 47.1659 0.469971C72.9159 0.469971 93.7859 21.34 93.7859 47.09Z" fill="#EDDDD6"/>
<path d="M81.2259 78.92C81.1259 79.04 81.0259 79.15 80.9159 79.26C80.7759 79.41 80.6259 79.56 80.4859 79.7C72.0259 88.34 60.2259 93.71 47.1659 93.71C45.1459 93.71 43.1359 93.58 41.1859 93.34C41.1659 93.33 41.1559 93.33 41.1359 93.33C36.3359 92.7 31.7559 91.35 27.5259 89.38C27.9259 72.49 27.7559 57.71 27.7559 57.43C27.9159 57.08 35.7359 55.07 46.1459 54.73C62.5259 54.21 76.3659 63.45 81.2259 78.92Z" fill="#507849"/>
<path d="M41.1858 93.34C41.1658 93.33 41.1558 93.33 41.1358 93.33C36.3358 92.7 31.7558 91.35 27.5258 89.38C27.1758 89.22 26.8258 89.05 26.4758 88.88C19.5858 85.47 13.6658 80.39 9.23584 74.18C18.2158 61.87 25.5558 58.28 27.7558 57.43C28.2058 57.25 28.4358 57.19 28.4358 57.19L41.1858 93.34Z" fill="#507849"/>
<path d="M47.3471 27.327C47.3471 27.327 58.1111 27.841 58.7201 17.518C59.3691 6.52798 49.2001 5.47397 44.8821 9.91797C40.5641 14.361 41.3631 18.881 41.3631 18.881C41.3631 18.881 38.3531 16.168 35.0701 19.5C32.6601 21.945 33.9041 25.944 33.9041 25.944C33.9041 25.944 28.3521 25.73 28.8701 30.578C29.3881 35.426 32.8551 37.887 32.8551 37.887L47.3471 27.327Z" fill="#E56445"/>
<path d="M37.5049 46.333L38.6239 57.771C38.6239 57.771 41.0079 60.857 47.7529 60.746C52.7769 60.664 54.4179 59.365 54.4179 59.365L53.1559 53.64L51.9179 48.058L39.5759 46.582L37.5049 46.333Z" fill="#FCA397"/>
<path d="M39.5762 46.583C39.6362 46.893 39.7902 47.25 40.0162 47.654C43.1342 53.117 50.2512 53.664 53.1552 53.641L51.9172 48.059L39.5762 46.583Z" fill="black"/>
<path d="M51.9182 21.739C51.9182 21.739 59.3232 35.492 57.7372 43.691C56.1512 51.89 48.7452 51.229 44.2482 50.039C39.7522 48.849 37.5042 46.336 37.5042 46.336C37.5042 46.336 33.5372 48.055 30.4952 44.485C27.4532 40.914 28.7762 36.418 31.0242 35.228C33.2722 34.038 36.1812 35.493 36.1812 35.493L33.6682 31.526C33.6682 31.526 41.0752 9.70502 51.9182 21.739Z" fill="#FCA397"/>
<path d="M36.318 41.753C36.233 41.753 36.147 41.732 36.068 41.686L31.532 39.053C31.293 38.914 31.212 38.608 31.35 38.369C31.488 38.13 31.793 38.048 32.034 38.187L36.57 40.82C36.809 40.959 36.89 41.265 36.752 41.504C36.658 41.664 36.49 41.753 36.318 41.753Z" fill="black"/>
<path d="M32.6158 42.148C32.4358 42.148 32.2618 42.05 32.1718 41.879C32.0448 41.634 32.1388 41.332 32.3838 41.204L34.6918 39.998C34.9358 39.87 35.2388 39.965 35.3668 40.21C35.4938 40.455 35.3998 40.757 35.1548 40.885L32.8468 42.091C32.7728 42.13 32.6938 42.148 32.6158 42.148Z" fill="black"/>
<path d="M53.9239 27.13C53.8279 27.13 53.7309 27.103 53.6449 27.045C52.3669 26.185 51.1939 27 51.1449 27.036C50.9219 27.196 50.6089 27.145 50.4479 26.922C50.2869 26.699 50.3359 26.389 50.5569 26.227C50.6299 26.175 52.3369 24.958 54.2029 26.216C54.4319 26.37 54.4919 26.681 54.3379 26.91C54.2429 27.053 54.0849 27.13 53.9239 27.13Z" fill="black"/>
<path d="M52.3891 40.152C52.3571 40.152 52.3261 40.149 52.2931 40.143C52.0221 40.09 51.8451 39.828 51.8971 39.557C52.7271 35.289 50.2491 32.511 50.2231 32.484C50.0371 32.28 50.0521 31.964 50.2561 31.778C50.4601 31.592 50.7771 31.607 50.9621 31.811C51.0781 31.939 53.8031 34.993 52.8781 39.749C52.8331 39.986 52.6241 40.152 52.3891 40.152Z" fill="black"/>
<path d="M53.9319 33.882C53.6659 33.882 53.4439 33.672 53.4329 33.403L53.3169 30.673C53.3049 30.397 53.5189 30.164 53.7949 30.152C54.0739 30.14 54.3049 30.354 54.3159 30.63L54.4319 33.36C54.4439 33.636 54.2299 33.869 53.9539 33.881C53.9469 33.882 53.9389 33.882 53.9319 33.882Z" fill="black"/>
<path d="M46.4241 34.599C46.1581 34.599 45.9361 34.389 45.9251 34.12L45.8081 31.39C45.7961 31.114 46.0101 30.881 46.2861 30.869C46.5631 30.851 46.7961 31.071 46.8071 31.347L46.9241 34.077C46.9361 34.353 46.7221 34.586 46.4461 34.598C46.4391 34.599 46.4311 34.599 46.4241 34.599Z" fill="black"/>
<path d="M53.4382 24.853C53.4382 24.853 51.9712 22.675 49.1162 22.935C46.2612 23.195 44.7912 25.367 44.7912 25.367C44.7912 25.367 46.5132 30.049 42.8832 32.981C39.2532 35.913 36.1812 35.493 36.1812 35.493L33.2692 34.765L30.8032 30.855L38.0862 21.285L48.0792 14.693L53.9252 19.043L53.4382 24.853Z" fill="#E56445"/>
<path d="M50.0129 43.083C49.0299 43.083 47.3219 42.801 46.2709 41.032C46.1299 40.795 46.2079 40.488 46.4449 40.347C46.6819 40.206 46.9889 40.284 47.1299 40.521C48.2759 42.449 50.4869 42.059 50.5799 42.04C50.8529 41.99 51.1129 42.166 51.1639 42.437C51.2159 42.708 51.0399 42.969 50.7699 43.022C50.7329 43.029 50.4419 43.083 50.0129 43.083Z" fill="black"/>
<path d="M56.9418 38.001C54.2548 38.001 52.0688 35.748 52.0688 32.98C52.0688 30.211 54.2548 27.959 56.9418 27.959C59.6298 27.959 61.8148 30.211 61.8148 32.98C61.8159 35.749 59.6298 38.001 56.9418 38.001ZM56.9418 28.96C54.8058 28.96 53.0688 30.764 53.0688 32.981C53.0688 35.198 54.8058 37.002 56.9418 37.002C59.0778 37.002 60.8148 35.198 60.8148 32.981C60.8148 30.764 59.0778 28.96 56.9418 28.96Z" fill="white"/>
<path d="M45.3662 39.12C42.5972 39.12 40.3452 36.868 40.3452 34.099C40.3452 31.33 42.5972 29.078 45.3662 29.078C48.1352 29.078 50.3872 31.33 50.3872 34.099C50.3872 36.868 48.1352 39.12 45.3662 39.12ZM45.3662 30.078C43.1492 30.078 41.3452 31.882 41.3452 34.099C41.3452 36.316 43.1492 38.12 45.3662 38.12C47.5832 38.12 49.3872 36.316 49.3872 34.099C49.3872 31.882 47.5842 30.078 45.3662 30.078Z" fill="white"/>
<path d="M49.401 34.075C49.143 34.075 48.924 33.877 48.903 33.616C48.881 33.341 49.086 33.099 49.361 33.077L52.896 32.788C53.172 32.77 53.413 32.971 53.435 33.246C53.457 33.521 53.252 33.763 52.977 33.785L49.442 34.074C49.428 34.075 49.415 34.075 49.401 34.075Z" fill="white"/>
<path d="M33.27 35.264C33.147 35.264 33.024 35.219 32.927 35.128C32.726 34.939 32.717 34.622 32.906 34.421C35.595 31.564 40.851 34.205 41.073 34.319C41.319 34.444 41.416 34.746 41.29 34.991C41.165 35.237 40.864 35.335 40.618 35.209C40.571 35.185 35.809 32.795 33.635 35.106C33.535 35.211 33.402 35.264 33.27 35.264Z" fill="white"/>
<path d="M47.89 60.846C44.66 60.846 40.9061 60.027 37.2611 57.35C37.0381 57.186 36.99 56.873 37.154 56.651C37.317 56.428 37.63 56.38 37.853 56.544C46.683 63.03 56.211 57.978 56.307 57.925C56.548 57.795 56.8531 57.883 56.9851 58.125C57.1171 58.367 57.0281 58.671 56.7861 58.803C56.7241 58.836 52.949 60.846 47.89 60.846Z" fill="white"/>
<path d="M42.8829 28.753C42.7919 28.753 42.6999 28.729 42.6179 28.677C42.3839 28.53 42.3129 28.222 42.4599 27.988C43.8289 25.804 45.9599 25.972 46.8949 26.365C47.1489 26.472 47.2689 26.765 47.1619 27.02C47.0549 27.275 46.7629 27.394 46.5089 27.288C46.4159 27.251 44.5549 26.53 43.3079 28.52C43.2119 28.67 43.0489 28.753 42.8829 28.753Z" fill="black"/>
</svg>
