<svg width="94" height="94" viewBox="0 0 94 94" fill="none" xmlns="http://www.w3.org/2000/svg">
<path d="M93.5059 47.09C93.5059 59.44 88.7059 70.67 80.8559 79.01C72.3559 88.06 60.2759 93.71 46.8859 93.71C31.4659 93.71 17.7959 86.23 9.31586 74.7C3.61586 66.97 0.255859 57.42 0.255859 47.09C0.255859 21.34 21.1359 0.469971 46.8859 0.469971C72.6259 0.469971 93.5059 21.34 93.5059 47.09Z" fill="#EDDDD6"/>
<path d="M43.3232 20.149C43.3232 20.149 49.5973 11.371 65.6483 20.059C81.6993 28.747 74.8903 68.651 74.8903 68.651L44.6793 64.763L43.3232 20.149Z" fill="black"/>
<path d="M48.5809 43.456L49.2939 54.943C49.2939 54.943 47.5069 58.365 41.0799 59.299C36.2919 59.995 34.6089 57.516 34.6089 57.516L35.1509 47.394L46.6519 44.024L48.5809 43.456Z" fill="#FCA397"/>
<path d="M48.5208 42.756C48.5128 43.071 48.4208 43.448 48.2688 43.884C46.1538 49.77 37.6048 52.681 34.8418 53.107L35.1518 47.394L48.5208 42.756Z" fill="black"/>
<path d="M31.0632 21.358C31.0632 21.358 26.1602 36.108 28.9422 43.973C31.7232 51.838 38.6592 50.037 42.7482 48.164C46.8372 46.291 48.5832 43.458 48.5832 43.458C48.5832 43.458 52.6212 44.545 54.9572 40.542C57.2932 36.539 55.3382 32.297 53.0172 31.467C50.6952 30.638 48.1562 32.527 48.1562 32.527L49.9282 28.214C49.9282 28.214 39.5012 7.77702 31.0632 21.358Z" fill="#FCA397"/>
<path d="M33.0588 39.515C32.8588 39.515 32.6698 39.394 32.5928 39.197C31.4248 36.206 33.2408 32.914 33.3198 32.775C33.4548 32.534 33.7597 32.448 33.9997 32.584C34.2407 32.719 34.3258 33.023 34.1918 33.264C34.1748 33.294 32.5308 36.287 33.5248 38.832C33.6258 39.089 33.4988 39.379 33.2408 39.48C33.1808 39.504 33.1188 39.515 33.0588 39.515Z" fill="black"/>
<path d="M49.2611 39.223C49.1551 39.223 49.048 39.189 48.957 39.12C48.737 38.952 48.6961 38.638 48.8641 38.419L52.251 33.997C52.418 33.778 52.7331 33.737 52.9511 33.904C53.1711 34.072 53.2121 34.386 53.0441 34.605L49.657 39.027C49.56 39.156 49.4111 39.223 49.2611 39.223Z" fill="black"/>
<path d="M53.1181 37.792C53.0811 37.791 50.4681 37.599 50.4681 37.599C50.1921 37.579 49.9861 37.339 50.0051 37.064C50.0261 36.788 50.2821 36.575 50.5401 36.602L53.1531 36.794C53.4291 36.814 53.6351 37.054 53.6161 37.329C53.5971 37.592 53.3771 37.792 53.1181 37.792Z" fill="black"/>
<path d="M29.4048 28.047C29.1838 28.047 28.9827 27.901 28.9227 27.678C28.8507 27.411 29.0078 27.137 29.2748 27.065L31.6748 26.414C31.9458 26.339 32.2158 26.499 32.2878 26.766C32.3598 27.033 32.2027 27.307 31.9357 27.379L29.5358 28.03C29.4918 28.042 29.4478 28.047 29.4048 28.047Z" fill="black"/>
<path d="M39.684 28.838C39.643 28.838 39.601 28.833 39.559 28.822L36.16 27.941C35.892 27.872 35.731 27.599 35.801 27.332C35.87 27.066 36.142 26.9 36.41 26.974L39.809 27.855C40.077 27.924 40.238 28.197 40.168 28.464C40.109 28.689 39.906 28.838 39.684 28.838Z" fill="black"/>
<path d="M29.9131 33.909C29.8801 33.909 29.8461 33.906 29.8121 33.899C29.5411 33.844 29.3671 33.58 29.4211 33.31L29.9081 30.919L29.2391 30.205C29.0511 30.003 29.0611 29.687 29.2621 29.498C29.4641 29.309 29.7811 29.321 29.9691 29.521L30.8141 30.424C30.9241 30.543 30.9711 30.707 30.9391 30.865L30.4011 33.509C30.3541 33.746 30.1461 33.909 29.9131 33.909Z" fill="black"/>
<path d="M37.4879 34.003C37.4549 34.003 37.421 34 37.387 33.993C37.116 33.938 36.9419 33.674 36.9959 33.403L37.482 31.02L36.5059 30.024C36.3129 29.826 36.3159 29.51 36.5139 29.316C36.7099 29.124 37.029 29.127 37.221 29.323L38.382 30.509C38.498 30.628 38.548 30.796 38.515 30.959L37.976 33.602C37.929 33.84 37.7209 34.003 37.4879 34.003Z" fill="black"/>
<path d="M34.4701 59.578C34.4701 59.578 33.2351 53.475 34.8411 53.106C36.4481 52.737 38.3521 53.785 42.1061 52.853C45.8591 51.921 47.8181 50.518 49.0151 50.448C50.2131 50.378 49.8421 58.064 49.8421 58.064L40.5731 61.982L34.4701 59.578Z" fill="#507849"/>
<path d="M53.6731 31.811C53.6731 31.811 51.8662 31.165 50.5182 31.429C49.1582 31.684 48.1562 32.529 48.1562 32.529L46.4992 34.834L47.4312 30.113C47.4312 30.113 46.2252 29.458 44.4212 28.727L45.0401 24.655L43.3841 28.321C41.6621 27.678 39.5951 27.066 37.5401 26.842C36.4321 26.716 35.4362 26.665 34.5812 26.654L35.1272 22.219L33.4642 26.655C31.2552 26.719 30.1322 27.037 30.1322 27.037L28.6382 31.606C28.6382 31.606 28.2712 19.287 33.6112 15.904C38.9512 12.521 48.6742 12.505 53.1642 18.33C57.6542 24.158 53.6731 31.811 53.6731 31.811Z" fill="black"/>
<path d="M36.8641 42.568C36.6121 42.568 36.3951 42.378 36.3681 42.122C36.3391 41.849 36.5351 41.603 36.8081 41.572C36.8781 41.563 38.2391 41.357 39.2411 39.436C39.3691 39.191 39.6721 39.098 39.9161 39.224C40.1611 39.352 40.2561 39.654 40.1281 39.899C38.8601 42.33 36.9981 42.558 36.9201 42.566C36.9011 42.567 36.8831 42.568 36.8641 42.568Z" fill="black"/>
<path d="M80.856 79.01C72.356 88.06 60.2759 93.71 46.8859 93.71C31.4659 93.71 17.7959 86.23 9.31592 74.7C13.5159 69.5 22.596 60.03 34.606 57.52C50.306 54.23 72.586 57.8 80.856 79.01Z" fill="#507849"/>
<path d="M43.8428 56.716C43.5668 56.716 43.3428 56.492 43.3428 56.216C43.3428 55.941 43.5668 55.716 43.8428 55.716C43.8678 55.716 46.4967 55.697 49.0817 54.489C49.3307 54.372 49.6298 54.479 49.7468 54.73C49.8638 54.98 49.7557 55.278 49.5057 55.395C46.7117 56.701 43.9588 56.716 43.8428 56.716Z" fill="white"/>
</svg>
