<svg width="94" height="94" viewBox="0 0 94 94" fill="none" xmlns="http://www.w3.org/2000/svg">
<path d="M93.3262 47.09C93.3262 55.46 91.1162 63.32 87.2462 70.12C84.5262 74.9 80.9762 79.16 76.7962 82.69C72.3662 86.44 67.2262 89.38 61.6062 91.28C56.9262 92.85 51.9162 93.71 46.7062 93.71C32.8962 93.71 20.4762 87.7 11.9462 78.16C11.4362 77.6 10.9462 77.02 10.4662 76.43C9.08619 74.73 7.8262 72.93 6.6962 71.05C2.4962 64.04 0.0761719 55.85 0.0761719 47.09C0.0761719 21.34 20.9562 0.469971 46.7062 0.469971C72.4462 0.469971 93.3262 21.34 93.3262 47.09Z" fill="#EDDDD6"/>
<path d="M34.3661 37.149C34.3661 37.149 23.5251 45.325 22.7191 55.255C21.4981 70.284 38.5931 63.709 40.4721 54.128C42.3511 44.547 34.3661 37.149 34.3661 37.149Z" fill="black"/>
<path d="M76.7958 82.69C72.3658 86.44 67.2258 89.38 61.6058 91.28C56.9258 92.85 51.9158 93.71 46.7058 93.71C32.8958 93.71 20.4758 87.7 11.9458 78.16C11.4358 77.6 10.9458 77.02 10.4658 76.43L39.9758 55.05C39.9958 55.04 41.1158 54.22 41.1158 54.22L52.7058 55.16L57.5158 55.55L76.7958 82.69Z" fill="#FCB35B"/>
<path d="M33.3932 36.126C33.3932 36.126 29.4812 31.803 30.6082 25.104C31.3722 20.562 33.3932 19.093 33.3932 19.093C33.3932 19.093 30.3152 12.894 39.4792 13.269C48.6432 13.645 54.0352 18.144 54.0352 18.144C54.0352 18.144 58.2242 16.087 60.1022 20.971C61.9802 25.855 60.1022 33.061 60.1022 33.061L33.3932 36.126Z" fill="black"/>
<path d="M41.1158 54.97L11.9458 78.16C11.4358 77.6 10.9458 77.02 10.4658 76.43C9.08579 74.73 7.8258 72.93 6.6958 71.05C7.5958 70.24 8.5358 69.43 9.5058 68.62C22.8758 57.47 36.0958 55.42 39.9758 55.05C40.7258 54.98 41.1158 54.97 41.1158 54.97Z" fill="#FCB35B"/>
<path d="M53.5111 43.677L53.2861 55.632C53.2861 55.632 51.2031 59.004 44.6451 59.365C39.7601 59.633 38.2651 56.909 38.2651 56.909L39.6431 46.485L51.5181 44.083L53.5111 43.677Z" fill="#F27E64"/>
<path d="M87.2459 70.12C84.5259 74.9 80.9759 79.16 76.7959 82.69C72.3659 86.44 67.2259 89.38 61.6059 91.28L69.1459 82.09L52.7059 55.16L52.5859 54.97C52.5859 54.97 54.4759 55.04 57.5159 55.55C64.4359 56.7 77.2959 60.11 87.2459 70.12Z" fill="#FCB35B"/>
<path d="M53.5111 42.994C53.4751 43.299 53.3501 43.656 53.1591 44.065C50.5161 49.59 41.6491 51.695 38.8271 51.876L39.6361 46.368L53.5111 42.994Z" fill="black"/>
<path d="M37.7808 20.807C37.7808 20.807 31.5578 34.685 33.6768 42.536C35.7958 50.387 42.9408 49.223 47.2238 47.75C51.5068 46.277 53.5128 43.679 53.5128 43.679C53.5128 43.679 57.4868 45.069 60.1888 41.387C62.8908 37.705 61.2898 33.432 59.0228 32.434C56.7558 31.437 54.0328 33.054 54.0328 33.054L56.1938 29.024C56.1938 29.024 47.4638 8.35603 37.7808 20.807Z" fill="#F27E64"/>
<path d="M54.0332 33.055C54.0332 33.055 48.0402 34.265 43.8762 27.595C39.7122 20.925 40.0952 18.187 40.0952 18.187L35.9472 25.072C35.9472 25.072 35.0202 20.298 36.9292 17.254C38.8382 14.211 40.8212 14.841 40.8212 14.841L54.0362 18.143L57.5162 28.735L54.0332 33.055Z" fill="black"/>
<path d="M38.256 38.578C38.042 38.578 37.844 38.44 37.777 38.224C36.856 35.215 38.979 32.168 39.07 32.04C39.23 31.815 39.541 31.762 39.766 31.921C39.992 32.08 40.045 32.392 39.886 32.618C39.866 32.645 37.957 35.397 38.734 37.931C38.814 38.195 38.666 38.474 38.402 38.555C38.354 38.571 38.304 38.578 38.256 38.578Z" fill="black"/>
<path d="M54.6081 39.649C54.4841 39.649 54.3611 39.604 54.2641 39.512C54.0631 39.322 54.0551 39.005 54.2461 38.805L58.0441 34.804C58.2331 34.604 58.5511 34.597 58.7501 34.785C58.9511 34.976 58.9591 35.292 58.7691 35.492L54.9711 39.493C54.8721 39.597 54.7391 39.649 54.6081 39.649Z" fill="black"/>
<path d="M58.6189 38.586C58.5939 38.586 58.5669 38.584 58.5419 38.58L55.9249 38.176C55.6519 38.134 55.4649 37.879 55.5069 37.606C55.5489 37.333 55.8089 37.149 56.0769 37.188L58.6939 37.592C58.9669 37.634 59.1539 37.889 59.1119 38.162C59.0739 38.409 58.8609 38.586 58.6189 38.586Z" fill="black"/>
<path d="M43.2751 42.565C41.9581 42.565 40.4601 41.674 40.2441 41.541C40.0921 41.447 40.0011 41.277 40.0071 41.098C40.0141 40.918 40.1161 40.756 40.2761 40.672L44.4961 38.469C44.6261 38.4 44.7821 38.393 44.9221 38.451C45.0591 38.509 45.1631 38.625 45.2061 38.768C45.2351 38.864 45.8951 41.123 44.4921 42.198C44.1431 42.464 43.7191 42.565 43.2751 42.565ZM41.5881 41.114C42.3961 41.472 43.4101 41.763 43.8831 41.403C44.4011 41.006 44.4231 40.219 44.3601 39.666L41.5881 41.114Z" fill="black"/>
<path d="M35.5719 27.164C35.3339 27.164 35.1229 26.993 35.0809 26.75C35.0329 26.478 35.2159 26.219 35.4869 26.171L37.9619 25.74C38.2289 25.696 38.4919 25.874 38.5399 26.147C38.5879 26.419 38.4049 26.678 38.1339 26.726L35.6589 27.157C35.6289 27.161 35.6009 27.164 35.5719 27.164Z" fill="black"/>
<path d="M45.8599 28.789C45.7839 28.789 45.7069 28.772 45.6339 28.735L41.5739 26.679C41.3269 26.554 41.2279 26.253 41.3529 26.007C41.4779 25.76 41.7809 25.663 42.0249 25.787L46.0849 27.843C46.3319 27.968 46.4309 28.269 46.3059 28.515C46.2189 28.689 46.0419 28.789 45.8599 28.789Z" fill="black"/>
<path d="M61.6039 37.149C61.6039 37.149 70.2469 44.641 69.0259 56.852C67.8049 69.063 55.6959 67.495 53.1529 63.039C49.2999 56.288 53.5119 43.679 53.5119 43.679C53.5119 43.679 60.9379 44.923 61.6039 37.149Z" fill="black"/>
<path d="M35.5721 32.884C35.5231 32.884 35.4741 32.877 35.4261 32.862C35.1611 32.781 35.0141 32.501 35.0951 32.237L35.7881 29.977L35.1851 29.239C35.0101 29.025 35.0411 28.71 35.2551 28.535C35.4681 28.361 35.7831 28.391 35.9581 28.606L36.7301 29.551C36.8361 29.68 36.8711 29.854 36.8211 30.014L36.0491 32.53C35.9841 32.746 35.7861 32.884 35.5721 32.884Z" fill="black"/>
<path d="M43.1469 33.561C43.0979 33.561 43.0489 33.554 42.9999 33.539C42.7349 33.458 42.5879 33.178 42.6689 32.914L43.3599 30.661L42.4709 29.624C42.2909 29.415 42.3159 29.099 42.5259 28.919C42.7349 28.741 43.0519 28.764 43.2309 28.974L44.2979 30.22C44.4089 30.35 44.4459 30.528 44.3959 30.692L43.6229 33.208C43.5589 33.422 43.3599 33.561 43.1469 33.561Z" fill="black"/>
<path d="M44.6791 59.847C40.4231 59.847 37.9021 57.526 37.8651 57.492C37.6651 57.303 37.6561 56.987 37.8451 56.786C38.0341 56.587 38.3501 56.577 38.5511 56.765C38.7511 56.954 43.5281 61.299 51.2841 56.947C51.5261 56.809 51.8311 56.897 51.9651 57.137C52.1011 57.378 52.0151 57.683 51.7751 57.818C49.0761 59.331 46.6851 59.847 44.6791 59.847Z" fill="white"/>
</svg>
