<svg width="94" height="94" viewBox="0 0 94 94" fill="none" xmlns="http://www.w3.org/2000/svg">
<path d="M93.3262 47.05C93.3262 56.26 90.6562 64.85 86.0362 72.09C82.7062 77.31 78.3662 81.82 73.2862 85.35C70.5662 87.24 67.6362 88.85 64.5362 90.14C59.0462 92.41 53.0262 93.67 46.7062 93.67C46.3462 93.67 45.9762 93.67 45.6062 93.66C34.3862 93.4 24.1462 89.18 16.2362 82.34C14.8562 81.15 13.5562 79.88 12.3262 78.54C4.71617 70.25 0.0761719 59.19 0.0761719 47.05C0.0761719 21.3 20.9562 0.429993 46.7062 0.429993C72.4462 0.429993 93.3262 21.3 93.3262 47.05Z" fill="#EDDDD6"/>
<path d="M73.2862 85.35C70.5662 87.24 67.6362 88.85 64.5362 90.14C59.0462 92.41 53.0262 93.67 46.7062 93.67C46.3462 93.67 45.9762 93.67 45.6062 93.66C34.3862 93.4 24.1462 89.18 16.2362 82.34C14.8562 81.15 13.5562 79.88 12.3262 78.54C15.6062 71.43 23.2162 58.02 35.1162 54.8C35.2562 54.76 35.3962 54.73 35.5262 54.69C49.2962 51.21 67.9762 54.46 71.6962 57.25C73.2262 58.51 73.4962 71.02 73.2862 85.35Z" fill="#7C6053"/>
<path d="M38.3338 29.841C38.3338 29.841 30.5858 20.258 33.8368 16.456C37.0878 12.654 42.1138 16.456 42.1138 16.456C42.1138 16.456 42.3908 11.957 47.4038 12.421C52.4168 12.886 55.4378 18.227 55.4378 18.227C55.4378 18.227 59.8488 13.814 62.8678 18.227C65.8878 22.64 63.7978 29.84 63.7978 29.84C63.7978 29.84 67.2818 29.324 66.3528 33.414C65.4238 37.504 59.9438 41.721 59.9438 41.721L38.3338 29.841Z" fill="black"/>
<path d="M55.2928 44.928L55.4388 55.735C55.4388 55.735 53.5318 58.868 47.2168 59.467C42.5128 59.913 40.8438 58.871 40.8438 58.871L41.4268 53.389L42.0018 48.043L53.3838 45.378L55.2928 44.928Z" fill="#FCA397"/>
<path d="M53.3838 45.378C53.3608 45.673 53.2528 46.023 53.0838 46.425C50.7388 51.856 44.1428 53.109 41.4268 53.389L42.0018 48.043L53.3838 45.378Z" fill="black"/>
<path d="M39.2601 23.443C39.2601 23.443 33.7711 37.069 36.1081 44.567C38.4451 52.065 45.2981 50.675 49.3771 49.095C53.4551 47.514 55.2951 44.932 55.2951 44.932C55.2951 44.932 59.1821 46.125 61.6531 42.471C64.1241 38.817 62.4191 34.752 60.1941 33.874C57.9691 32.996 55.4011 34.659 55.4011 34.659L57.3361 30.689C57.3361 30.689 48.1411 11.065 39.2601 23.443Z" fill="#FCA397"/>
<path d="M55.8729 40.556C55.7209 40.556 55.5689 40.486 55.4709 40.353C55.3069 40.131 55.3539 39.818 55.5759 39.654L59.6479 36.642C59.8679 36.478 60.1819 36.525 60.3469 36.746C60.5109 36.968 60.4639 37.281 60.2419 37.445L56.1699 40.457C56.0809 40.524 55.9769 40.556 55.8729 40.556Z" fill="black"/>
<path d="M60.311 40.436C60.272 40.436 60.233 40.432 60.193 40.422L56.975 39.64C56.706 39.575 56.542 39.305 56.607 39.036C56.672 38.768 56.941 38.602 57.211 38.668L60.429 39.45C60.697 39.515 60.862 39.785 60.797 40.054C60.741 40.283 60.536 40.436 60.311 40.436Z" fill="black"/>
<path d="M48.0268 29.779C47.8218 29.779 47.6298 29.652 47.5558 29.447C46.8188 27.381 44.9758 27.675 44.8968 27.687C44.6298 27.732 44.3668 27.553 44.3188 27.282C44.2708 27.011 44.4498 26.753 44.7198 26.703C45.6638 26.53 47.6758 26.807 48.4968 29.111C48.5898 29.371 48.4538 29.657 48.1938 29.75C48.1398 29.77 48.0828 29.779 48.0268 29.779Z" fill="black"/>
<path d="M37.894 28.724C37.752 28.724 37.612 28.664 37.513 28.548C37.334 28.337 37.36 28.022 37.571 27.843C38.051 27.436 39.325 26.355 39.902 27.007C40.085 27.214 40.065 27.53 39.858 27.713C39.723 27.832 39.545 27.867 39.383 27.817C39.274 27.85 38.938 27.994 38.217 28.606C38.123 28.685 38.008 28.724 37.894 28.724Z" fill="black"/>
<path d="M39.8529 38.98C39.7029 38.98 39.5539 38.912 39.4559 38.783C37.6999 36.482 41.0739 32.844 41.2189 32.69C41.4079 32.488 41.7239 32.479 41.9249 32.668C42.1259 32.856 42.1369 33.173 41.9469 33.374C41.1259 34.251 39.2179 36.823 40.2509 38.176C40.4189 38.396 40.3759 38.709 40.1569 38.877C40.0659 38.947 39.9589 38.98 39.8529 38.98Z" fill="black"/>
<path d="M38.9708 34.155C38.9468 34.155 38.9228 34.154 38.8988 34.15C38.6258 34.11 38.4358 33.858 38.4748 33.584L38.8388 31.04C38.8778 30.765 39.1368 30.579 39.4048 30.616C39.6768 30.656 39.8678 30.908 39.8288 31.182L39.4648 33.725C39.4288 33.976 39.2148 34.155 38.9708 34.155Z" fill="black"/>
<path d="M46.419 34.165C46.111 34.147 45.902 33.909 45.92 33.633L46.083 31.069C46.101 30.795 46.312 30.587 46.613 30.602C46.889 30.619 47.098 30.857 47.081 31.133L46.918 33.698C46.901 33.962 46.681 34.165 46.419 34.165Z" fill="black"/>
<path d="M38.163 26.511C38.163 26.511 39.307 24.323 42.003 24.268C44.699 24.213 46.298 26.091 46.298 26.091C46.298 26.091 45.177 30.647 48.875 33.009C52.573 35.371 55.401 34.658 55.401 34.658L58.047 33.675L59.945 29.763L52.141 21.577L42.114 16.456L37.103 21.13L38.163 26.511Z" fill="black"/>
<path d="M42.7619 43.252C42.6419 43.252 42.566 43.246 42.548 43.245C42.274 43.222 42.07 42.982 42.092 42.707C42.113 42.432 42.3489 42.221 42.6279 42.248C42.7179 42.256 44.803 42.389 45.665 40.486C45.778 40.234 46.0769 40.123 46.3259 40.237C46.5779 40.351 46.689 40.647 46.575 40.899C45.592 43.07 43.4499 43.252 42.7619 43.252Z" fill="black"/>
<path d="M86.0361 72.09C82.7061 77.31 78.3661 81.82 73.2861 85.35C70.5661 87.24 67.6361 88.85 64.5361 90.14L71.6961 57.25C72.1861 57.59 79.8261 62.98 86.0361 72.09Z" fill="#7C6053"/>
<path d="M45.6229 60.025C42.1949 60.025 39.5169 59.267 39.3879 59.23C39.1229 59.154 38.9699 58.877 39.0459 58.611C39.1219 58.345 39.3999 58.192 39.6639 58.269C39.6979 58.279 43.1889 59.262 47.1799 58.969C51.7649 58.628 56.1399 55.369 56.1839 55.336C56.4029 55.171 56.7169 55.214 56.8839 55.435C57.0499 55.655 57.0059 55.969 56.7849 56.135C56.5969 56.277 52.1379 59.604 47.2539 59.966C46.6969 60.007 46.1509 60.025 45.6229 60.025Z" fill="#FFBF69"/>
</svg>
