<svg width="95" height="94" viewBox="0 0 95 94" fill="none" xmlns="http://www.w3.org/2000/svg">
<path d="M94.146 47.09C94.146 53.35 92.916 59.32 90.676 64.77C85.266 77.96 73.976 88.13 60.066 92C59.116 92.27 58.146 92.51 57.166 92.71C54.056 93.37 50.826 93.71 47.526 93.71C45.876 93.71 44.246 93.63 42.636 93.46C41.586 93.35 40.546 93.2 39.516 93.02C38.156 92.78 36.826 92.49 35.506 92.14C33.726 91.67 31.976 91.09 30.286 90.41C26.376 88.86 22.726 86.79 19.416 84.29C14.146 80.31 9.75599 75.23 6.57599 69.4C2.95599 62.77 0.895996 55.17 0.895996 47.09C0.895996 21.34 21.776 0.469971 47.526 0.469971C73.276 0.469971 94.146 21.34 94.146 47.09Z" fill="#EDDDD6"/>
<path d="M60.0661 92C56.0761 93.12 51.8661 93.71 47.5261 93.71C44.7961 93.71 42.1161 93.48 39.5161 93.02C38.1561 92.78 36.8261 92.49 35.5061 92.14C33.7261 91.67 31.9761 91.09 30.2861 90.41L33.5961 57.08L51.6461 52.82L58.8261 54.95L60.0661 92Z" fill="#F7734F"/>
<path d="M36.3208 23.279C36.3208 23.279 29.4718 14.839 31.3228 13.724C33.1738 12.609 34.9268 14.311 34.9268 14.311C34.9268 14.311 48.8868 12.11 53.9818 13.557C59.0768 15.004 62.4858 23.342 62.4858 23.342C62.4858 23.342 65.0398 23.105 66.1208 26.588C67.2018 30.071 59.6858 47.205 54.8858 46.309C50.0838 45.411 36.3208 23.279 36.3208 23.279Z" fill="black"/>
<path d="M54.8288 43.548L55.0648 55.204C55.0648 55.204 53.0307 58.597 46.2227 59.289C41.1517 59.805 39.3438 58.692 39.3438 58.692L39.9328 52.774L40.5148 47.003L52.7728 44.046L54.8288 43.548Z" fill="#FCA397"/>
<path d="M52.7721 44.047C52.7491 44.366 52.6361 44.744 52.4561 45.179C49.9651 51.054 42.8601 52.454 39.9321 52.776L40.5141 47.005L52.7721 44.047Z" fill="black"/>
<path d="M37.3778 20.488C37.3778 20.488 31.5558 35.226 34.1318 43.297C36.7078 51.368 44.0898 49.819 48.4768 48.085C52.8648 46.35 54.8298 43.551 54.8298 43.551C54.8298 43.551 59.0319 44.81 61.6699 40.851C64.3089 36.891 62.4408 32.519 60.0338 31.588C57.6268 30.657 54.8698 32.469 54.8698 32.469L56.9288 28.173C56.9288 28.173 46.8688 7.07199 37.3778 20.488Z" fill="#FCA397"/>
<path d="M37.3779 20.488C37.3779 20.488 41.9139 18.662 43.8499 20.262C45.7859 21.862 48.0679 35.373 54.8709 32.468C61.6739 29.564 58.1549 20.907 58.1549 20.907C58.1549 20.907 41.0429 6.25499 37.3779 20.488Z" fill="black"/>
<path d="M39.9362 52.78C39.9362 52.78 37.8062 72.44 35.5062 92.14C23.0362 88.83 12.6262 80.48 6.57617 69.4C10.2762 65.52 16.1962 59.03 21.3062 56.96C30.2262 53.34 39.9362 52.78 39.9362 52.78Z" fill="#507849"/>
<path d="M44.7629 59.892C41.7479 59.892 39.4059 59.233 39.2029 59.174C38.9379 59.097 38.7859 58.82 38.8619 58.555C38.9389 58.289 39.2188 58.133 39.4808 58.213C39.5808 58.242 49.4589 61.008 54.6829 54.881C54.8639 54.671 55.1789 54.647 55.3879 54.824C55.5979 55.004 55.6229 55.319 55.4449 55.529C52.4469 59.046 48.1749 59.892 44.7629 59.892Z" fill="white"/>
<path d="M90.6761 64.77C85.2661 77.96 73.9761 88.13 60.0661 92C59.1161 92.27 58.1461 92.51 57.1661 92.71C55.7461 77.34 54.9961 50.36 54.9961 50.36C54.9961 50.36 75.1961 49.26 90.6761 64.77Z" fill="#507849"/>
<path d="M55.3929 38.969C55.2679 38.969 55.1429 38.923 55.0449 38.829C54.8469 38.637 54.8409 38.321 55.0329 38.122L58.7049 34.319C58.8959 34.121 59.2129 34.115 59.4119 34.306C59.6099 34.498 59.6159 34.814 59.4239 35.013L55.7519 38.816C55.6539 38.918 55.5239 38.969 55.3929 38.969Z" fill="black"/>
<path d="M60.3588 38.04C60.3178 38.04 60.2748 38.035 60.2328 38.024L57.0628 37.196C56.7948 37.126 56.6348 36.853 56.7058 36.586C56.7748 36.32 57.0458 36.16 57.3148 36.229L60.4848 37.057C60.7528 37.127 60.9128 37.4 60.8418 37.667C60.7838 37.892 60.5818 38.04 60.3588 38.04Z" fill="black"/>
<path d="M36.4158 27.108C36.3088 27.108 36.2029 27.075 36.1129 27.006C35.8969 26.839 35.8519 26.535 36.0139 26.316C36.0529 26.262 37.0089 25.018 39.4129 25.364C39.6859 25.404 39.8759 25.657 39.8369 25.93C39.7969 26.204 39.5369 26.39 39.2709 26.354C37.4949 26.094 36.8379 26.884 36.8119 26.918C36.7129 27.042 36.5648 27.108 36.4158 27.108Z" fill="black"/>
<path d="M47.3971 27.247C47.2841 27.247 47.17 27.209 47.077 27.131C45.792 26.06 44.3071 26.453 44.2941 26.457C44.0271 26.53 43.753 26.374 43.679 26.109C43.605 25.843 43.7611 25.567 44.0271 25.493C44.1101 25.472 46.034 24.957 47.718 26.363C47.93 26.54 47.9581 26.855 47.7811 27.067C47.6821 27.186 47.5391 27.247 47.3971 27.247Z" fill="black"/>
<path d="M36.9002 32.917C36.5842 32.893 36.3782 32.652 36.4012 32.377L36.6222 29.664C36.6432 29.389 36.8742 29.193 37.1612 29.206C37.4352 29.228 37.6412 29.47 37.6182 29.745L37.3972 32.458C37.3762 32.718 37.1572 32.917 36.9002 32.917Z" fill="black"/>
<path d="M44.926 33.248C44.61 33.224 44.404 32.983 44.427 32.708L44.648 29.994C44.67 29.719 44.9021 29.521 45.1871 29.536C45.4611 29.559 45.6661 29.8 45.6441 30.075L45.423 32.789C45.402 33.05 45.184 33.248 44.926 33.248Z" fill="black"/>
<path d="M38.8492 39.395C38.6582 39.395 38.4762 39.285 38.3932 39.099C36.6922 35.291 39.2432 32.222 39.3522 32.093C39.5302 31.883 39.8442 31.856 40.0552 32.035C40.2662 32.213 40.2922 32.528 40.1142 32.739C40.0212 32.849 37.8662 35.468 39.3052 38.69C39.4182 38.943 39.3052 39.238 39.0532 39.351C38.9862 39.381 38.9172 39.395 38.8492 39.395Z" fill="black"/>
<path d="M42.0239 41.833C41.7489 41.833 41.5259 41.61 41.5249 41.335C41.5239 41.06 41.7469 40.835 42.0219 40.833C42.0939 40.832 43.7879 40.803 44.3969 39.348C44.5029 39.093 44.7939 38.972 45.0509 39.079C45.3059 39.186 45.4249 39.479 45.3179 39.733C44.4499 41.81 42.1219 41.833 42.0239 41.833Z" fill="black"/>
</svg>
