<svg xmlns="http://www.w3.org/2000/svg" width="20" height="24" viewBox="0 0 20 24" fill="none">
<path d="M19.3782 8.21947C19.2653 8.28907 16.7818 9.73497 16.81 12.743C16.8412 16.3409 19.9641 17.5391 19.9999 17.5527C19.972 17.6383 19.5006 19.2592 18.3538 20.9331C17.3627 22.3833 16.336 23.8252 14.7156 23.8553C13.1236 23.8845 12.6105 22.9107 10.7918 22.9107C8.97201 22.9107 8.40241 23.8252 6.89693 23.8845C5.33286 23.9437 4.14208 22.3185 3.14366 20.8763C1.10259 17.9248 -0.457956 12.5352 1.6375 8.89801C2.6778 7.09166 4.53722 5.94726 6.55473 5.9177C8.09121 5.88866 9.54025 6.95062 10.4801 6.95062C11.4065 6.95062 13.0668 5.71268 15.0239 5.85746C15.791 5.91431 17.9685 6.14324 19.3782 8.21947ZM13.8163 3.90909C14.6475 2.90453 15.2068 1.50552 15.0528 0.114014C13.8565 0.161455 12.4096 0.910879 11.5516 1.9148C10.7832 2.80411 10.1083 4.22844 10.2916 5.59155C11.625 5.69458 12.9859 4.91426 13.8163 3.90909Z" fill="#5E5E5E"/>
</svg>