<svg width="36" height="32" viewBox="0 0 36 32" fill="none" xmlns="http://www.w3.org/2000/svg">
<path d="M25.5492 8.39734H9.92676V19.8013H25.5492V8.39734Z" stroke="white" stroke-width="1.6" stroke-linecap="round" stroke-linejoin="round"/>
<ellipse cx="21.0851" cy="12.1987" rx="1.11589" ry="0.950332" fill="white"/>
<ellipse cx="14.3903" cy="12.1987" rx="1.11589" ry="0.950332" fill="white"/>
<path d="M5.46354 19.8013C4.27974 19.8013 3.14442 19.4008 2.30734 18.6879C1.47026 17.9751 1 17.0082 1 16V12.1987C1 11.1905 1.47026 10.2236 2.30734 9.51072C3.14442 8.79783 4.27974 8.39734 5.46354 8.39734M30.013 8.39734C31.1968 8.39734 32.3321 8.79783 33.1692 9.51072C34.0063 10.2236 34.4766 11.1905 34.4766 12.1987V16C34.4766 17.0082 34.0063 17.9751 33.1692 18.6879C32.3321 19.4008 31.1968 19.8013 30.013 19.8013M16.0645 15.4096C16.2842 15.5969 16.5451 15.7454 16.8323 15.8468C17.1196 15.9482 17.4274 16.0003 17.7383 16.0003C18.0492 16.0003 18.357 15.9482 18.6442 15.8468C18.9314 15.7454 19.1924 15.5969 19.4121 15.4096" stroke="white" stroke-width="1.6" stroke-linecap="round" stroke-linejoin="round"/>
<path d="M25.5498 1.745H9.92741C8.7436 1.745 7.60828 2.14549 6.77121 2.85838C5.93413 3.57127 5.46387 4.53815 5.46387 5.54632V19.8013C5.46387 20.8095 5.93413 21.7764 6.77121 22.4892C7.60828 23.2021 8.7436 23.6026 9.92741 23.6026H13.229L17.7386 30.255L22.2482 23.6026H25.5498C26.7336 23.6026 27.8689 23.2021 28.706 22.4892C29.5431 21.7764 30.0133 20.8095 30.0133 19.8013V5.54632C30.0133 4.53815 29.5431 3.57127 28.706 2.85838C27.8689 2.14549 26.7336 1.745 25.5498 1.745Z" stroke="white" stroke-width="1.6" stroke-linecap="round" stroke-linejoin="round"/>
</svg>
