<?xml version="1.0" standalone="no"?>
<!DOCTYPE svg PUBLIC "-//W3C//DTD SVG 20010904//EN"
 "http://www.w3.org/TR/2001/REC-SVG-20010904/DTD/svg10.dtd">
<svg version="1.0" xmlns="http://www.w3.org/2000/svg"
 width="320.000000pt" height="320.000000pt" viewBox="0 0 320.000000 320.000000"
 preserveAspectRatio="xMidYMid meet">

<g transform="translate(0.000000,320.000000) scale(0.100000,-0.100000)"
fill="#000000" stroke="none">
<path d="M1346 2885 c-340 -70 -629 -292 -784 -600 -214 -425 -141 -920 188
-1278 l70 -75 0 -375 0 -376 26 -20 c15 -12 33 -21 41 -21 8 0 166 74 351 165
184 91 344 165 356 165 12 0 156 -72 321 -160 175 -93 311 -160 327 -160 15 0
36 10 48 22 19 21 20 33 20 396 l0 375 73 76 c110 116 195 256 245 407 76 226
75 494 -2 722 -118 346 -417 622 -783 723 -102 28 -390 36 -497 14z m383 -461
c104 -24 215 -88 302 -174 61 -61 85 -94 122 -170 96 -197 100 -383 12 -575
-114 -249 -361 -397 -639 -383 -341 18 -607 286 -623 628 -10 196 53 358 191
496 176 174 389 234 635 178z"/>
</g>
</svg>
