<svg width="31" height="32" viewBox="0 0 31 32" fill="none" xmlns="http://www.w3.org/2000/svg">
<path d="M15.5 3.40198C12.4329 3.4021 9.46588 4.49358 7.12991 6.48111C4.79393 8.46864 3.24139 11.2225 2.75008 14.25C2.25878 17.2775 2.86076 20.381 4.44832 23.0053C6.03589 25.6295 8.50543 27.6033 11.4151 28.5733C12.0609 28.6864 12.3031 28.2989 12.3031 27.9598C12.3031 27.653 12.2869 26.6358 12.2869 25.5541C9.04162 26.1514 8.20204 24.7629 7.9437 24.0364C7.65705 23.3297 7.20264 22.7035 6.61975 22.2119C6.16766 21.9697 5.52183 21.3723 6.60359 21.3562C7.01664 21.401 7.41281 21.5447 7.75852 21.7752C8.10423 22.0056 8.38928 22.316 8.58954 22.6801C8.7662 22.9974 9.00375 23.2768 9.28857 23.5022C9.5734 23.7276 9.8999 23.8946 10.2494 23.9936C10.5988 24.0926 10.9644 24.1216 11.3251 24.0791C11.6859 24.0366 12.0346 23.9233 12.3515 23.7457C12.4074 23.0891 12.7001 22.4751 13.175 22.0182C10.301 21.6952 7.29787 20.5811 7.29787 15.6406C7.27972 14.3568 7.75342 13.1148 8.62183 12.1692C8.22694 11.0535 8.27315 9.82907 8.751 8.74629C8.751 8.74629 9.83273 8.40721 12.3031 10.0702C14.4166 9.48896 16.6479 9.48896 18.7614 10.0702C21.2317 8.39108 22.3135 8.74629 22.3135 8.74629C22.7914 9.82905 22.8376 11.0535 22.4427 12.1692C23.3137 13.1132 23.7878 14.3563 23.7666 15.6406C23.7666 20.5973 20.7473 21.6952 17.8734 22.0182C18.1816 22.3306 18.4191 22.7057 18.5695 23.118C18.7199 23.5303 18.7799 23.9702 18.7453 24.4077C18.7453 26.1354 18.7291 27.5239 18.7291 27.9598C18.7291 28.2989 18.9713 28.7025 19.6171 28.5734C22.5217 27.5954 24.9841 25.617 26.5649 22.9915C28.1457 20.3659 28.742 17.2639 28.2473 14.2394C27.7525 11.2148 26.1991 8.4645 23.8641 6.47939C21.5291 4.49428 18.5647 3.40357 15.5 3.40198Z" fill="#5E5E5E"/>
</svg>
