<svg width="65" height="65" viewBox="0 0 65 65" fill="none" xmlns="http://www.w3.org/2000/svg">
<path d="M32.5009 37.9167C32.5009 32.5 36.7692 31.5935 38.239 30.1274C39.7135 28.6565 40.6259 26.6223 40.6259 24.375C40.6259 19.8877 36.9882 16.25 32.5009 16.25C30.0745 16.25 27.8964 17.3136 26.4077 19.0001C25.7193 19.7799 25.1782 20.6929 24.8281 21.6954" stroke="white" stroke-width="5" stroke-linecap="round"/>
<path fill-rule="evenodd" clip-rule="evenodd" d="M32.5013 50.7499C33.9971 50.7499 35.2096 49.5374 35.2096 48.0416C35.2096 46.5458 33.9971 45.3333 32.5013 45.3333C31.0055 45.3333 29.793 46.5458 29.793 48.0416C29.793 49.5374 31.0055 50.7499 32.5013 50.7499Z" fill="white" stroke="white"/>
</svg>
