<svg width="25" height="26" viewBox="0 0 25 26" fill="none" xmlns="http://www.w3.org/2000/svg">
<path d="M6.35417 1.95829L18.4375 8.93746L15 12.375L4.16667 1.64579C4.375 1.64579 4.6875 1.54163 4.89583 1.54163C5.41667 1.54163 5.9375 1.64579 6.35417 1.95829ZM2.1875 21.75V4.24996C2.1875 3.41663 2.60417 2.68746 3.22917 2.16663L14.1667 13.1041L3.33333 23.9375C2.60417 23.4166 2.1875 22.5833 2.1875 21.75ZM6.35417 24.1458C5.72917 24.4583 5 24.5625 4.375 24.4583L15 13.9375L18.3333 17.2708L6.35417 24.1458ZM21.4583 15.3958L19.2708 16.6458L15.625 13.1041L19.2708 9.45829L21.3542 10.7083C22.1875 11.2291 22.7083 12.0625 22.7083 13.1041C22.8125 13.9375 22.2917 14.875 21.4583 15.3958Z" fill="#5E5E5E"/>
</svg>
