<svg width="30" height="30" viewBox="0 0 30 30" fill="none" xmlns="http://www.w3.org/2000/svg">
<path d="M2.91675 18.2262C2.91675 18.8671 3.17136 19.4818 3.62457 19.9351C4.07779 20.3883 4.69247 20.6429 5.33341 20.6429C5.97435 20.6429 6.58904 20.3883 7.04226 19.9351C7.49547 19.4818 7.75008 18.8671 7.75008 18.2262V15.8095H5.33341C4.69247 15.8095 4.07779 16.0642 3.62457 16.5174C3.17136 16.9706 2.91675 17.5853 2.91675 18.2262ZM18.1901 14.1904C18.831 14.1904 19.4457 13.9358 19.8989 13.4826C20.3521 13.0293 20.6067 12.4146 20.6067 11.7737V5.33329C20.6067 4.69235 20.3521 4.07766 19.8989 3.62445C19.4457 3.17124 18.831 2.91663 18.1901 2.91663C17.5491 2.91663 16.9345 3.17124 16.4812 3.62445C16.028 4.07766 15.7734 4.69235 15.7734 5.33329V11.7737C15.7734 12.0931 15.8367 12.4094 15.9597 12.7041C16.0826 12.9989 16.2628 13.2664 16.4898 13.4912C16.7167 13.7159 16.986 13.8934 17.282 14.0134C17.578 14.1334 17.8949 14.1936 18.2142 14.1904H18.1901ZM27.0351 11.7737C27.0351 11.1328 26.7805 10.5181 26.3273 10.0649C25.874 9.61166 25.2594 9.35704 24.6184 9.35704C23.9775 9.35704 23.3628 9.61166 22.9096 10.0649C22.4564 10.5181 22.2017 11.1328 22.2017 11.7737V14.1904H24.6184C24.9398 14.1968 25.2593 14.139 25.5581 14.0205C25.8569 13.9019 26.129 13.7249 26.3586 13.4999C26.5881 13.2748 26.7705 13.0062 26.8949 12.7098C27.0194 12.4134 27.0835 12.0952 27.0834 11.7737H27.0351ZM11.7859 15.8095C11.145 15.8095 10.5303 16.0642 10.0771 16.5174C9.62386 16.9706 9.36925 17.5853 9.36925 18.2262V24.6666C9.36925 25.3076 9.62386 25.9223 10.0771 26.3755C10.5303 26.8287 11.145 27.0833 11.7859 27.0833C12.4269 27.0833 13.0415 26.8287 13.4948 26.3755C13.948 25.9223 14.2026 25.3076 14.2026 24.6666V18.2262C14.2026 17.5853 13.948 16.9706 13.4948 16.5174C13.0415 16.0642 12.4269 15.8095 11.7859 15.8095ZM18.2142 22.25H15.7976V24.6666C15.7976 25.1446 15.9393 25.6118 16.2049 26.0093C16.4704 26.4067 16.8478 26.7164 17.2894 26.8993C17.731 27.0822 18.2169 27.1301 18.6857 27.0369C19.1545 26.9436 19.5851 26.7134 19.9231 26.3755C20.2611 26.0375 20.4912 25.6069 20.5845 25.1381C20.6777 24.6693 20.6299 24.1834 20.447 23.7418C20.264 23.3002 19.9543 22.9228 19.5569 22.6572C19.1595 22.3917 18.6922 22.25 18.2142 22.25ZM24.6667 15.8095H18.2142C17.5733 15.8095 16.9586 16.0642 16.5054 16.5174C16.0522 16.9706 15.7976 17.5853 15.7976 18.2262C15.7976 18.8671 16.0522 19.4818 16.5054 19.9351C16.9586 20.3883 17.5733 20.6429 18.2142 20.6429H24.6667C25.3077 20.6429 25.9224 20.3883 26.3756 19.9351C26.8288 19.4818 27.0834 18.8671 27.0834 18.2262C27.0834 17.5853 26.8288 16.9706 26.3756 16.5174C25.9224 16.0642 25.3077 15.8095 24.6667 15.8095ZM11.7859 9.35704H5.33341C4.69247 9.35704 4.07779 9.61166 3.62457 10.0649C3.17136 10.5181 2.91675 11.1328 2.91675 11.7737C2.91675 12.4146 3.17136 13.0293 3.62457 13.4826C4.07779 13.9358 4.69247 14.1904 5.33341 14.1904H11.7859C12.4269 14.1904 13.0415 13.9358 13.4948 13.4826C13.948 13.0293 14.2026 12.4146 14.2026 11.7737C14.2026 11.1328 13.948 10.5181 13.4948 10.0649C13.0415 9.61166 12.4269 9.35704 11.7859 9.35704ZM11.7859 2.91663C11.145 2.91663 10.5303 3.17124 10.0771 3.62445C9.62386 4.07766 9.36925 4.69235 9.36925 5.33329C9.36925 5.97423 9.62386 6.58892 10.0771 7.04213C10.5303 7.49535 11.145 7.74996 11.7859 7.74996H14.2026V5.33329C14.2026 4.69235 13.948 4.07766 13.4948 3.62445C13.0415 3.17124 12.4269 2.91663 11.7859 2.91663Z" fill="white"/>
</svg>
