<svg width="29" height="30" viewBox="0 0 29 30" fill="none" xmlns="http://www.w3.org/2000/svg">
<path d="M2.41669 18.2262C2.41669 18.8672 2.6713 19.4819 3.12451 19.9351C3.57773 20.3883 4.19241 20.6429 4.83335 20.6429C5.47429 20.6429 6.08898 20.3883 6.54219 19.9351C6.99541 19.4819 7.25002 18.8672 7.25002 18.2262V15.8096H4.83335C4.19241 15.8096 3.57773 16.0642 3.12451 16.5174C2.6713 16.9706 2.41669 17.5853 2.41669 18.2262ZM17.69 14.1904C18.331 14.1904 18.9456 13.9358 19.3989 13.4826C19.8521 13.0294 20.1067 12.4147 20.1067 11.7737V5.33332C20.1067 4.69238 19.8521 4.07769 19.3989 3.62448C18.9456 3.17127 18.331 2.91666 17.69 2.91666C17.0491 2.91666 16.4344 3.17127 15.9812 3.62448C15.528 4.07769 15.2734 4.69238 15.2734 5.33332V11.7737C15.2733 12.0931 15.3366 12.4094 15.4596 12.7042C15.5826 12.999 15.7627 13.2665 15.9897 13.4912C16.2167 13.7159 16.4859 13.8934 16.7819 14.0134C17.0779 14.1335 17.3948 14.1936 17.7142 14.1904H17.69ZM26.535 11.7737C26.535 11.1328 26.2804 10.5181 25.8272 10.0649C25.374 9.61169 24.7593 9.35707 24.1184 9.35707C23.4774 9.35707 22.8627 9.61169 22.4095 10.0649C21.9563 10.5181 21.7017 11.1328 21.7017 11.7737V14.1904H24.1184C24.4398 14.1968 24.7592 14.1391 25.058 14.0205C25.3568 13.9019 25.629 13.725 25.8585 13.4999C26.0881 13.2748 26.2704 13.0063 26.3949 12.7099C26.5193 12.4135 26.5834 12.0952 26.5834 11.7737H26.535ZM11.2859 15.8096C10.6449 15.8096 10.0302 16.0642 9.57701 16.5174C9.1238 16.9706 8.86919 17.5853 8.86919 18.2262V24.6667C8.86919 25.3076 9.1238 25.9223 9.57701 26.3755C10.0302 26.8287 10.6449 27.0833 11.2859 27.0833C11.9268 27.0833 12.5415 26.8287 12.9947 26.3755C13.4479 25.9223 13.7025 25.3076 13.7025 24.6667V18.2262C13.7025 17.5853 13.4479 16.9706 12.9947 16.5174C12.5415 16.0642 11.9268 15.8096 11.2859 15.8096ZM17.7142 22.25H15.2975V24.6667C15.2975 25.1446 15.4393 25.6119 15.7048 26.0093C15.9703 26.4067 16.3478 26.7165 16.7894 26.8994C17.231 27.0823 17.7169 27.1301 18.1857 27.0369C18.6544 26.9436 19.0851 26.7135 19.423 26.3755C19.761 26.0375 19.9912 25.6069 20.0844 25.1381C20.1777 24.6693 20.1298 24.1834 19.9469 23.7418C19.764 23.3002 19.4542 22.9228 19.0568 22.6573C18.6594 22.3917 18.1922 22.25 17.7142 22.25ZM24.1667 15.8096H17.7142C17.0732 15.8096 16.4586 16.0642 16.0053 16.5174C15.5521 16.9706 15.2975 17.5853 15.2975 18.2262C15.2975 18.8672 15.5521 19.4819 16.0053 19.9351C16.4586 20.3883 17.0732 20.6429 17.7142 20.6429H24.1667C24.8076 20.6429 25.4223 20.3883 25.8755 19.9351C26.3287 19.4819 26.5834 18.8672 26.5834 18.2262C26.5834 17.5853 26.3287 16.9706 25.8755 16.5174C25.4223 16.0642 24.8076 15.8096 24.1667 15.8096ZM11.2859 9.35707H4.83335C4.19241 9.35707 3.57773 9.61169 3.12451 10.0649C2.6713 10.5181 2.41669 11.1328 2.41669 11.7737C2.41669 12.4147 2.6713 13.0294 3.12451 13.4826C3.57773 13.9358 4.19241 14.1904 4.83335 14.1904H11.2859C11.9268 14.1904 12.5415 13.9358 12.9947 13.4826C13.4479 13.0294 13.7025 12.4147 13.7025 11.7737C13.7025 11.1328 13.4479 10.5181 12.9947 10.0649C12.5415 9.61169 11.9268 9.35707 11.2859 9.35707ZM11.2859 2.91666C10.6449 2.91666 10.0302 3.17127 9.57701 3.62448C9.1238 4.07769 8.86919 4.69238 8.86919 5.33332C8.86919 5.97426 9.1238 6.58895 9.57701 7.04216C10.0302 7.49538 10.6449 7.74999 11.2859 7.74999H13.7025V5.33332C13.7025 4.69238 13.4479 4.07769 12.9947 3.62448C12.5415 3.17127 11.9268 2.91666 11.2859 2.91666Z" fill="#3670F5"/>
</svg>
