<svg xmlns="http://www.w3.org/2000/svg" width="29" height="30" viewBox="0 0 29 30" fill="none">
<path d="M2.41663 18.2262C2.41663 18.8671 2.67124 19.4818 3.12445 19.9351C3.57766 20.3883 4.19235 20.6429 4.83329 20.6429C5.47423 20.6429 6.08892 20.3883 6.54213 19.9351C6.99535 19.4818 7.24996 18.8671 7.24996 18.2262V15.8095H4.83329C4.19235 15.8095 3.57766 16.0642 3.12445 16.5174C2.67124 16.9706 2.41663 17.5853 2.41663 18.2262ZM17.69 14.1904C18.3309 14.1904 18.9456 13.9358 19.3988 13.4826C19.852 13.0293 20.1066 12.4146 20.1066 11.7737V5.33329C20.1066 4.69235 19.852 4.07766 19.3988 3.62445C18.9456 3.17124 18.3309 2.91663 17.69 2.91663C17.049 2.91663 16.4343 3.17124 15.9811 3.62445C15.5279 4.07766 15.2733 4.69235 15.2733 5.33329V11.7737C15.2733 12.0931 15.3366 12.4094 15.4595 12.7041C15.5825 12.9989 15.7627 13.2664 15.9896 13.4912C16.2166 13.7159 16.4859 13.8934 16.7819 14.0134C17.0779 14.1334 17.3947 14.1936 17.7141 14.1904H17.69ZM26.535 11.7737C26.535 11.1328 26.2803 10.5181 25.8271 10.0649C25.3739 9.61166 24.7592 9.35704 24.1183 9.35704C23.4774 9.35704 22.8627 9.61166 22.4094 10.0649C21.9562 10.5181 21.7016 11.1328 21.7016 11.7737V14.1904H24.1183C24.4397 14.1968 24.7592 14.139 25.058 14.0205C25.3568 13.9019 25.6289 13.7249 25.8585 13.4999C26.088 13.2748 26.2704 13.0062 26.3948 12.7098C26.5193 12.4134 26.5834 12.0952 26.5833 11.7737H26.535ZM11.2858 15.8095C10.6449 15.8095 10.0302 16.0642 9.57695 16.5174C9.12374 16.9706 8.86913 17.5853 8.86913 18.2262V24.6666C8.86913 25.3076 9.12374 25.9223 9.57695 26.3755C10.0302 26.8287 10.6449 27.0833 11.2858 27.0833C11.9267 27.0833 12.5414 26.8287 12.9946 26.3755C13.4478 25.9223 13.7025 25.3076 13.7025 24.6666V18.2262C13.7025 17.5853 13.4478 16.9706 12.9946 16.5174C12.5414 16.0642 11.9267 15.8095 11.2858 15.8095ZM17.7141 22.25H15.2975V24.6666C15.2975 25.1446 15.4392 25.6118 15.7047 26.0093C15.9703 26.4067 16.3477 26.7164 16.7893 26.8993C17.2309 27.0822 17.7168 27.1301 18.1856 27.0369C18.6544 26.9436 19.085 26.7134 19.423 26.3755C19.7609 26.0375 19.9911 25.6069 20.0844 25.1381C20.1776 24.6693 20.1297 24.1834 19.9468 23.7418C19.7639 23.3002 19.4542 22.9228 19.0568 22.6572C18.6593 22.3917 18.1921 22.25 17.7141 22.25ZM24.1666 15.8095H17.7141C17.0732 15.8095 16.4585 16.0642 16.0053 16.5174C15.5521 16.9706 15.2975 17.5853 15.2975 18.2262C15.2975 18.8671 15.5521 19.4818 16.0053 19.9351C16.4585 20.3883 17.0732 20.6429 17.7141 20.6429H24.1666C24.8076 20.6429 25.4223 20.3883 25.8755 19.9351C26.3287 19.4818 26.5833 18.8671 26.5833 18.2262C26.5833 17.5853 26.3287 16.9706 25.8755 16.5174C25.4223 16.0642 24.8076 15.8095 24.1666 15.8095ZM11.2858 9.35704H4.83329C4.19235 9.35704 3.57766 9.61166 3.12445 10.0649C2.67124 10.5181 2.41663 11.1328 2.41663 11.7737C2.41663 12.4146 2.67124 13.0293 3.12445 13.4826C3.57766 13.9358 4.19235 14.1904 4.83329 14.1904H11.2858C11.9267 14.1904 12.5414 13.9358 12.9946 13.4826C13.4478 13.0293 13.7025 12.4146 13.7025 11.7737C13.7025 11.1328 13.4478 10.5181 12.9946 10.0649C12.5414 9.61166 11.9267 9.35704 11.2858 9.35704ZM11.2858 2.91663C10.6449 2.91663 10.0302 3.17124 9.57695 3.62445C9.12374 4.07766 8.86913 4.69235 8.86913 5.33329C8.86913 5.97423 9.12374 6.58892 9.57695 7.04213C10.0302 7.49535 10.6449 7.74996 11.2858 7.74996H13.7025V5.33329C13.7025 4.69235 13.4478 4.07766 12.9946 3.62445C12.5414 3.17124 11.9267 2.91663 11.2858 2.91663Z" fill="#5E5E5E"/>
</svg>
