<svg width="67" height="67" viewBox="0 0 67 67" fill="none" xmlns="http://www.w3.org/2000/svg">
<path d="M50.25 52.2274C50.25 47.7055 46.979 41.8749 41.875 41.875H25.125C20.021 41.8749 16.75 47.7055 16.75 52.2274M8.375 33.5C8.375 19.6238 19.6238 8.375 33.5 8.375C47.3762 8.375 58.625 19.6238 58.625 33.5C58.625 47.3762 47.3762 58.625 33.5 58.625C19.6238 58.625 8.375 47.3762 8.375 33.5ZM41.875 25.125C41.875 29.7504 38.1254 33.5 33.5 33.5C28.8746 33.5 25.125 29.7504 25.125 25.125C25.125 20.4996 28.8746 16.75 33.5 16.75C38.1254 16.75 41.875 20.4996 41.875 25.125Z" stroke="white" stroke-width="3"/>
<ellipse cx="33.5" cy="25" rx="7.5" ry="7" fill="white"/>
<path d="M21 42.5L16.5 51.5L24.5 57L33.5 59L43 57L50 52L48 46L43.5 42.5L29.5 42L21 42.5Z" fill="white"/>
</svg>
