<svg width="84" height="84" viewBox="0 0 84 84" fill="none" xmlns="http://www.w3.org/2000/svg">
<circle cx="42" cy="42" r="42" transform="matrix(-1 0 0 1 84 0)" fill="#ECB5FF"/>
<mask id="mask0_206_1796" style="mask-type:alpha" maskUnits="userSpaceOnUse" x="0" y="0" width="84" height="84">
<circle cx="42" cy="42" r="42" transform="matrix(-1 0 0 1 84 0)" fill="#D2EFF3"/>
</mask>
<g mask="url(#mask0_206_1796)">
<path d="M4 99.0001C12.7097 85.0467 19.5242 58.07 20.3306 44.5817L61.7621 24.0001L79 99.0001H4Z" fill="#F3A790" stroke="black" stroke-width="4"/>
<mask id="mask1_206_1796" style="mask-type:alpha" maskUnits="userSpaceOnUse" x="-20" y="10" width="125" height="119">
<path d="M-19.043 128.062C-4.64297 108.062 6.6237 59.3949 7.95703 40.0615L76.457 10.5612L104.957 128.062H-19.043Z" fill="#AC6651"/>
</mask>
<g mask="url(#mask1_206_1796)">
</g>
<mask id="path-5-inside-1_206_1796" fill="white">
<path fill-rule="evenodd" clip-rule="evenodd" d="M16.5691 43.0386C16.5757 43.0161 16.5824 42.9937 16.5891 42.9713C16.5959 42.9489 16.6027 42.9265 16.6095 42.9042L21.1388 27.8582L21.1393 27.8583C23.9312 18.845 35.3464 13.3028 46.7063 15.4691C58.0663 17.6353 65.0865 26.693 62.4433 35.7347L62.4437 35.7348L62.4242 35.7995C62.4197 35.8146 62.4152 35.8297 62.4106 35.8448C62.4061 35.8599 62.4015 35.875 62.3969 35.89L57.801 51.1577L57.7972 51.1569C54.9 60.0526 43.5695 65.4973 32.2934 63.3471C21.0174 61.1968 14.0172 52.2566 16.4995 43.2818L16.496 43.2811L16.5691 43.0386Z"/>
</mask>
<path fill-rule="evenodd" clip-rule="evenodd" d="M16.5691 43.0386C16.5757 43.0161 16.5824 42.9937 16.5891 42.9713C16.5959 42.9489 16.6027 42.9265 16.6095 42.9042L21.1388 27.8582L21.1393 27.8583C23.9312 18.845 35.3464 13.3028 46.7063 15.4691C58.0663 17.6353 65.0865 26.693 62.4433 35.7347L62.4437 35.7348L62.4242 35.7995C62.4197 35.8146 62.4152 35.8297 62.4106 35.8448C62.4061 35.8599 62.4015 35.875 62.3969 35.89L57.801 51.1577L57.7972 51.1569C54.9 60.0526 43.5695 65.4973 32.2934 63.3471C21.0174 61.1968 14.0172 52.2566 16.4995 43.2818L16.496 43.2811L16.5691 43.0386Z" fill="#F3A790"/>
<path d="M16.5691 43.0386L18.9665 43.7474L18.9629 43.7592L16.5691 43.0386ZM16.6095 42.9042L19.0034 43.6248L18.9999 43.6363L16.6095 42.9042ZM21.1388 27.8582L18.7449 27.1376L19.3951 24.9777L21.6102 25.4031L21.1388 27.8582ZM21.1393 27.8583L23.5274 28.598L22.8653 30.7354L20.6678 30.3135L21.1393 27.8583ZM46.7063 15.4691L47.1746 13.0133L46.7063 15.4691ZM62.4433 35.7347L61.9706 38.1896L59.2729 37.6701L60.0437 35.0332L62.4433 35.7347ZM62.4437 35.7348L62.9164 33.2799L65.6359 33.8035L64.8376 36.4554L62.4437 35.7348ZM62.4242 35.7995L60.0279 35.0868L60.0303 35.0789L62.4242 35.7995ZM62.4106 35.8448L64.8045 36.5654L64.8045 36.5655L62.4106 35.8448ZM62.3969 35.89L60.003 35.1694L60.0054 35.1615L62.3969 35.89ZM57.801 51.1577L60.1948 51.8783L59.5455 54.0354L57.3327 53.6134L57.801 51.1577ZM57.7972 51.1569L55.4201 50.3827L56.1021 48.2887L58.2655 48.7012L57.7972 51.1569ZM16.4995 43.2818L16.9671 40.8259L19.6322 41.3334L18.909 43.9482L16.4995 43.2818ZM16.496 43.2811L16.0284 45.737L13.3022 45.2179L14.1021 42.5605L16.496 43.2811ZM14.1716 42.3297C14.1795 42.3031 14.1874 42.2768 14.1952 42.2508L18.9831 43.6918C18.9774 43.7107 18.9718 43.7292 18.9665 43.7474L14.1716 42.3297ZM14.1952 42.2508C14.2032 42.2243 14.2112 42.198 14.2191 42.172L18.9999 43.6363C18.9942 43.6551 18.9885 43.6735 18.9831 43.6918L14.1952 42.2508ZM23.5327 28.5788L19.0034 43.6248L14.2156 42.1835L18.7449 27.1376L23.5327 28.5788ZM20.6678 30.3135L20.6673 30.3134L21.6102 25.4031L21.6108 25.4032L20.6678 30.3135ZM18.7512 27.1186C22.032 16.5269 34.9769 10.6873 47.1746 13.0133L46.238 17.9248C35.7159 15.9183 25.8304 21.163 23.5274 28.598L18.7512 27.1186ZM47.1746 13.0133C59.4171 15.3479 68.0464 25.4778 64.8429 36.4362L60.0437 35.0332C62.1266 27.9081 56.7154 19.9228 46.238 17.9248L47.1746 13.0133ZM61.971 38.1897L61.9706 38.1896L62.916 33.2798L62.9164 33.2799L61.971 38.1897ZM60.0303 35.0789L60.0498 35.0141L64.8376 36.4554L64.8181 36.5202L60.0303 35.0789ZM64.8204 36.5123C64.8152 36.53 64.8099 36.5478 64.8045 36.5654L60.0168 35.1242C60.0205 35.1117 60.0243 35.0992 60.0279 35.0868L64.8204 36.5123ZM64.8045 36.5655C64.7992 36.5831 64.7939 36.6008 64.7884 36.6185L60.0054 35.1615C60.0092 35.1491 60.013 35.1367 60.0168 35.1241L64.8045 36.5655ZM55.4071 50.437L60.0031 35.1694L64.7908 36.6107L60.1948 51.8783L55.4071 50.437ZM58.2655 48.7012L58.2693 48.7019L57.3327 53.6134L57.3289 53.6127L58.2655 48.7012ZM60.1743 51.9312C56.7733 62.3736 43.9387 68.1128 31.8251 65.8028L32.7617 60.8913C43.2002 62.8819 53.0266 57.7316 55.4201 50.3827L60.1743 51.9312ZM31.8251 65.8028C19.6703 63.485 11.0818 53.4912 14.0899 42.6153L18.909 43.9482C16.9525 51.0219 22.3645 58.9086 32.7617 60.8913L31.8251 65.8028ZM16.9637 40.8253L16.9671 40.8259L16.0318 45.7376L16.0284 45.737L16.9637 40.8253ZM18.9629 43.7592L18.8899 44.0017L14.1021 42.5605L14.1752 42.3179L18.9629 43.7592Z" fill="black" mask="url(#path-5-inside-1_206_1796)"/>
<path d="M26.9524 81.7492C27.4849 81.7454 27.9141 81.7283 28.2251 81.7106C29.5386 79.519 30.7689 76.0425 31.7482 72.3892C32.662 68.9803 33.323 65.5507 33.6267 63.1174C24.7685 60.1516 19.3477 50.7109 20.6849 41.0479C20.6868 41.0308 20.6887 41.0162 20.6901 41.0064C20.6932 40.9832 20.6969 40.9599 20.7001 40.9401C20.7067 40.8992 20.7155 40.848 20.7259 40.7897C20.747 40.6718 20.7775 40.5083 20.8165 40.306C20.8947 39.9007 21.0091 39.3308 21.1551 38.642C21.447 37.2651 21.8671 35.4052 22.3802 33.4309C22.8924 31.4598 23.5019 29.3563 24.1746 27.4987C24.8342 25.6774 25.5992 23.9621 26.4621 22.8642L26.6547 22.6191L26.94 22.4932C27.3729 22.302 27.8311 22.0843 28.3164 21.8538C30.6789 20.7315 33.6819 19.305 37.5303 19.15C42.2363 18.9605 48.0677 20.6364 55.8044 26.3489L57.096 27.3026L55.8548 28.3209C52.3253 31.2165 51.5419 35.0549 51.7095 38.4054C51.7695 39.605 51.9503 40.7199 52.166 41.681C52.1731 41.6341 52.1802 41.5867 52.1875 41.5388L52.1971 41.4751C52.2697 40.995 52.3515 40.4622 52.4728 39.9415C52.714 38.9067 53.151 37.7307 54.2031 36.8793C55.2644 36.0205 56.7313 35.6661 58.6514 35.7752L60.1015 35.8576L59.804 37.2792L57.1022 50.1893L57.0901 50.247L57.0727 50.3033C56.0812 53.5025 54.3867 56.2867 52.2147 58.4973C52.2069 58.5109 52.1984 58.5256 52.1894 58.5413C52.1232 58.6565 52.027 58.8268 51.9101 59.0414C51.6759 59.4715 51.3607 60.0757 51.038 60.7701C50.3748 62.1974 49.7485 63.8627 49.6309 65.1646C49.5115 66.486 49.8412 68.2649 50.2519 69.8131C50.3877 70.3247 50.5275 70.7941 50.653 71.1908C51.7484 70.8729 52.8013 70.9921 53.7494 71.5539C54.9589 72.2707 55.7678 73.5831 56.3277 74.8777C57.2102 76.9181 57.6932 79.4441 57.953 81.2945C63.425 79.9862 67.6753 78.6758 70.6078 77.6705C72.1925 77.1272 73.3923 76.6731 74.192 76.3565C74.4835 76.2411 74.7218 76.1439 74.9062 76.0674C74.9142 76.0453 74.9225 76.0223 74.931 75.9986C75.0614 75.6354 75.2445 75.0963 75.4488 74.4081C75.858 73.0305 76.3505 71.0623 76.6788 68.7158C77.3373 64.0098 77.324 57.8648 74.7388 51.9128C74.3278 50.9667 73.8051 49.9787 73.2327 48.8967C70.9758 44.6308 67.9462 38.904 67.9462 28.5245C67.9462 14.2647 54.2654 4.32763 41.3681 4.32764C37.8103 4.32764 35.1017 4.7478 32.9694 6.05917C30.8737 7.34802 29.1426 9.62127 27.8254 13.7589C27.5676 14.5685 26.6858 15.1183 25.7786 14.8187C23.41 14.0365 19.59 14.8078 16.2566 17.0233C12.9684 19.2087 10.5156 22.5629 10.5156 26.5219C10.5156 30.157 11.1235 32.604 11.7335 35.0512L11.7347 35.0558C12.4819 38.0535 13.2253 41.036 12.7049 45.8566C12.528 47.4957 12.1628 48.7011 11.63 49.7218C11.1173 50.704 10.4737 51.4614 9.85931 52.1844L9.8255 52.2242C8.39374 53.9093 7.79881 55.2288 7.61023 56.3218C7.42298 57.4071 7.61067 58.4125 8.01217 59.5376C8.21581 60.1083 8.46542 60.6862 8.74271 61.3238L8.76923 61.3848C9.03414 61.9938 9.32094 62.6531 9.57951 63.3492C10.1198 64.8036 10.5554 66.4637 10.5122 68.4411C10.4762 70.092 10.1871 71.2875 9.71365 72.2302C9.25132 73.1506 8.65199 73.7417 8.1982 74.1892L8.17107 74.2159C7.74846 74.6328 7.49039 74.8986 7.29958 75.2594C7.17223 75.5001 7.05399 75.828 6.99667 76.3242C12.4504 79.5338 17.8212 80.8805 21.8822 81.4184C23.9896 81.6975 25.738 81.7579 26.9524 81.7492Z" fill="url(#paint0_linear_206_1796)" stroke="black" stroke-width="2.5"/>
<path d="M40.6991 50.0727C39.5142 51.6189 37.7185 53.3319 34.9486 52.9413C32.1786 52.5507 30.9461 50.6399 31.3095 49.0925" stroke="black" stroke-width="2.5" stroke-linecap="round"/>
</g>
<defs>
<linearGradient id="paint0_linear_206_1796" x1="42.0017" y1="3.07764" x2="42.0017" y2="83" gradientUnits="userSpaceOnUse">
<stop offset="0.148958" stop-color="#E4800B"/>
<stop offset="1" stop-color="#E00404"/>
</linearGradient>
</defs>
</svg>
