<?xml version="1.0" standalone="no"?>
<!DOCTYPE svg PUBLIC "-//W3C//DTD SVG 20010904//EN"
 "http://www.w3.org/TR/2001/REC-SVG-20010904/DTD/svg10.dtd">
<svg version="1.0" xmlns="http://www.w3.org/2000/svg"
 width="240.000000pt" height="240.000000pt" viewBox="0 0 240.000000 240.000000"
 preserveAspectRatio="xMidYMid meet">

<g transform="translate(0.000000,240.000000) scale(0.100000,-0.100000)"
fill="#000000" stroke="none">
<path d="M1080 2053 c-23 -4 -25 -8 -22 -40 7 -61 -49 -76 -68 -18 -6 19 -14
35 -18 35 -3 0 -26 -7 -50 -17 -34 -13 -42 -20 -38 -35 3 -10 9 -26 12 -36 4
-13 -2 -22 -21 -30 -14 -7 -27 -12 -28 -12 -1 0 -11 16 -21 35 l-19 35 -36
-22 c-53 -32 -54 -33 -36 -69 17 -32 17 -33 -6 -52 -24 -19 -24 -19 -47 12
l-24 30 -39 -31 c-21 -17 -39 -34 -39 -38 0 -3 10 -16 21 -29 19 -20 20 -26 9
-47 -16 -29 -31 -30 -55 -4 -10 11 -22 20 -26 20 -4 0 -21 -19 -38 -42 l-31
-42 30 -20 c33 -23 36 -33 16 -59 -13 -17 -16 -17 -46 -2 -18 9 -33 15 -35 13
-1 -2 -12 -23 -25 -47 -23 -47 -20 -54 28 -67 24 -7 25 -8 15 -42 -5 -22 -10
-23 -48 -18 l-42 7 -7 -38 c-10 -65 -8 -70 29 -77 31 -6 35 -11 35 -36 0 -29
-2 -30 -42 -30 l-43 0 -2 -50 -3 -49 43 -3 c39 -3 42 -5 45 -35 3 -29 0 -33
-20 -33 -42 0 -50 -13 -43 -65 l8 -47 38 6 c36 6 40 4 49 -20 6 -15 9 -28 8
-29 -2 -1 -18 -7 -36 -15 -18 -7 -31 -18 -29 -24 2 -6 10 -28 18 -49 11 -31
17 -37 34 -32 51 16 60 16 73 -5 14 -23 13 -24 -41 -61 -10 -7 41 -89 55 -89
6 0 22 9 38 20 27 19 27 19 45 0 18 -19 18 -21 -2 -43 -35 -39 -34 -44 8 -78
l42 -33 23 27 c27 32 31 32 56 11 17 -16 17 -18 -2 -50 l-21 -33 47 -27 c50
-30 48 -30 80 22 9 16 15 17 37 7 26 -12 26 -13 11 -48 -14 -35 -14 -35 13
-46 16 -6 40 -13 54 -16 24 -4 28 -1 34 26 8 37 13 41 46 34 25 -4 26 -8 22
-42 -5 -37 -5 -38 33 -44 69 -12 73 -10 76 31 3 32 7 37 30 40 25 3 28 0 34
-37 7 -44 16 -48 80 -35 27 5 29 9 26 43 -4 35 -1 39 23 43 27 6 27 5 50 -60
3 -9 14 -8 47 4 58 23 61 27 46 59 -11 24 -10 29 7 41 28 21 41 17 55 -16 7
-17 16 -30 21 -30 7 0 74 36 88 47 3 2 -3 17 -13 34 -18 31 -18 31 3 53 l22
21 23 -27 c12 -16 26 -28 32 -28 6 0 25 16 44 35 l34 35 -27 28 -27 29 20 18
c17 16 24 17 38 7 38 -27 45 -26 79 14 l33 39 -31 25 c-28 24 -29 28 -18 52
11 26 13 26 40 13 40 -21 43 -20 67 30 l22 45 -33 16 c-17 9 -33 18 -35 19 -2
1 0 14 4 28 6 25 9 26 49 20 l43 -5 8 47 c7 51 -2 65 -43 65 -19 0 -23 6 -23
30 0 28 2 30 39 30 22 0 42 3 44 8 2 4 2 28 -1 55 l-4 47 -39 0 c-37 0 -39 2
-39 30 0 25 5 31 33 38 31 8 32 11 30 56 -1 26 -4 50 -7 54 -3 3 -22 0 -42 -6
-33 -10 -36 -9 -45 14 -13 36 -12 41 14 48 46 12 49 19 28 69 -22 52 -25 53
-61 32 -34 -19 -35 -19 -49 12 -13 28 -12 29 32 54 16 9 16 12 2 37 -41 68
-41 68 -76 43 l-31 -23 -20 20 -20 20 23 31 23 32 -38 37 -37 37 -22 -27 c-26
-31 -34 -33 -60 -14 -17 14 -18 16 -2 47 19 36 16 42 -46 74 -24 13 -26 12
-43 -20 -18 -33 -19 -34 -47 -19 -25 12 -27 17 -19 40 15 37 13 43 -15 54 -65
25 -73 24 -80 -9 -8 -37 -13 -41 -47 -34 -26 5 -27 8 -22 43 l6 37 -46 7 c-57
9 -66 4 -66 -40 0 -34 -1 -35 -32 -32 -30 3 -33 6 -36 41 -3 39 -9 42 -82 30z
m240 -53 c0 -40 11 -50 56 -50 19 0 28 8 35 30 12 32 23 36 63 20 23 -8 25
-12 16 -35 -16 -41 -12 -50 23 -63 45 -16 44 -16 62 18 15 29 15 29 45 12 35
-20 36 -24 13 -58 -16 -25 -16 -26 13 -49 38 -31 48 -31 73 3 l20 27 27 -27
28 -28 -23 -31 -23 -31 29 -30 29 -29 29 22 28 23 23 -30 c25 -30 30 -44 17
-44 -5 0 -18 -9 -31 -18 l-24 -18 22 -37 c21 -36 22 -36 50 -22 37 19 47 19
53 -2 2 -10 8 -25 11 -34 5 -10 -3 -20 -28 -31 -34 -17 -34 -17 -24 -58 l11
-41 43 7 c40 6 44 4 44 -14 0 -11 3 -27 6 -36 4 -11 -5 -18 -36 -26 -31 -8
-40 -15 -36 -26 3 -9 6 -27 6 -40 0 -21 4 -24 40 -24 l40 0 0 -40 0 -40 -40 0
c-39 0 -40 -1 -40 -35 0 -19 0 -38 -1 -42 0 -5 15 -12 35 -17 31 -8 35 -12 30
-35 -11 -50 -11 -50 -49 -41 -32 7 -37 6 -44 -13 -23 -62 -23 -64 11 -77 18
-8 34 -15 36 -16 2 -1 -4 -16 -13 -34 -12 -24 -21 -30 -36 -26 -10 3 -28 9
-38 12 -15 4 -23 -2 -35 -25 -21 -40 -21 -44 14 -64 l30 -18 -26 -34 -26 -34
-29 21 -29 22 -30 -29 -30 -29 27 -28 27 -28 -27 -27 -27 -27 -29 28 -29 28
-31 -23 c-35 -25 -37 -35 -16 -63 21 -28 19 -33 -17 -52 -30 -16 -33 -16 -43
1 -28 47 -28 47 -69 30 -27 -11 -36 -20 -32 -31 20 -53 18 -60 -19 -71 -34
-11 -37 -10 -46 13 -5 14 -9 30 -9 36 0 6 -14 8 -37 3 -51 -9 -52 -11 -46 -50
5 -30 3 -35 -13 -35 -11 0 -29 -3 -41 -6 -21 -6 -23 -3 -23 35 l0 41 -44 0
c-43 0 -44 -1 -49 -38 -6 -37 -7 -38 -46 -34 -39 4 -39 4 -34 41 5 34 2 39
-18 44 -52 14 -66 9 -73 -28 -8 -40 -6 -39 -51 -21 -32 14 -34 17 -25 41 16
42 12 50 -26 64 -31 11 -38 11 -45 0 -4 -8 -14 -22 -22 -33 -14 -19 -20 -18
-76 20 -2 2 7 17 19 34 22 30 22 32 4 46 -47 37 -55 38 -79 8 l-22 -27 -31 23
-31 23 25 32 25 33 -27 31 -26 32 -33 -26 -33 -25 -21 33 -21 32 30 25 30 25
-20 34 c-16 25 -26 32 -40 27 -11 -3 -28 -9 -39 -12 -14 -4 -21 2 -30 27 -14
42 -16 38 19 50 32 12 37 29 21 72 -9 23 -13 24 -45 17 -40 -9 -41 -8 -50 36
-7 30 -5 32 29 40 20 5 36 12 36 17 -1 4 -1 23 -1 42 0 34 -1 35 -40 35 l-40
0 0 40 0 40 40 0 c40 0 40 0 40 39 0 40 -11 51 -52 51 -16 0 -19 5 -14 23 3
12 6 30 6 41 0 16 5 17 43 12 l43 -7 11 41 c10 41 10 41 -23 55 -39 16 -39 16
-19 55 18 35 17 35 54 15 31 -16 37 -13 61 34 11 21 9 26 -19 50 l-31 26 24
29 24 29 27 -22 c36 -27 40 -27 65 9 l21 30 -22 31 -22 31 29 23 29 23 25 -29
25 -30 34 29 c34 28 34 29 18 53 -23 33 -21 41 14 61 l30 18 20 -35 21 -35 38
20 c37 19 39 21 28 51 -12 36 -3 49 37 52 24 2 29 -3 37 -31 7 -24 13 -32 26
-28 9 2 29 7 44 10 24 5 26 9 21 46 l-6 40 42 0 c40 0 41 -1 41 -35 0 -35 0
-35 44 -35 43 0 44 1 50 38 5 37 7 38 41 34 33 -4 35 -6 35 -42z"/>
<path d="M1200 1925 c0 -10 -11 -15 -37 -16 -33 -1 -34 -2 -13 -8 21 -6 22 -8
8 -14 -10 -3 -17 -14 -17 -24 1 -17 2 -17 6 0 2 9 9 17 15 17 6 0 8 -9 5 -20
-3 -11 -1 -23 4 -26 5 -3 9 4 9 15 0 11 5 23 12 27 8 5 9 0 6 -14 -7 -25 7
-30 16 -7 3 8 -4 21 -17 30 -21 15 -21 15 12 15 33 0 33 -1 28 -35 -3 -19 -2
-35 4 -35 13 0 11 84 -3 98 -17 17 -38 15 -38 -3z m30 -5 c0 -5 -4 -10 -10
-10 -5 0 -10 5 -10 10 0 6 5 10 10 10 6 0 10 -4 10 -10z"/>
<path d="M1010 1910 c0 -21 25 -100 31 -100 4 0 4 14 -1 31 -5 18 -7 36 -4 40
3 5 0 9 -6 9 -7 0 -10 7 -6 15 3 8 1 15 -4 15 -6 0 -10 -4 -10 -10z"/>
<path d="M1056 1912 c6 -4 10 -19 8 -34 -1 -16 2 -28 7 -28 5 0 9 9 9 20 0 11
5 20 10 20 6 0 10 -13 10 -29 0 -17 5 -33 12 -37 8 -5 9 0 5 17 -4 13 -7 31
-7 40 0 9 -11 21 -25 27 -29 13 -46 16 -29 4z"/>
<path d="M950 1900 c0 -5 5 -10 10 -10 24 0 7 -19 -26 -30 -26 -9 -33 -15 -23
-21 8 -5 15 -4 17 1 6 16 22 1 22 -20 0 -20 -17 -36 -28 -25 -3 3 0 11 8 16
13 9 12 10 -2 6 -9 -3 -18 -1 -21 6 -2 6 -6 7 -9 1 -11 -17 19 -47 39 -39 10
5 24 7 31 6 10 -2 9 6 -2 33 -12 30 -13 36 -1 36 7 0 16 -13 20 -30 4 -16 10
-30 15 -30 5 0 5 14 0 31 -5 18 -8 35 -6 38 2 3 -7 14 -20 24 -13 10 -24 13
-24 7z"/>
<path d="M1350 1880 c14 -9 7 -15 -14 -11 -5 1 -6 -8 -2 -21 3 -13 6 -26 6
-30 0 -5 4 -8 9 -8 5 0 7 10 4 21 -4 16 -2 20 8 17 8 -3 14 -15 13 -27 -1 -34
11 -24 23 19 8 32 8 40 -3 40 -8 0 -11 -6 -8 -15 4 -8 1 -15 -5 -15 -6 0 -11
9 -11 20 0 12 -7 20 -17 20 -15 0 -16 -2 -3 -10z"/>
<path d="M1440 1844 c0 -8 -4 -12 -10 -9 -12 8 -13 -25 -1 -43 6 -10 10 -8 13
10 3 12 9 31 13 41 4 10 3 17 -4 17 -6 0 -11 -7 -11 -16z"/>
<path d="M820 1836 c0 -8 9 -17 19 -21 10 -3 24 -19 31 -36 17 -40 26 -28 10
13 -19 47 -60 77 -60 44z"/>
<path d="M1471 1827 c-6 -8 -8 -22 -5 -32 6 -15 9 -13 21 11 7 16 11 21 8 12
-2 -10 0 -18 6 -18 14 0 7 32 -7 37 -6 2 -16 -3 -23 -10z"/>
<path d="M1530 1807 c0 -8 -10 -19 -22 -25 -13 -6 -17 -11 -10 -11 7 -1 10 -5
7 -11 -3 -5 -2 -10 3 -10 5 0 15 11 22 25 14 25 30 33 30 15 0 -6 -7 -22 -16
-35 -10 -15 -12 -25 -5 -25 6 0 11 4 11 8 0 5 9 18 20 30 l20 21 -30 16 c-25
13 -30 13 -30 2z"/>
<path d="M802 1792 l-22 -17 25 -19 c13 -10 22 -24 19 -30 -3 -6 0 -4 8 5 7 9
19 14 27 11 10 -3 7 5 -7 25 -12 17 -19 33 -15 37 14 14 -13 4 -35 -12z m28
-28 c0 -8 -4 -12 -10 -9 -5 3 -10 13 -10 21 0 8 5 12 10 9 6 -3 10 -13 10 -21z"/>
<path d="M1115 1769 c-239 -35 -436 -212 -490 -440 -48 -204 8 -404 154 -550
153 -153 354 -211 555 -159 114 29 190 73 276 160 343 345 143 922 -344 989
-43 6 -80 10 -84 10 -4 -1 -34 -5 -67 -10z m225 -24 c179 -48 327 -182 397
-362 23 -60 27 -83 27 -188 1 -101 -3 -131 -22 -187 -60 -174 -201 -313 -374
-369 -103 -33 -243 -33 -347 1 -152 49 -281 163 -346 305 -105 227 -62 470
114 646 78 78 177 137 267 158 62 14 223 12 284 -4z"/>
<path d="M1288 1639 c4 -28 3 -29 -21 -20 -27 11 -44 0 -32 -19 10 -16 52 -12
59 6 9 22 7 52 -2 58 -5 3 -6 -8 -4 -25z m-8 -35 c0 -2 -9 -4 -20 -4 -11 0
-20 4 -20 9 0 5 9 7 20 4 11 -3 20 -7 20 -9z"/>
<path d="M1101 1643 c-2 -35 10 -53 34 -53 29 0 42 17 26 33 -9 9 -11 8 -6 -5
6 -14 2 -18 -16 -18 -20 0 -21 2 -9 11 13 9 13 10 -2 5 -12 -3 -18 2 -21 22
-3 21 -4 22 -6 5z"/>
<path d="M971 1604 c-1 -27 24 -51 35 -33 4 7 3 9 -4 5 -6 -3 -15 6 -20 21 -9
24 -11 25 -11 7z"/>
<path d="M1414 1596 c-5 -13 -14 -15 -36 -11 -25 6 -29 4 -26 -12 5 -29 44
-28 64 2 9 14 14 28 11 32 -4 3 -9 -2 -13 -11z m-24 -32 c0 -2 -7 -4 -15 -4
-8 0 -15 4 -15 10 0 5 7 7 15 4 8 -4 15 -8 15 -10z"/>
<path d="M1024 1588 c-5 -7 -3 -8 6 -3 10 6 12 4 7 -8 -3 -10 -2 -17 3 -17 6
0 10 9 10 20 0 22 -15 27 -26 8z"/>
<path d="M1176 1572 c-20 -27 -20 -27 0 -10 19 17 21 17 39 0 18 -16 18 -16 0
8 -11 14 -20 26 -20 27 0 0 -9 -11 -19 -25z"/>
<path d="M1080 1576 c0 -2 8 -10 18 -17 15 -13 16 -12 3 4 -13 16 -21 21 -21
13z"/>
<path d="M1289 1563 c-13 -16 -12 -17 4 -4 9 7 17 15 17 17 0 8 -8 3 -21 -13z"/>
<path d="M861 1539 c-1 -27 24 -58 36 -45 4 3 -1 12 -9 19 -9 6 -18 21 -21 32
-4 16 -5 14 -6 -6z"/>
<path d="M1310 1554 c0 -20 38 -46 62 -41 21 4 21 4 -4 6 -15 0 -34 11 -42 23
-9 12 -16 18 -16 12z"/>
<path d="M915 1530 c-4 -6 -4 -14 -1 -17 3 -4 6 -1 6 6 0 7 5 9 12 5 7 -5 5
-11 -7 -21 -11 -7 -14 -13 -8 -13 6 0 16 6 22 14 8 10 8 16 -3 25 -10 9 -16 9
-21 1z"/>
<path d="M970 1530 c0 -5 5 -10 11 -10 5 0 7 5 4 10 -3 6 -8 10 -11 10 -2 0
-4 -4 -4 -10z"/>
<path d="M1055 1531 c-6 -5 -21 -11 -35 -14 l-25 -4 26 -2 c15 0 32 6 39 14
14 16 10 21 -5 6z"/>
<path d="M1405 1530 c-3 -5 -1 -10 4 -10 6 0 11 5 11 10 0 6 -2 10 -4 10 -3 0
-8 -4 -11 -10z"/>
<path d="M1450 1511 c0 -22 28 -35 53 -25 16 6 31 33 22 42 -3 3 -5 0 -5 -6 0
-7 -9 -12 -20 -12 -11 0 -20 5 -20 10 0 6 -7 10 -15 10 -8 0 -15 -9 -15 -19z
m30 -6 c11 -13 10 -14 -4 -9 -9 3 -16 10 -16 15 0 13 6 11 20 -6z"/>
<path d="M1128 1513 c7 -3 16 -2 19 1 4 3 -2 6 -13 5 -11 0 -14 -3 -6 -6z"/>
<path d="M1248 1513 c7 -3 16 -2 19 1 4 3 -2 6 -13 5 -11 0 -14 -3 -6 -6z"/>
<path d="M1220 1480 c6 -11 13 -20 16 -20 2 0 0 9 -6 20 -6 11 -13 20 -16 20
-2 0 0 -9 6 -20z"/>
<path d="M1306 1462 c-3 -5 1 -9 9 -9 8 0 12 4 9 9 -3 4 -7 8 -9 8 -2 0 -6 -4
-9 -8z"/>
<path d="M886 1445 c4 -8 8 -15 10 -15 2 0 4 7 4 15 0 8 -4 15 -10 15 -5 0 -7
-7 -4 -15z"/>
<path d="M979 1443 c-13 -16 -12 -17 4 -4 9 7 17 15 17 17 0 8 -8 3 -21 -13z"/>
<path d="M1425 1420 c21 -22 41 -40 44 -40 3 0 -13 18 -34 40 -21 22 -41 40
-44 40 -3 0 13 -18 34 -40z"/>
<path d="M831 1431 c-14 -26 -36 -27 -50 -3 -6 9 -11 12 -11 6 0 -18 37 -46
56 -42 25 5 41 35 27 49 -8 8 -14 6 -22 -10z m16 -16 c-4 -8 -11 -15 -17 -15
-6 0 -6 7 2 20 14 22 24 19 15 -5z"/>
<path d="M1532 1418 c4 -34 55 -32 75 2 13 22 13 23 0 8 -18 -22 -47 -23 -47
-3 0 8 -7 15 -16 15 -10 0 -14 -7 -12 -22z"/>
<path d="M929 1393 c-13 -16 -12 -17 4 -4 16 13 21 21 13 21 -2 0 -10 -8 -17
-17z"/>
<path d="M1394 1393 c2 -10 6 -17 10 -16 15 3 16 11 2 22 -12 10 -14 9 -12 -6z"/>
<path d="M878 1378 c-10 -10 -14 -18 -9 -18 10 0 36 29 30 34 -2 1 -12 -6 -21
-16z"/>
<path d="M1490 1386 c0 -2 8 -10 18 -17 15 -13 16 -12 3 4 -13 16 -21 21 -21
13z"/>
<path d="M945 1361 c-3 -5 -2 -12 3 -15 5 -3 9 1 9 9 0 17 -3 19 -12 6z"/>
<path d="M1487 1335 c9 -19 18 -33 21 -31 4 5 -26 66 -33 66 -3 0 3 -16 12
-35z"/>
<path d="M820 1356 c0 -2 7 -9 15 -16 13 -11 14 -10 9 4 -5 14 -24 23 -24 12z"/>
<path d="M1410 1356 c0 -2 9 -6 20 -9 11 -3 18 -1 14 4 -5 9 -34 13 -34 5z"/>
<path d="M780 1323 c0 -14 2 -15 9 -4 7 11 10 11 14 -3 5 -15 5 -15 3 0 -2 24
-26 30 -26 7z"/>
<path d="M935 1331 c3 -5 -1 -11 -7 -14 -7 -3 -3 -4 10 -4 25 1 29 12 6 21 -8
3 -13 2 -9 -3z"/>
<path d="M1193 1290 c0 -25 2 -35 4 -22 2 12 2 32 0 45 -2 12 -4 2 -4 -23z"/>
<path d="M1580 1311 c0 -29 27 -46 57 -35 15 5 28 16 31 24 4 12 2 13 -9 3
-21 -20 -49 -16 -49 7 0 11 -7 20 -15 20 -8 0 -15 -8 -15 -19z"/>
<path d="M1531 1304 c0 -11 3 -14 6 -6 3 7 2 16 -1 19 -3 4 -6 -2 -5 -13z"/>
<path d="M729 1298 c8 -11 27 -18 45 -18 22 0 27 3 17 9 -8 5 -20 7 -28 4 -7
-3 -21 1 -31 8 -15 13 -16 12 -3 -3z"/>
<path d="M1216 1295 c-3 -9 -6 -22 -5 -28 0 -7 5 -1 10 12 5 13 8 26 5 28 -2
2 -6 -3 -10 -12z"/>
<path d="M1108 1276 c25 -33 23 -43 -7 -26 -12 6 -21 8 -21 6 0 -3 14 -13 31
-22 17 -8 28 -11 25 -5 -4 6 -2 12 3 12 6 1 17 2 23 3 7 0 14 10 15 21 l3 20
-9 -20 c-5 -11 -10 -15 -10 -9 -1 5 -8 19 -17 30 -15 18 -15 18 -5 -3 18 -36
13 -38 -21 -7 l-32 29 22 -29z"/>
<path d="M831 1267 c-13 -21 -12 -21 5 -5 10 10 16 20 13 22 -3 3 -11 -5 -18
-17z"/>
<path d="M1274 1272 c-11 -10 -21 -25 -21 -34 0 -15 3 -15 29 -2 15 8 28 17
28 20 0 2 -9 0 -19 -6 -32 -17 -36 -12 -11 15 27 29 24 32 -6 7z"/>
<path d="M1235 1269 c-4 -6 -5 -12 -2 -15 2 -3 7 2 10 11 7 17 1 20 -8 4z"/>
<path d="M1540 1276 c0 -2 8 -10 18 -17 15 -13 16 -12 3 4 -13 16 -21 21 -21
13z"/>
<path d="M861 1234 c0 -11 3 -14 6 -6 3 7 2 16 -1 19 -3 4 -6 -2 -5 -13z"/>
<path d="M1522 1230 c0 -14 2 -19 5 -12 2 6 2 18 0 25 -3 6 -5 1 -5 -13z"/>
<path d="M1565 1230 c-26 -28 -15 -31 12 -3 12 13 19 23 14 23 -4 0 -16 -9
-26 -20z"/>
<path d="M759 1213 c-1 -5 -1 -15 0 -25 3 -23 -15 -31 -41 -18 -22 11 -22 10
-4 -4 23 -19 31 -19 57 -6 23 13 26 60 4 60 -8 0 -16 -3 -16 -7z m21 -23 c0
-11 -2 -20 -4 -20 -2 0 -6 9 -9 20 -3 11 -1 20 4 20 5 0 9 -9 9 -20z"/>
<path d="M1098 1213 c7 -3 16 -2 19 1 4 3 -2 6 -13 5 -11 0 -14 -3 -6 -6z"/>
<path d="M1278 1213 c7 -3 16 -2 19 1 4 3 -2 6 -13 5 -11 0 -14 -3 -6 -6z"/>
<path d="M831 1194 c0 -11 3 -14 6 -6 3 7 2 16 -1 19 -3 4 -6 -2 -5 -13z"/>
<path d="M1602 1183 c2 -23 9 -29 34 -31 20 -2 35 3 44 15 12 15 12 16 0 6
-24 -22 -50 -16 -50 12 0 16 -6 25 -16 25 -11 0 -14 -8 -12 -27z"/>
<path d="M1278 1193 c7 -3 16 -2 19 1 4 3 -2 6 -13 5 -11 0 -14 -3 -6 -6z"/>
<path d="M808 1149 c-15 -16 -15 -18 0 -24 9 -3 13 -3 9 1 -4 4 -2 13 5 21 17
20 5 22 -14 2z"/>
<path d="M1098 1163 c7 -3 16 -2 19 1 4 3 -2 6 -13 5 -11 0 -14 -3 -6 -6z"/>
<path d="M1278 1163 c7 -3 16 -2 19 1 4 3 -2 6 -13 5 -11 0 -14 -3 -6 -6z"/>
<path d="M1522 1150 c0 -14 2 -19 5 -12 2 6 2 18 0 25 -3 6 -5 1 -5 -13z"/>
<path d="M861 1144 c0 -11 3 -14 6 -6 3 7 2 16 -1 19 -3 4 -6 -2 -5 -13z"/>
<path d="M1108 1144 c-16 -8 -28 -17 -28 -20 0 -2 9 0 19 6 26 14 38 13 23 -2
-17 -17 -15 -33 3 -18 18 15 19 7 4 -23 -9 -19 -7 -18 10 3 22 27 28 45 11 35
-9 -6 -14 8 -11 28 1 9 1 9 -31 -9z"/>
<path d="M1254 1151 c7 -10 -6 -15 -27 -12 -4 1 -1 -12 8 -29 9 -16 18 -30 21
-30 2 0 0 9 -6 19 -16 31 -12 36 11 15 22 -19 22 -19 10 4 -13 24 -9 27 20 12
10 -6 19 -8 19 -6 0 3 -14 13 -31 22 -17 8 -28 11 -25 5z"/>
<path d="M1567 1150 c9 -10 7 -17 -10 -32 -22 -19 -22 -19 8 -2 17 10 31 18
32 19 1 0 -8 7 -20 14 -16 10 -19 10 -10 1z"/>
<path d="M1166 1104 c-4 -14 -5 -28 -3 -31 3 -2 8 8 11 23 4 14 5 28 3 31 -3
2 -8 -8 -11 -23z"/>
<path d="M1193 1085 c0 -27 2 -38 4 -22 2 15 2 37 0 50 -2 12 -4 0 -4 -28z"/>
<path d="M1211 1110 c0 -8 4 -22 9 -30 12 -18 12 -2 0 25 -6 13 -9 15 -9 5z"/>
<path d="M775 1070 c7 -32 6 -32 -23 -28 -17 2 -29 1 -26 -4 9 -13 61 -9 74 7
16 19 9 49 -14 53 -15 3 -17 -1 -11 -28z m25 -2 c0 -19 -2 -20 -10 -8 -13 19
-13 30 0 30 6 0 10 -10 10 -22z"/>
<path d="M1587 1093 c-11 -11 -8 -48 5 -61 15 -15 54 -16 63 -2 3 6 -1 7 -10
4 -22 -9 -48 15 -34 32 17 20 -6 46 -24 27z"/>
<path d="M1531 1074 c0 -11 3 -14 6 -6 3 7 2 16 -1 19 -3 4 -6 -2 -5 -13z"/>
<path d="M830 1035 c-7 -9 -8 -15 -2 -15 5 0 12 7 16 15 3 8 4 15 2 15 -2 0
-9 -7 -16 -15z"/>
<path d="M878 1002 c9 -10 19 -17 21 -16 6 5 -20 34 -30 34 -5 0 -1 -8 9 -18z"/>
<path d="M1499 1003 c-13 -16 -12 -17 4 -4 16 13 21 21 13 21 -2 0 -10 -8 -17
-17z"/>
<path d="M1459 993 c-13 -16 -12 -17 4 -4 16 13 21 21 13 21 -2 0 -10 -8 -17
-17z"/>
<path d="M815 981 c-3 -5 -1 -12 5 -16 19 -12 11 -43 -12 -48 -20 -4 -19 -4 4
-6 31 -1 53 28 43 59 -7 21 -30 27 -40 11z m29 -17 c5 -14 4 -15 -9 -4 -17 14
-19 20 -6 20 5 0 12 -7 15 -16z"/>
<path d="M1530 970 c-7 -14 -8 -26 0 -39 10 -20 47 -37 57 -28 2 3 -5 8 -16
12 -23 7 -27 25 -10 42 12 12 4 33 -11 33 -5 0 -14 -9 -20 -20z"/>
<path d="M955 950 c10 -11 20 -20 23 -20 3 0 -3 9 -13 20 -10 11 -20 20 -23
20 -3 0 3 -9 13 -20z"/>
<path d="M1429 953 c-13 -16 -12 -17 4 -4 16 13 21 21 13 21 -2 0 -10 -8 -17
-17z"/>
<path d="M886 935 c-3 -8 -1 -15 4 -15 6 0 10 7 10 15 0 8 -2 15 -4 15 -2 0
-6 -7 -10 -15z"/>
<path d="M994 921 c7 -11 46 -35 46 -28 0 3 -12 12 -26 22 -15 9 -23 12 -20 6z"/>
<path d="M1256 918 c3 -5 10 -6 15 -3 13 9 11 12 -6 12 -8 0 -12 -4 -9 -9z"/>
<path d="M1370 909 c-22 -18 -22 -19 -3 -10 12 6 25 16 28 21 9 15 3 12 -25
-11z"/>
<path d="M1420 915 c-7 -9 -11 -17 -9 -20 3 -2 10 5 17 15 14 24 10 26 -8 5z"/>
<path d="M968 879 c2 -16 8 -29 12 -29 9 0 1 48 -9 55 -4 2 -5 -9 -3 -26z"/>
<path d="M890 889 c0 -6 7 -17 17 -24 19 -14 11 -33 -21 -45 l-21 -9 22 0 c30
-1 61 44 46 68 -12 20 -43 27 -43 10z"/>
<path d="M1310 880 c-8 -5 -10 -10 -5 -10 6 0 17 5 25 10 8 5 11 10 5 10 -5 0
-17 -5 -25 -10z"/>
<path d="M1445 870 c-7 -22 10 -60 27 -60 6 0 6 6 -3 16 -11 14 -10 18 9 33
24 18 20 31 -9 31 -10 0 -20 -9 -24 -20z"/>
<path d="M1008 863 c6 -2 18 -2 25 0 6 3 1 5 -13 5 -14 0 -19 -2 -12 -5z"/>
<path d="M1371 866 c2 -2 15 -9 29 -15 24 -11 24 -11 6 3 -16 13 -49 24 -35
12z"/>
<path d="M1178 853 c12 -2 30 -2 40 0 9 3 -1 5 -23 4 -22 0 -30 -2 -17 -4z"/>
<path d="M990 815 c0 -8 7 -15 15 -15 22 0 30 -27 14 -47 -12 -14 -12 -16 1
-11 23 7 36 54 20 72 -16 20 -50 21 -50 1z"/>
<path d="M1076 817 c3 -10 9 -15 12 -12 3 3 0 11 -7 18 -10 9 -11 8 -5 -6z"/>
<path d="M1175 810 c11 -14 20 -26 21 -28 1 -2 5 5 8 15 4 9 4 14 0 10 -4 -4
-17 1 -28 10 l-21 18 20 -25z"/>
<path d="M1288 812 c9 -10 19 -17 21 -16 6 5 -20 34 -30 34 -5 0 -1 -8 9 -18z"/>
<path d="M1346 815 c-9 -9 -16 -23 -16 -31 0 -20 36 -54 58 -54 12 0 10 4 -8
13 -33 16 -39 47 -10 47 15 0 20 5 18 17 -4 23 -23 27 -42 8z"/>
<path d="M1100 776 c0 -9 9 -16 20 -16 26 0 36 -25 19 -48 -13 -15 -12 -16 4
-3 12 10 17 25 15 45 -2 25 -8 32 -30 34 -20 2 -28 -1 -28 -12z"/>
<path d="M1222 778 c-16 -16 -15 -40 1 -63 13 -16 14 -15 9 14 -4 30 -2 32 19
29 16 -2 24 2 24 12 0 19 -36 25 -53 8z"/>
<path d="M1613 1763 c11 -13 14 -23 8 -27 -5 -4 -12 -2 -16 4 -8 13 -25 13
-25 0 0 -5 7 -10 15 -10 17 0 20 -16 5 -25 -5 -3 -10 -12 -10 -18 0 -7 13 2
27 18 15 17 30 29 35 28 16 -5 8 3 -24 27 -29 20 -31 21 -15 3z"/>
<path d="M685 1700 c-16 -16 -39 -30 -51 -30 -28 0 -40 -16 -25 -34 7 -9 6
-19 -5 -37 l-16 -24 21 24 c19 21 23 22 39 9 40 -35 43 -26 3 11 -28 27 -38
41 -27 41 9 0 16 -5 16 -11 0 -5 4 -8 9 -5 4 3 16 -3 26 -14 10 -11 23 -20 28
-20 6 0 -2 13 -17 28 -24 26 -25 30 -11 42 15 12 16 11 19 -12 2 -18 22 -20
36 -3 10 12 16 13 26 4 23 -19 15 4 -11 34 -13 15 -26 27 -28 27 -2 0 -16 -13
-32 -30z m42 -5 c8 -22 -6 -33 -17 -15 -13 20 -12 30 0 30 6 0 13 -7 17 -15z"/>
<path d="M1710 1675 c7 -9 10 -19 6 -22 -4 -4 -11 -1 -16 7 -7 11 -10 8 -15
-13 -4 -14 -5 -32 -2 -39 3 -7 6 -3 6 10 1 12 6 22 12 22 6 0 9 -7 6 -14 -4
-11 -1 -13 11 -9 15 6 14 3 -2 -15 -11 -12 -14 -22 -9 -22 6 0 16 7 23 15 10
12 10 19 2 27 -18 18 -14 31 5 24 13 -5 11 0 -6 18 -26 28 -42 36 -21 11z"/>
<path d="M1750 1626 c0 -2 8 -10 18 -17 15 -13 16 -12 3 4 -13 16 -21 21 -21
13z"/>
<path d="M627 1593 c-17 -16 -6 -33 21 -32 24 2 25 2 4 6 -15 3 -22 10 -18 19
6 15 3 18 -7 7z"/>
<path d="M1735 1578 c-10 -26 -1 -52 19 -56 15 -3 18 0 12 21 -6 24 -4 24 19
14 32 -16 50 -53 29 -61 -24 -9 -36 -7 -29 4 4 6 11 8 16 5 5 -4 9 -1 9 5 0
25 -35 4 -37 -23 -1 -23 2 -27 20 -23 12 1 16 1 10 -1 -19 -7 -15 -25 4 -21 9
2 20 14 23 28 l6 25 8 -24 c9 -25 -12 -51 -41 -51 -7 0 -13 -4 -13 -9 0 -17
79 13 90 35 14 25 5 48 -15 40 -9 -3 -25 15 -44 50 -31 53 -47 71 -34 37 6
-16 5 -16 -10 -4 -9 7 -17 10 -17 5 0 -5 -4 -2 -10 6 -8 12 -10 12 -15 -2z
m25 -40 c0 -5 -4 -8 -10 -8 -5 0 -10 10 -10 23 0 18 2 19 10 7 5 -8 10 -18 10
-22z m120 -72 c0 -3 -4 -8 -10 -11 -5 -3 -10 -1 -10 4 0 6 5 11 10 11 6 0 10
-2 10 -4z"/>
<path d="M570 1549 c-12 -22 -12 -23 4 -10 9 8 20 11 23 7 4 -4 1 -11 -7 -16
-11 -7 -3 -9 25 -9 22 1 31 4 21 6 -11 3 -27 15 -36 26 l-17 21 -13 -25z"/>
<path d="M545 1502 c-3 -9 -3 -13 1 -10 3 4 20 0 36 -8 42 -22 46 -11 4 14
-31 18 -35 19 -41 4z"/>
<path d="M521 1449 c-9 -27 2 -52 12 -27 4 10 8 10 15 -1 7 -10 11 -10 17 -1
4 7 -1 13 -14 17 -12 3 -21 10 -21 15 0 6 7 7 16 4 26 -10 69 -19 64 -13 -3 2
-22 12 -42 20 l-37 15 -10 -29z"/>
<path d="M1808 994 c-4 -18 1 -23 27 -32 29 -8 34 -7 38 10 4 15 2 17 -8 8
-16 -13 -43 -3 -47 18 -3 14 -5 13 -10 -4z"/>
<path d="M535 990 c-13 -5 -14 -9 -5 -9 8 0 24 4 35 9 13 5 14 9 5 9 -8 0 -24
-4 -35 -9z"/>
<path d="M540 965 l-25 -14 28 3 c30 3 63 26 37 26 -8 -1 -26 -7 -40 -15z"/>
<path d="M1791 947 c-1 -10 10 -22 25 -27 28 -11 44 -6 43 13 0 9 -2 9 -6 0
-7 -19 -23 -16 -24 5 0 10 -3 12 -6 5 -7 -18 -21 -16 -26 5 -4 16 -5 16 -6 -1z"/>
<path d="M537 931 c-10 -11 -8 -13 13 -6 45 13 56 23 26 22 -15 -1 -33 -8 -39
-16z"/>
<path d="M573 918 c-24 -12 -30 -32 -13 -43 17 -10 60 23 54 40 -7 17 -11 18
-41 3z m22 -25 c-11 -7 -22 -13 -27 -13 -14 0 -8 19 9 29 25 13 40 1 18 -16z"/>
<path d="M1784 908 c4 -12 0 -18 -12 -18 -13 -1 -11 -4 8 -15 30 -17 65 -21
40 -5 -13 8 -12 10 3 10 9 0 17 5 17 11 0 6 -8 8 -19 4 -13 -4 -24 0 -31 12
-11 16 -11 17 -6 1z"/>
<path d="M593 868 c-13 -6 -23 -15 -23 -20 0 -8 17 -1 50 22 20 13 1 12 -27
-2z"/>
<path d="M1744 859 c-8 -13 30 -50 50 -48 7 0 7 2 -1 6 -7 2 -13 9 -13 15 0 6
7 8 15 4 8 -3 15 -2 15 3 0 5 -8 11 -17 15 -10 3 -23 8 -30 12 -6 3 -15 0 -19
-7z m26 -9 c0 -5 -4 -10 -10 -10 -5 0 -10 5 -10 10 0 6 5 10 10 10 6 0 10 -4
10 -10z"/>
<path d="M603 840 c-25 -10 -31 -22 -10 -17 6 1 11 -6 10 -16 -1 -17 1 -16 23
4 38 36 28 49 -23 29z m27 -10 c0 -5 -5 -10 -11 -10 -5 0 -7 5 -4 10 3 6 8 10
11 10 2 0 4 -4 4 -10z"/>
<path d="M1723 819 c-6 -6 -9 -18 -6 -25 3 -8 -1 -14 -10 -14 -26 0 -31 -21
-9 -43 18 -17 23 -18 37 -7 14 12 14 14 -1 31 -15 17 -15 18 12 16 35 -2 39
19 8 39 -15 10 -23 11 -31 3z m37 -24 c10 -12 10 -15 -3 -15 -8 0 -20 7 -27
15 -10 12 -10 15 3 15 8 0 20 -7 27 -15z m-32 -48 c3 -16 1 -17 -17 -7 -25 13
-28 33 -4 28 10 -2 19 -11 21 -21z"/>
<path d="M640 800 c-22 -16 -22 -18 -5 -17 11 1 24 8 28 15 14 21 4 22 -23 2z"/>
<path d="M670 781 c-8 -6 -17 -8 -21 -5 -4 2 -9 -3 -13 -11 -8 -21 7 -19 35 5
25 20 25 26 -1 11z"/>
<path d="M689 733 l-24 -28 28 24 c15 14 27 26 27 28 0 8 -8 1 -31 -24z"/>
<path d="M1650 735 c-11 -13 -9 -19 8 -35 26 -24 33 -25 25 -3 -5 13 -3 15 13
9 15 -6 15 -3 -5 18 -29 31 -25 30 -41 11z m30 -9 c0 -11 -19 -15 -25 -6 -3 5
1 10 9 10 9 0 16 -2 16 -4z"/>
<path d="M700 715 c-23 -24 -16 -37 7 -14 9 9 10 6 6 -12 l-6 -24 27 24 c29
27 36 42 9 20 -15 -13 -16 -12 -11 9 8 29 -3 28 -32 -3z"/>
<path d="M756 691 c-3 -5 -3 -16 0 -25 3 -9 2 -16 -4 -16 -6 0 -13 6 -15 13
-3 7 -6 5 -6 -5 -1 -12 6 -18 20 -18 18 0 20 4 15 25 -6 24 7 35 17 15 3 -6 4
-5 3 2 -3 15 -22 22 -30 9z"/>
<path d="M1610 688 c0 -12 -6 -16 -17 -12 -10 3 -6 -2 10 -11 15 -8 27 -21 27
-27 0 -6 2 -9 5 -6 3 3 -1 20 -9 39 -9 19 -15 26 -16 17z"/>
<path d="M804 672 c5 -8 1 -21 -10 -33 -9 -10 -15 -21 -12 -24 2 -3 14 6 26
19 19 23 19 26 4 38 -13 11 -14 11 -8 0z"/>
<path d="M1555 633 c6 -27 6 -27 -13 -10 -16 15 -21 15 -31 4 -9 -11 -7 -20 7
-37 19 -23 42 -21 42 4 0 7 10 12 23 12 25 -1 31 25 7 31 -13 4 -13 3 0 -6 8
-5 11 -13 7 -17 -4 -4 -15 0 -25 9 -15 16 -15 19 -2 27 13 8 12 10 -4 10 -15
0 -17 -5 -11 -27z m-5 -40 c0 -24 -25 -9 -28 17 -3 21 -2 22 12 11 9 -7 16
-20 16 -28z"/>
<path d="M825 618 l-16 -33 20 25 c20 24 26 40 16 40 -2 0 -12 -15 -20 -32z"/>
<path d="M853 601 c-10 -34 -10 -35 4 -13 20 29 48 31 33 1 -12 -22 -7 -49 9
-49 6 0 18 15 26 33 14 27 14 29 1 13 -8 -10 -17 -24 -19 -30 -2 -6 -8 -8 -12
-4 -5 5 -3 19 3 32 9 21 8 27 -11 39 -22 14 -23 13 -34 -22z"/>
<path d="M1460 603 c0 -7 -9 -13 -20 -13 -24 0 -27 -28 -4 -56 15 -18 15 -18
5 3 -13 27 -14 43 -2 43 5 0 14 -12 20 -27 10 -27 11 -27 6 7 l-6 35 16 -27
c11 -20 20 -25 33 -20 16 6 16 7 0 10 -10 2 -18 7 -18 11 0 13 -29 46 -30 34z"/>
<path d="M950 578 c0 -7 -3 -24 -6 -38 -4 -18 -1 -16 10 9 19 39 19 41 6 41
-5 0 -10 -6 -10 -12z"/>
<path d="M981 548 c-6 -17 -11 -32 -11 -33 0 -2 9 -5 21 -8 16 -4 18 -3 9 8
-14 16 -9 38 9 46 12 5 12 7 -1 12 -12 4 -19 -3 -27 -25z"/>
<path d="M1366 548 c12 -42 23 -55 19 -23 -2 17 -4 33 -4 38 -1 4 -6 7 -12 7
-6 0 -8 -9 -3 -22z"/>
<path d="M1398 552 c-4 -12 0 -26 8 -33 16 -13 18 2 5 35 -7 19 -8 19 -13 -2z"/>
<path d="M1057 554 c-4 -4 -7 -20 -7 -36 0 -23 4 -29 18 -26 11 2 17 13 17 32
0 29 -14 43 -28 30z m23 -29 c0 -14 -4 -25 -10 -25 -5 0 -10 11 -10 25 0 14 5
25 10 25 6 0 10 -11 10 -25z"/>
<path d="M1316 530 c8 -40 14 -52 14 -27 0 20 16 23 23 5 3 -7 6 -1 6 14 1 15
-3 30 -9 33 -5 3 -10 -2 -10 -12 -1 -17 -2 -17 -16 2 -13 18 -14 17 -8 -15z"/>
<path d="M1105 519 c-4 -17 -4 -33 -1 -36 3 -4 6 1 6 10 0 10 8 17 18 17 14 0
15 2 2 10 -13 9 -13 11 0 20 13 8 13 10 -2 10 -10 0 -19 -11 -23 -31z"/>
<path d="M1179 513 c4 -31 6 -33 9 -13 2 14 9 31 14 38 8 9 5 12 -9 12 -16 0
-18 -5 -14 -37z"/>
<path d="M1220 515 c0 -30 3 -35 23 -34 16 1 18 2 5 6 -21 5 -24 23 -5 23 8 0
7 4 -3 10 -13 9 -13 11 0 20 13 8 12 10 -2 10 -14 0 -18 -8 -18 -35z"/>
<path d="M1264 536 c-7 -19 14 -58 29 -53 6 2 12 10 15 18 3 12 2 12 -7 -1
-13 -18 -23 -9 -25 24 -1 29 -4 32 -12 12z"/>
</g>
</svg>
