<svg width="40" height="40" viewBox="0 0 40 40" fill="none" xmlns="http://www.w3.org/2000/svg">
<g clip-path="url(#clip0_206_1931)">
<path d="M31.9008 21.5667C31.9675 21.0667 32.0008 20.55 32.0008 20C32.0008 19.4667 31.9675 18.9333 31.8842 18.4333L35.2675 15.8C35.5675 15.5667 35.6508 15.1167 35.4675 14.7833L32.2675 9.25C32.0675 8.88333 31.6508 8.76667 31.2842 8.88333L27.3008 10.4833C26.4675 9.85 25.5842 9.31667 24.6008 8.91667L24.0008 4.68333C23.9342 4.28333 23.6008 4 23.2008 4H16.8008C16.4008 4 16.0842 4.28333 16.0175 4.68333L15.4175 8.91667C14.4342 9.31667 13.5342 9.86667 12.7175 10.4833L8.73417 8.88333C8.3675 8.75 7.95083 8.88333 7.75083 9.25L4.5675 14.7833C4.3675 15.1333 4.43417 15.5667 4.7675 15.8L8.15083 18.4333C8.0675 18.9333 8.00083 19.4833 8.00083 20C8.00083 20.5167 8.03417 21.0667 8.1175 21.5667L4.73417 24.2C4.43417 24.4333 4.35083 24.8833 4.53417 25.2167L7.73417 30.75C7.93417 31.1167 8.35083 31.2333 8.7175 31.1167L12.7008 29.5167C13.5342 30.15 14.4175 30.6833 15.4008 31.0833L16.0008 35.3167C16.0842 35.7167 16.4008 36 16.8008 36H23.2008C23.6008 36 23.9342 35.7167 23.9842 35.3167L24.5842 31.0833C25.5675 30.6833 26.4675 30.15 27.2842 29.5167L31.2675 31.1167C31.6342 31.25 32.0508 31.1167 32.2508 30.75L35.4508 25.2167C35.6508 24.85 35.5675 24.4333 35.2508 24.2L31.9008 21.5667ZM20.0008 26C16.7008 26 14.0008 23.3 14.0008 20C14.0008 16.7 16.7008 14 20.0008 14C23.3008 14 26.0008 16.7 26.0008 20C26.0008 23.3 23.3008 26 20.0008 26Z" fill="white"/>
</g>
<defs>
<clipPath id="clip0_206_1931">
<rect width="40" height="40" fill="white"/>
</clipPath>
</defs>
</svg>
